<?xml version="1.0" encoding="UTF-8"?>
<!DOCTYPE svg PUBLIC "-//W3C//DTD SVG 1.1//EN" "http://www.w3.org/Graphics/SVG/1.1/DTD/svg11.dtd">
<!-- Creator: CorelDRAW 2021 (64-Bit) -->
<svg xmlns="http://www.w3.org/2000/svg" xml:space="preserve" width="50mm" height="50mm" version="1.1" style="shape-rendering:geometricPrecision; text-rendering:geometricPrecision; image-rendering:optimizeQuality; fill-rule:evenodd; clip-rule:evenodd"
viewBox="0 0 5000 5000"
 xmlns:xlink="http://www.w3.org/1999/xlink"
 xmlns:xodm="http://www.corel.com/coreldraw/odm/2003">
 <defs>
  <style type="text/css">
   <![CDATA[
    .str0 {stroke:#700101;stroke-width:255.06;stroke-linejoin:round;stroke-miterlimit:10}
    .fil0 {fill:none}
    .fil4 {fill:none;fill-rule:nonzero}
    .fil1 {fill:#700101;fill-rule:nonzero}
    .fil2 {fill:#FDAB08;fill-rule:nonzero}
    .fil3 {fill:white;fill-rule:nonzero}
   ]]>
  </style>
 </defs>
 <g id="Layer_x0020_1">
  <metadata id="CorelCorpID_0Corel-Layer"/>
  <rect class="fil0" x="-6.13" y="6.11" width="5000.02" height="5000.02"/>
  <rect class="fil0" x="493.87" y="506.11" width="4000.02" height="4000.02"/>
  <g id="_1947541304512">
   <path class="fil1" d="M2493.76 506.12c-404.37,0 -784.57,157.49 -1070.49,443.36 -452.5,452.74 -571.51,1144.86 -296.18,1722.25 14.76,30.89 59.4,124.32 1037.55,1648.83 74.53,116.23 201.41,185.6 339.38,185.6 138.58,0 265.3,-69.98 338.99,-187.11 956.93,-1522.1 998.57,-1608.28 1014.26,-1640.72 279.55,-579.16 161.77,-1273.9 -293.07,-1728.78 -285.92,-285.94 -666.06,-443.43 -1070.44,-443.43l0 0zm0 255.16c322.14,0 644.27,122.87 890.04,368.6 388.74,388.79 470.04,968.74 243.78,1437.42 -47.19,97.72 -719.13,1168.44 -1000.44,1615.89 -28.5,45.32 -75.71,67.83 -123.12,67.83 -47.69,0 -95.54,-22.86 -124.65,-68.21 -287.7,-448.34 -974.62,-1521.61 -1022.03,-1620.88 -223.04,-467.7 -140.8,-1044.71 246.28,-1432.05 245.82,-245.73 567.95,-368.6 890.14,-368.6z"/>
   <path class="fil2" d="M2502.25 4250.91c-47.08,-0.57 -94.1,-23.3 -122.88,-68.1 -287.7,-448.34 -974.62,-1521.61 -1022.03,-1620.88 -223.04,-467.7 -140.8,-1044.71 246.28,-1432.05 247.92,-247.99 573.61,-370.44 898.63,-368.23l0 3489.26z"/>
   <path class="fil3" d="M3056.9 1891.54c0,331.84 -268.78,600.8 -600.68,600.8 -331.84,0 -600.68,-268.96 -600.68,-600.8 0,-331.83 268.84,-600.74 600.68,-600.74 331.9,0 600.68,268.91 600.68,600.74z"/>
   <path class="fil4 str0" d="M3056.9 1891.54c0,331.84 -268.78,600.8 -600.68,600.8 -331.84,0 -600.68,-268.96 -600.68,-600.8 0,-331.83 268.84,-600.74 600.68,-600.74 331.9,0 600.68,268.91 600.68,600.74z"/>
  </g>
 </g>
</svg>
