<?xml version="1.0" encoding="UTF-8"?>
<!DOCTYPE svg PUBLIC "-//W3C//DTD SVG 1.1//EN" "http://www.w3.org/Graphics/SVG/1.1/DTD/svg11.dtd">
<!-- Creator: CorelDRAW 2021 (64-Bit) -->
<svg xmlns="http://www.w3.org/2000/svg" xml:space="preserve" width="50mm" height="50mm" version="1.1" style="shape-rendering:geometricPrecision; text-rendering:geometricPrecision; image-rendering:optimizeQuality; fill-rule:evenodd; clip-rule:evenodd"
viewBox="0 0 5000 5000"
 xmlns:xlink="http://www.w3.org/1999/xlink"
 xmlns:xodm="http://www.corel.com/coreldraw/odm/2003">
 <defs>
  <style type="text/css">
   <![CDATA[
    .fil0 {fill:none}
    .fil7 {fill:#112559}
    .fil1 {fill:#4F0000}
    .fil5 {fill:#990000}
    .fil4 {fill:#E60000}
    .fil2 {fill:#E6E6E6}
    .fil8 {fill:#FFC354}
    .fil9 {fill:#FFD88F}
    .fil6 {fill:white}
    .fil3 {fill:white}
   ]]>
  </style>
     <clipPath id="id0">
      <path d="M3130.05 4396.45c-92.43,17.62 -186.45,26.42 -280.55,26.42 -532.61,0 -999.87,-279.56 -1263.26,-699.9 9.85,-10.17 19.21,-21.13 28.02,-32.98 67.64,-91.09 83.9,-209.3 79.96,-319.87 -4.43,-124.73 -34.06,-253.45 -70.29,-372.56 -51.93,-170.76 -122.62,-338.06 -199.76,-499.09 186,-610.77 753.73,-1055.21 1425.33,-1055.21 822.79,0 1489.8,667.01 1489.8,1489.8 0,172.64 -29.64,343.96 -88.29,506.31 -20.85,57.71 -66.01,97.47 -125.91,110.82 -59.89,13.35 -117.67,-3.46 -161.05,-46.84l-227.76 -227.78c-43.12,-43.11 -59.97,-100.39 -47.08,-159.99 12.97,-59.94 19.47,-121.19 19.47,-182.52 0,-474.52 -384.67,-859.18 -859.18,-859.18 -474.51,0 -859.18,384.66 -859.18,859.18 0,470.85 379.13,854.2 849.95,859.14 47.33,0.5 87.87,17.54 121.32,51l259 259c46.81,46.81 62.78,111.12 43.32,174.38 -19.47,63.27 -68.83,107.47 -133.86,119.87z"/>
     </clipPath>
     <clipPath id="id1">
      <path d="M2674.8 789.99c72.18,-74.47 167.43,-151.26 266.76,-185.14 40.4,-13.78 111.86,-28.78 147.06,5.18 33.9,32.7 19.52,99.97 6.89,138.55 -36.37,111.09 -127.51,227.71 -204.52,313.49 -14.12,15.74 -15.68,38.34 -3.84,55.86 11.84,17.53 33.38,24.52 53.26,17.29 103.85,-37.77 237.32,-73.74 348.93,-61.45 50.01,5.5 113.1,23.61 136.01,73.63 17.14,37.44 6.79,81.88 -9.55,117.64 -25.43,55.64 -71.18,105.89 -118.4,146.21 -138.5,-42.79 -282.72,-65.37 -427.7,-67.46 -357.41,-5.15 -701.6,114.18 -978.19,338.37 -13.85,-22.67 -26.83,-46.03 -39.09,-69.05 -25.8,-48.45 -49.45,-98.4 -70.46,-149.11 -27.19,-65.62 -53.63,-140.05 -64.52,-210.39 -4.13,-26.74 -10.73,-89.34 11.43,-110.72 12.67,-12.23 38.21,-10.16 53.85,-7.69 1.11,0.18 2.06,0.3 3.18,0.39 74.73,6.49 145.2,78 189.93,132.38 12.52,15.23 32.38,20.61 50.88,13.79 18.5,-6.82 30.11,-23.81 29.75,-43.52 -0.29,-15.58 2.36,-33.67 4.73,-49.05 4.13,-26.83 9.67,-53.61 15.79,-80.06 15.77,-68.17 36.03,-136.37 59.96,-202.12 24.56,-67.48 55.72,-140.91 95.86,-200.64 16.94,-25.22 54.66,-75.16 88.67,-76.89 22.11,-1.12 43.43,20.7 56.39,36.67 54.5,83.39 55.37,220.82 49.13,315.99 -1.44,21.96 12.55,41.39 33.83,46.99 21.28,5.59 43.03,-4.45 52.57,-24.28 14.6,-30.34 36.24,-60.86 56.35,-87.76 32.82,-43.9 68.72,-86.09 105.06,-127.1z"/>
     </clipPath>
     <clipPath id="id2">
      <path d="M700.29 3036.33c103.03,-49.5 212.13,-83.18 311.27,-106.1 49.61,-88.11 105.19,-173.53 164.43,-255.33 32.89,-45.4 67.54,-90.9 103.89,-134.56 -258.78,58.3 -488.26,197.06 -579.59,495.99z"/>
     </clipPath>
     <clipPath id="id3">
      <path d="M1365.54 2556.98c-217.27,235.45 -799.64,1074.39 -162.67,1180.76 714.04,51.05 319.51,-855.28 162.67,-1180.76z"/>
     </clipPath>
     <clipPath id="id4">
      <path d="M3557.6 3356.8l531.66 531.64c67.83,67.83 67.83,178.49 0,246.32l-164.96 164.95c-67.83,67.83 -178.48,67.83 -246.31,0l-531.64 -531.65c-67.84,-67.83 -67.84,-178.48 0,-246.31l164.94 -164.95c67.83,-67.83 178.48,-67.83 246.31,0z"/>
     </clipPath>
 </defs>
 <g id="Layer_x0020_1">
  <metadata id="CorelCorpID_0Corel-Layer"/>
  <rect class="fil0" x="-6.13" y="6.11" width="5000.02" height="5000.02"/>
  <rect class="fil0" x="493.87" y="506.11" width="4000.02" height="4000.02"/>
  <g id="_1948060686496">
   <path class="fil1" d="M942.74 3034.03c-70.76,20.33 -140.39,45.69 -206.39,77.38l-171.2 82.2 55.47 -181.61c95.61,-312.99 332.82,-483.48 640.94,-552.9l94.53 -21.28c92.2,-278.48 257.82,-518.39 471.41,-700.7l-7.03 -11.5c-14.66,-23.99 -28.36,-48.56 -41.56,-73.38 -27.11,-50.88 -51.81,-103.06 -73.92,-156.33 -30.24,-72.96 -57.76,-151.33 -69.84,-229.54 -9.33,-60.17 -11.33,-137.92 35.9,-183.44 33.94,-32.69 80.45,-36.94 123.06,-30.19 71.62,6.16 135.67,48.72 188.77,99.86 3.79,-20.86 8.2,-41.56 12.95,-62.22 16.57,-71.75 37.69,-142.67 62.88,-211.84 27.28,-75 60.3,-152.21 104.94,-218.63 34.86,-51.89 86.75,-110.19 153.59,-113.6 52.09,-2.67 94.11,28.98 125.26,67.33l2.75 3.34 2.33 3.62c42.85,65.59 59.64,151.17 64.05,235.25 31.9,-41.77 66.09,-81.92 102.11,-122.44 83.33,-86.12 188.27,-168.95 300.96,-207.39 74.25,-25.31 170.33,-35.18 231.71,24.03 60.88,58.72 52.26,151.09 28.28,224.42 -27.61,84.25 -80.08,167.99 -138.09,243.25 86.53,-22.62 177.94,-35.99 261.85,-26.74 81.5,8.95 166.29,42.44 202.6,121.73 27.69,60.42 17.28,128.3 -9.49,186.94 -26.07,57.09 -67.59,107.98 -113.65,151.29 608.83,217.09 1044.68,798.73 1044.68,1482.11 0,182.19 -31.32,363.26 -93.24,534.62 -30.53,84.54 -98.41,144.26 -186.15,163.79 -87.62,19.53 -174.57,-5.75 -238.04,-69.21l-227.75 -227.8c-63.09,-63.09 -88.49,-149.29 -69.63,-236.49 11.75,-54.14 17.62,-109.53 17.62,-164.91 0,-428.56 -347.39,-775.87 -775.91,-775.87 -105.82,0 -206.64,21.15 -298.55,59.51 19.37,44.01 30.11,92.66 30.11,143.79 0,197.31 -160.04,357.35 -357.35,357.35 -39.93,0 -78.33,-6.54 -114.22,-18.66 -23.28,73.8 -35.86,152.38 -35.86,233.88 0,425.18 342.31,771.41 767.54,775.87 69.09,0.75 130.47,26.52 179.32,75.41l258.98 258.99c68.59,68.54 92.58,165.07 64.09,257.73 -28.56,92.78 -102.57,159.04 -197.89,177.24 -97.57,18.57 -196.85,27.86 -296.17,27.86 -543.83,0 -1045.85,-279.39 -1333.82,-738.93l-2.29 -3.63c-79.62,46.06 -185.02,66.63 -316.45,57.22l-3.91 -0.29 -3.83 -0.62c-368.85,-61.59 -417.11,-344.82 -303.46,-652.98 15.86,-43.02 35.14,-87.66 57.01,-132.89zm2673.75 263.9l531.67 531.63c100.36,100.32 100.36,263.77 0,364.09l-164.96 164.95c-100.32,100.37 -263.77,100.37 -364.09,0l-531.67 -531.67c-100.36,-100.32 -100.36,-263.77 0,-364.09l164.95 -164.91c100.37,-100.36 263.78,-100.36 364.1,0z"/>
   <g>
    <path class="fil2" d="M3130.05 4396.45c-92.43,17.62 -186.45,26.42 -280.55,26.42 -532.61,0 -999.87,-279.56 -1263.26,-699.9 9.85,-10.17 19.21,-21.13 28.02,-32.98 67.64,-91.09 83.9,-209.3 79.96,-319.87 -4.43,-124.73 -34.06,-253.45 -70.29,-372.56 -51.93,-170.76 -122.62,-338.06 -199.76,-499.09 186,-610.77 753.73,-1055.21 1425.33,-1055.21 822.79,0 1489.8,667.01 1489.8,1489.8 0,172.64 -29.64,343.96 -88.29,506.31 -20.85,57.71 -66.01,97.47 -125.91,110.82 -59.89,13.35 -117.67,-3.46 -161.05,-46.84l-227.76 -227.78c-43.12,-43.11 -59.97,-100.39 -47.08,-159.99 12.97,-59.94 19.47,-121.19 19.47,-182.52 0,-474.52 -384.67,-859.18 -859.18,-859.18 -474.51,0 -859.18,384.66 -859.18,859.18 0,470.85 379.13,854.2 849.95,859.14 47.33,0.5 87.87,17.54 121.32,51l259 259c46.81,46.81 62.78,111.12 43.32,174.38 -19.47,63.27 -68.83,107.47 -133.86,119.87z"/>
    <g style="clip-path:url(#id0)">
     <g>
      <path id="_1" class="fil3" d="M3184.67 4304.71c-92.44,17.62 -186.45,26.42 -280.56,26.42 -532.61,0 -999.87,-279.56 -1263.25,-699.89 9.84,-10.18 19.21,-21.14 28.01,-32.99 67.65,-91.08 83.91,-209.29 79.96,-319.87 -4.42,-124.73 -34.06,-253.45 -70.28,-372.56 -51.93,-170.76 -122.63,-338.06 -199.77,-499.09 186.01,-610.77 753.73,-1055.21 1425.33,-1055.21 822.79,0 1489.8,667.01 1489.8,1489.8 0,172.64 -29.63,343.96 -88.28,506.31 -20.85,57.72 -66.01,97.47 -125.91,110.82 -59.9,13.35 -117.67,-3.46 -161.06,-46.84l-227.76 -227.77c-43.12,-43.12 -59.97,-100.4 -47.08,-160 12.98,-59.94 19.47,-121.19 19.47,-182.52 0,-474.52 -384.67,-859.18 -859.18,-859.18 -474.51,0 -859.18,384.66 -859.18,859.18 0,470.85 379.13,854.2 849.95,859.14 47.33,0.5 87.87,17.54 121.33,51l259 259c46.81,46.81 62.78,111.12 43.31,174.38 -19.47,63.27 -68.83,107.48 -133.85,119.87z"/>
     </g>
    </g>
    <path class="fil0" d="M3130.05 4396.45c-92.43,17.62 -186.45,26.42 -280.55,26.42 -532.61,0 -999.87,-279.56 -1263.26,-699.9 9.85,-10.17 19.21,-21.13 28.02,-32.98 67.64,-91.09 83.9,-209.3 79.96,-319.87 -4.43,-124.73 -34.06,-253.45 -70.29,-372.56 -51.93,-170.76 -122.62,-338.06 -199.76,-499.09 186,-610.77 753.73,-1055.21 1425.33,-1055.21 822.79,0 1489.8,667.01 1489.8,1489.8 0,172.64 -29.64,343.96 -88.29,506.31 -20.85,57.71 -66.01,97.47 -125.91,110.82 -59.89,13.35 -117.67,-3.46 -161.05,-46.84l-227.76 -227.78c-43.12,-43.11 -59.97,-100.39 -47.08,-159.99 12.97,-59.94 19.47,-121.19 19.47,-182.52 0,-474.52 -384.67,-859.18 -859.18,-859.18 -474.51,0 -859.18,384.66 -859.18,859.18 0,470.85 379.13,854.2 849.95,859.14 47.33,0.5 87.87,17.54 121.32,51l259 259c46.81,46.81 62.78,111.12 43.32,174.38 -19.47,63.27 -68.83,107.47 -133.86,119.87z"/>
    <path class="fil4" d="M2674.8 789.99c72.18,-74.47 167.43,-151.26 266.76,-185.14 40.4,-13.78 111.86,-28.78 147.06,5.18 33.9,32.7 19.52,99.97 6.89,138.55 -36.37,111.09 -127.51,227.71 -204.52,313.49 -14.12,15.74 -15.68,38.34 -3.84,55.86 11.84,17.53 33.38,24.52 53.26,17.29 103.85,-37.77 237.32,-73.74 348.93,-61.45 50.01,5.5 113.1,23.61 136.01,73.63 17.14,37.44 6.79,81.88 -9.55,117.64 -25.43,55.64 -71.18,105.89 -118.4,146.21 -138.5,-42.79 -282.72,-65.37 -427.7,-67.46 -357.41,-5.15 -701.6,114.18 -978.19,338.37 -13.85,-22.67 -26.83,-46.03 -39.09,-69.05 -25.8,-48.45 -49.45,-98.4 -70.46,-149.11 -27.19,-65.62 -53.63,-140.05 -64.52,-210.39 -4.13,-26.74 -10.73,-89.34 11.43,-110.72 12.67,-12.23 38.21,-10.16 53.85,-7.69 1.11,0.18 2.06,0.3 3.18,0.39 74.73,6.49 145.2,78 189.93,132.38 12.52,15.23 32.38,20.61 50.88,13.79 18.5,-6.82 30.11,-23.81 29.75,-43.52 -0.29,-15.58 2.36,-33.67 4.73,-49.05 4.13,-26.83 9.67,-53.61 15.79,-80.06 15.77,-68.17 36.03,-136.37 59.96,-202.12 24.56,-67.48 55.72,-140.91 95.86,-200.64 16.94,-25.22 54.66,-75.16 88.67,-76.89 22.11,-1.12 43.43,20.7 56.39,36.67 54.5,83.39 55.37,220.82 49.13,315.99 -1.44,21.96 12.55,41.39 33.83,46.99 21.28,5.59 43.03,-4.45 52.57,-24.28 14.6,-30.34 36.24,-60.86 56.35,-87.76 32.82,-43.9 68.72,-86.09 105.06,-127.1z"/>
    <g style="clip-path:url(#id1)">
     <g>
      <path id="_1_0" class="fil5" d="M2856.78 1249.57c677.94,106.88 1140.81,743.03 1033.93,1420.96 -104.39,662.11 -949.39,1269.14 -1489.95,1685.66 -21.18,16.34 -50.5,11.72 -65.63,-10.35 -386.19,-562.63 -1003.39,-1400.45 -899.05,-2062.3 106.62,-677.98 742.77,-1140.85 1420.7,-1033.97z"/>
     </g>
    </g>
    <path class="fil0" d="M2674.8 789.99c72.18,-74.47 167.43,-151.26 266.76,-185.14 40.4,-13.78 111.86,-28.78 147.06,5.18 33.9,32.7 19.52,99.97 6.89,138.55 -36.37,111.09 -127.51,227.71 -204.52,313.49 -14.12,15.74 -15.68,38.34 -3.84,55.86 11.84,17.53 33.38,24.52 53.26,17.29 103.85,-37.77 237.32,-73.74 348.93,-61.45 50.01,5.5 113.1,23.61 136.01,73.63 17.14,37.44 6.79,81.88 -9.55,117.64 -25.43,55.64 -71.18,105.89 -118.4,146.21 -138.5,-42.79 -282.72,-65.37 -427.7,-67.46 -357.41,-5.15 -701.6,114.18 -978.19,338.37 -13.85,-22.67 -26.83,-46.03 -39.09,-69.05 -25.8,-48.45 -49.45,-98.4 -70.46,-149.11 -27.19,-65.62 -53.63,-140.05 -64.52,-210.39 -4.13,-26.74 -10.73,-89.34 11.43,-110.72 12.67,-12.23 38.21,-10.16 53.85,-7.69 1.11,0.18 2.06,0.3 3.18,0.39 74.73,6.49 145.2,78 189.93,132.38 12.52,15.23 32.38,20.61 50.88,13.79 18.5,-6.82 30.11,-23.81 29.75,-43.52 -0.29,-15.58 2.36,-33.67 4.73,-49.05 4.13,-26.83 9.67,-53.61 15.79,-80.06 15.77,-68.17 36.03,-136.37 59.96,-202.12 24.56,-67.48 55.72,-140.91 95.86,-200.64 16.94,-25.22 54.66,-75.16 88.67,-76.89 22.11,-1.12 43.43,20.7 56.39,36.67 54.5,83.39 55.37,220.82 49.13,315.99 -1.44,21.96 12.55,41.39 33.83,46.99 21.28,5.59 43.03,-4.45 52.57,-24.28 14.6,-30.34 36.24,-60.86 56.35,-87.76 32.82,-43.9 68.72,-86.09 105.06,-127.1z"/>
    <path class="fil6" d="M2223.71 2086.39c-151.37,0 -274.08,122.71 -274.08,274.08 0,151.37 122.71,274.08 274.08,274.08 151.37,0 274.07,-122.71 274.07,-274.08 0,-151.37 -122.7,-274.08 -274.07,-274.08z"/>
    <path class="fil7" d="M2223.71 2177.16c-101.24,0 -183.31,82.08 -183.31,183.31 0,101.24 82.07,183.31 183.31,183.31 101.23,0 183.3,-82.07 183.3,-183.31 0,-101.23 -82.07,-183.31 -183.3,-183.31z"/>
    <path class="fil8" d="M700.29 3036.33c103.03,-49.5 212.13,-83.18 311.27,-106.1 49.61,-88.11 105.19,-173.53 164.43,-255.33 32.89,-45.4 67.54,-90.9 103.89,-134.56 -258.78,58.3 -488.26,197.06 -579.59,495.99z"/>
    <g style="clip-path:url(#id2)">
     <g>
      <path id="_1_1" class="fil9" d="M663.1 3004.01c103.03,-49.5 212.13,-83.18 311.27,-106.1 49.61,-88.12 105.19,-173.53 164.43,-255.33 32.89,-45.41 67.54,-90.91 103.89,-134.56 -258.78,58.3 -488.26,197.05 -579.59,495.99z"/>
     </g>
    </g>
    <path class="fil0" d="M700.29 3036.33c103.03,-49.5 212.13,-83.18 311.27,-106.1 49.61,-88.11 105.19,-173.53 164.43,-255.33 32.89,-45.4 67.54,-90.9 103.89,-134.56 -258.78,58.3 -488.26,197.06 -579.59,495.99z"/>
    <path class="fil5" d="M1365.54 2556.98c-217.27,235.45 -799.64,1074.39 -162.67,1180.76 714.04,51.05 319.51,-855.28 162.67,-1180.76z"/>
    <g style="clip-path:url(#id3)">
     <g>
      <path id="_1_2" class="fil4" d="M1421.43 2329.66c-217.28,235.46 -799.65,1074.39 -162.68,1180.77 714.04,51.05 319.51,-855.29 162.68,-1180.77z"/>
     </g>
    </g>
    <path class="fil0" d="M1365.54 2556.98c-217.27,235.45 -799.64,1074.39 -162.67,1180.76 714.04,51.05 319.51,-855.28 162.67,-1180.76z"/>
    <path class="fil6" d="M2063.82 2292.83c-37.36,0 -67.65,30.29 -67.65,67.64 0,37.36 30.29,67.65 67.65,67.65 37.36,0 67.65,-30.29 67.65,-67.65 0,-37.35 -30.29,-67.64 -67.65,-67.64z"/>
    <path class="fil2" d="M3557.6 3356.8l531.66 531.64c67.83,67.83 67.83,178.49 0,246.32l-164.96 164.95c-67.83,67.83 -178.48,67.83 -246.31,0l-531.64 -531.65c-67.84,-67.83 -67.84,-178.48 0,-246.31l164.94 -164.95c67.83,-67.83 178.48,-67.83 246.31,0z"/>
    <g style="clip-path:url(#id4)">
     <g>
      <path id="_1_3" class="fil3" d="M3580.91 3286.89l531.65 531.64c67.83,67.83 67.83,178.48 0,246.32l-164.95 164.95c-67.83,67.83 -178.48,67.83 -246.32,0l-531.64 -531.65c-67.83,-67.83 -67.83,-178.48 0,-246.31l164.95 -164.95c67.83,-67.83 178.48,-67.83 246.31,0z"/>
     </g>
    </g>
    <path class="fil0" d="M3557.6 3356.8l531.66 531.64c67.83,67.83 67.83,178.49 0,246.32l-164.96 164.95c-67.83,67.83 -178.48,67.83 -246.31,0l-531.64 -531.65c-67.84,-67.83 -67.84,-178.48 0,-246.31l164.94 -164.95c67.83,-67.83 178.48,-67.83 246.31,0z"/>
   </g>
  </g>
 </g>
</svg>
