<?xml version="1.0" encoding="UTF-8"?>
<!DOCTYPE svg PUBLIC "-//W3C//DTD SVG 1.1//EN" "http://www.w3.org/Graphics/SVG/1.1/DTD/svg11.dtd">
<!-- Creator: CorelDRAW 2021 (64-Bit) -->
<svg xmlns="http://www.w3.org/2000/svg" xml:space="preserve" width="50mm" height="50mm" version="1.1" style="shape-rendering:geometricPrecision; text-rendering:geometricPrecision; image-rendering:optimizeQuality; fill-rule:evenodd; clip-rule:evenodd"
viewBox="0 0 5000 5000"
 xmlns:xlink="http://www.w3.org/1999/xlink"
 xmlns:xodm="http://www.corel.com/coreldraw/odm/2003">
 <defs>
  <style type="text/css">
   <![CDATA[
    .fil0 {fill:none}
    .fil6 {fill:#700101;fill-rule:nonzero}
    .fil2 {fill:#E6E6E6;fill-rule:nonzero}
    .fil5 {fill:#F0D4B4;fill-rule:nonzero}
    .fil4 {fill:#FDAB08;fill-rule:nonzero}
    .fil3 {fill:#FFCC00;fill-rule:nonzero}
    .fil1 {fill:white;fill-rule:nonzero}
   ]]>
  </style>
 </defs>
 <g id="Layer_x0020_1">
  <metadata id="CorelCorpID_0Corel-Layer"/>
  <rect class="fil0" x="-6.13" y="6.11" width="5000.02" height="5000.02"/>
  <rect class="fil0" x="493.87" y="506.11" width="4000.02" height="4000.02"/>
  <g id="_1947552365280">
   <g>
    <g>
     <g>
      <g>
       <path class="fil1" d="M2652.44 1395.31c0,365.34 222.6,579.32 497.18,579.32 274.57,0 497.17,-213.99 497.17,-579.32 0,-365.33 -222.59,-738.77 -497.17,-738.77 -274.58,0 -497.18,373.43 -497.18,738.77z"/>
       <path class="fil2" d="M3149.61 656.54c54.06,0 106.08,14.52 154.8,40.56 -198.78,106.2 -342.37,404.79 -342.37,698.21 0,293.4 143.61,489.06 342.37,554.79 -48.73,16.11 -100.73,24.53 -154.8,24.53 -274.58,0 -497.17,-213.99 -497.17,-579.32 0,-365.34 222.59,-738.77 497.17,-738.77l0 0z"/>
       <path class="fil1" d="M1658.09 1395.31c0,365.34 222.59,579.32 497.17,579.32 274.58,0 497.17,-213.98 497.17,-579.32 0,-365.33 -222.59,-738.77 -497.17,-738.77 -274.58,0 -497.17,373.43 -497.17,738.77z"/>
       <path class="fil2" d="M2155.26 656.54c54.06,0 106.08,14.52 154.8,40.56 -198.78,106.2 -342.37,404.79 -342.37,698.21 0,293.4 143.61,489.06 342.37,554.79 -48.73,16.11 -100.74,24.53 -154.8,24.53 -274.58,0 -497.17,-213.99 -497.17,-579.32 0,-365.34 222.59,-738.77 497.17,-738.77l0 0z"/>
       <path class="fil1" d="M3149.61 2015.72c0,365.33 222.6,579.32 497.17,579.32 274.58,0 497.18,-213.99 497.18,-579.32 0,-365.34 -222.6,-738.77 -497.18,-738.77 -274.57,0 -497.17,373.43 -497.17,738.77z"/>
       <path class="fil2" d="M3646.79 1276.95c54.06,0 106.08,14.52 154.8,40.56 -198.77,106.2 -342.37,404.79 -342.37,698.21 0,293.4 143.62,489.06 342.37,554.79 -48.73,16.11 -100.73,24.53 -154.8,24.53 -274.58,0 -497.17,-213.99 -497.17,-579.32 -0.01,-365.34 222.59,-738.77 497.17,-738.77l0 0z"/>
       <path class="fil1" d="M2155.26 2015.72c0,365.33 222.6,579.32 497.17,579.32 274.58,0 497.18,-213.99 497.18,-579.32 0,-365.34 -222.6,-738.77 -497.18,-738.77 -274.57,0 -497.17,373.43 -497.17,738.77z"/>
       <path class="fil2" d="M2652.44 1276.95c54.06,0 106.08,14.52 154.8,40.56 -198.78,106.2 -342.37,404.79 -342.37,698.21 0,293.4 143.62,489.06 342.37,554.79 -48.73,16.11 -100.73,24.53 -154.8,24.53 -274.58,0 -497.17,-213.99 -497.17,-579.32 -0.01,-365.34 222.59,-738.77 497.17,-738.77l0 0z"/>
       <path class="fil1" d="M1160.91 2015.72c0,365.33 222.6,579.32 497.17,579.32 274.58,0 497.18,-213.99 497.18,-579.32 0,-365.34 -222.6,-738.77 -497.18,-738.77 -274.57,0 -497.17,373.43 -497.17,738.77z"/>
       <path class="fil2" d="M1658.09 1276.95c54.06,0 106.08,14.52 154.8,40.56 -198.78,106.2 -342.37,404.79 -342.37,698.21 0,293.4 143.61,489.06 342.37,554.79 -48.73,16.11 -100.74,24.53 -154.8,24.53 -274.58,0 -497.17,-213.99 -497.17,-579.32 -0.01,-365.34 222.59,-738.77 497.17,-738.77l0 0z"/>
      </g>
      <path class="fil3" d="M1578.84 3569.62l2147.2 0c281.83,0 510.31,-228.48 510.31,-510.31l0 -648.28 -3167.82 0 0 648.28c0,281.83 228.47,510.31 510.31,510.31z"/>
      <path class="fil4" d="M1378.13 2411.03l0 648.28c0,281.83 228.48,510.31 510.32,510.31l-309.6 0c-281.84,0 -510.32,-228.48 -510.32,-510.31l0 -648.28 309.6 0z"/>
      <path class="fil3" d="M1026.59 2411.03l3251.7 0c70.1,0 126.93,-56.82 126.93,-126.93l0 -0.02c0,-70.1 -56.82,-126.93 -126.93,-126.93l-3251.7 -0.01c-70.1,0 -126.94,56.83 -126.94,126.94l0 0.01c0,70.11 56.84,126.94 126.94,126.94l0 0z"/>
     </g>
     <path class="fil1" d="M571.35 3498.58c0,365.33 222.6,579.32 497.18,579.32 274.57,0 497.17,-213.99 497.17,-579.32 0,-365.34 -222.6,-738.77 -497.17,-738.77 -274.58,0 -497.18,373.43 -497.18,738.77z"/>
     <path class="fil2" d="M1068.53 2759.81c54.06,0 106.08,14.52 154.8,40.56 -198.77,106.21 -342.37,404.79 -342.37,698.21 0,293.4 143.62,489.06 342.37,554.79 -48.73,16.11 -100.73,24.53 -154.8,24.53 -274.58,0 -497.17,-213.99 -497.17,-579.32 -0.01,-365.34 222.59,-738.77 497.17,-738.77l0 0z"/>
     <path class="fil1" d="M1920.33 3361.42c-365.36,0 -579.36,222.58 -579.36,497.15 0,274.57 214,497.15 579.36,497.15 365.36,0 738.81,-222.58 738.81,-497.15 0,-274.57 -373.46,-497.15 -738.81,-497.15z"/>
     <path class="fil2" d="M1920.33 3361.42c53.47,0 107.1,4.8 159.72,13.8 -273.23,52.35 -429.47,248.82 -429.47,483.35 0,234.53 156.24,430.99 429.47,483.35 -52.61,9 -106.25,13.8 -159.72,13.8 -365.36,0 -579.36,-222.58 -579.36,-497.15 0,-274.57 214,-497.15 579.36,-497.15z"/>
     <g>
      <path class="fil5" d="M2020.94 895.71c23.15,-22.19 59.9,-21.41 82.08,1.73 22.19,23.14 21.41,59.89 -1.73,82.07 -41,39.32 -80.42,103.12 -108.14,175.04 -8.89,23.05 -30.87,37.18 -54.18,37.18 -6.94,0 -14.01,-1.26 -20.87,-3.9 -29.91,-11.53 -44.81,-45.14 -33.28,-75.05 34.14,-88.54 82.49,-165.63 136.12,-217.07l0 0z"/>
     </g>
    </g>
   </g>
   <g>
    <path class="fil6" d="M1993.15 1154.55c-26.45,68.64 -135.3,28.2 -108.33,-41.77 34.15,-88.54 82.48,-165.63 136.12,-217.07 54.19,-51.94 134.53,31.86 80.36,83.8 -41,39.32 -80.42,103.12 -108.15,175.04l0 0z"/>
    <path class="fil6" d="M668.24 2960.66c94,-145.26 213.84,-233.7 342.24,-254.24l0 -238.08c-225.42,-19.56 -211.17,-369.24 16.12,-369.24l80.18 0c-2.53,-27.23 -3.9,-55.07 -3.9,-83.37 0,-189.71 56.47,-385.78 154.94,-537.93 97.76,-151.06 223.47,-240.71 357.7,-256.4 26.86,-153.77 87.11,-298.21 172.26,-410.91 103.29,-136.7 233.8,-211.99 367.5,-211.99 132.63,0 262.34,74.22 365.22,208.99 54.96,71.99 99.69,157.35 132.01,249.98 9.06,-25.87 19.05,-51.37 30.16,-76.35 53.85,-121.11 152.71,-280.37 317.96,-351.23 138.13,-59.23 295.87,-29.78 421.95,78.77 56.88,48.98 -18.88,136.96 -75.75,87.99 -93.06,-80.14 -202.57,-102.02 -300.44,-60.05 -72.11,30.93 -175.36,106.64 -257.62,291.69 -28.03,63.05 -48.68,129.56 -61.83,198.32 122.17,25.2 235.83,112.16 325.8,251.2 39.36,60.81 71.88,128.71 96.89,200.35 25.02,-71.63 57.53,-139.54 96.89,-200.35 89.99,-139.04 203.64,-226 325.82,-251.21 -3.93,-20.46 -64.47,-172.83 -41.65,-196.95 29.54,-31.21 84.29,-57.26 107.22,3.33 22.98,60.74 40.25,123.99 51.55,188.43 134.22,15.71 259.9,105.35 357.65,256.4 98.46,152.14 154.93,348.21 154.93,537.92 0,28.31 -1.38,56.14 -3.9,83.38l80.15 -0.01c224.84,0 244.54,349.43 16.11,369.24l0 590.97c0,186.48 -90.28,352.24 -229.41,455.94l353.15 0c75.06,0 75.06,116.1 0,116.1l-1775.38 0c48.77,70.96 74.42,147.98 74.42,227.23 0,150.08 -91.95,292.24 -258.91,400.27 -152.16,98.46 -348.23,154.92 -537.95,154.92 -286.39,0 -506.7,-133.04 -595.09,-341.28 -149.17,80.52 -340.22,84.35 -492.71,10.66 -67.59,-32.65 -17.07,-137.17 50.51,-104.53 126.84,61.3 288.83,53.84 408.51,-20.78 -5.58,-31.93 -8.63,-65.02 -8.63,-99.26 0,-183.49 82.61,-335.89 221.43,-434.32 -28.19,-329.33 -226.78,-606.39 -435.82,-606.39 -109.36,0 -216.91,73.12 -302.82,205.88 -86.62,133.85 -136.3,306.92 -136.3,474.84 0,83.28 12.36,160.04 36.76,228.15 24.63,68.76 -83.86,110.17 -109.3,39.15 -28.91,-80.7 -43.56,-170.62 -43.56,-267.29 0,-189.73 56.48,-385.79 154.94,-537.94l0 0zm687.03 -1419.79c-86.62,133.85 -136.3,306.92 -136.3,474.84 0,28.51 1.64,56.33 4.55,83.38l869.14 0c2.91,-27.06 4.55,-54.88 4.55,-83.38 0,-167.92 -49.68,-341 -136.3,-474.84 -85.92,-132.76 -193.46,-205.87 -302.82,-205.87 -109.36,0 -216.91,73.12 -302.82,205.87zm1072.93 -662.94c-80.42,-105.33 -177.35,-163.34 -272.94,-163.34 -185.92,0 -367.94,224.85 -422.8,511.98 122.22,25.18 235.91,112.15 325.92,251.23 39.36,60.81 71.87,128.71 96.89,200.35 25.02,-71.63 57.53,-139.54 96.89,-200.35 89.98,-139.04 203.62,-225.99 325.8,-251.21 -25.21,-130.45 -78.52,-255.34 -149.76,-348.66zm527.06 662.94c-169.2,-261.46 -434.77,-264.02 -605.64,0 -86.62,133.85 -136.3,306.92 -136.3,474.84 0,28.5 1.64,56.32 4.55,83.38l869.14 0c2.91,-27.06 4.55,-54.88 4.55,-83.38 0,-167.91 -49.68,-340.99 -136.3,-474.84l0 0zm1130.65 474.85c0,-167.92 -49.67,-341 -136.3,-474.84 -85.91,-132.76 -193.46,-205.87 -302.82,-205.87 -109.35,0 -216.9,73.11 -302.82,205.87 -86.61,133.84 -136.3,306.92 -136.3,474.84 0,28.5 1.64,56.33 4.55,83.37l869.14 0c2.91,-27.04 4.55,-54.87 4.55,-83.37zm261.26 268.35c0,-37.98 -30.9,-68.88 -68.88,-68.88l-3251.7 0c-89.04,0 -89.05,137.78 0,137.78l3251.7 0c37.98,0 68.88,-30.9 68.88,-68.9l0 0zm-2948.15 1574.5c0,120.8 47.46,230.37 133.63,308.54 94.15,85.41 228.2,130.56 387.68,130.56 167.92,0 341.01,-49.67 474.87,-136.29 132.77,-85.92 205.88,-193.45 205.88,-302.81 0,-109.35 -73.11,-216.89 -205.88,-302.8 -133.85,-86.62 -306.94,-136.3 -474.87,-136.3 -159.48,0 -293.53,45.15 -387.68,130.56 -86.16,78.17 -133.63,187.75 -133.63,308.55l0 -0.01zm215.25 -495.67c88.86,-38.41 192.2,-59.53 306.05,-59.53 189.72,0 385.79,56.46 537.95,154.92 26.19,16.95 50.54,34.75 72.97,53.28l1194.8 0c249.38,0 452.26,-202.88 452.26,-452.27l0 -590.22 -3051.72 0 0 237.26c258.84,40.88 445.07,350.63 487.69,656.56z"/>
    <path class="fil6" d="M1690.89 3581.77c67.57,-32.66 118.12,71.84 50.54,104.52 -73.37,35.48 -110.58,93.44 -110.58,172.28 0,75.05 -116.1,75.05 -116.1,0 0,-123.57 62.55,-221.88 176.14,-276.8l0 0z"/>
    <path class="fil6" d="M2490.99 1778.27c-26.47,68.63 -135.3,28.2 -108.33,-41.77 34.15,-88.56 82.49,-165.65 136.13,-217.06 54.17,-51.96 134.53,31.85 80.35,83.8 -41,39.29 -80.41,103.09 -108.15,175.03z"/>
   </g>
  </g>
 </g>
</svg>
