<?xml version="1.0" encoding="UTF-8"?>
<!DOCTYPE svg PUBLIC "-//W3C//DTD SVG 1.1//EN" "http://www.w3.org/Graphics/SVG/1.1/DTD/svg11.dtd">
<!-- Creator: CorelDRAW 2021 (64-Bit) -->
<svg xmlns="http://www.w3.org/2000/svg" xml:space="preserve" width="90mm" height="90mm" version="1.1" style="shape-rendering:geometricPrecision; text-rendering:geometricPrecision; image-rendering:optimizeQuality; fill-rule:evenodd; clip-rule:evenodd"
viewBox="0 0 9000 9000"
 xmlns:xlink="http://www.w3.org/1999/xlink"
 xmlns:xodm="http://www.corel.com/coreldraw/odm/2003">
 <defs>
  <style type="text/css">
   <![CDATA[
    .fil0 {fill:none}
    .fil4 {fill:#700101;fill-rule:nonzero}
    .fil2 {fill:#FDAB08;fill-rule:nonzero}
    .fil3 {fill:#FF9305;fill-rule:nonzero}
    .fil1 {fill:#FFCC00;fill-rule:nonzero}
   ]]>
  </style>
 </defs>
 <g id="Layer_x0020_1">
  <metadata id="CorelCorpID_0Corel-Layer"/>
  <rect class="fil0" x="-4.27" y="4.25" width="9000.02" height="9000.02"/>
  <rect class="fil0" x="995.73" y="1004.25" width="7000.02" height="7000.02"/>
  <g id="_2499840428816">
   <path class="fil1" d="M7483.05 2791.83l-5974.64 0c-226.53,0 -410.16,183.63 -410.16,410.16l0 3288.65c0,226.53 183.63,410.16 410.16,410.16l4277.27 0c73.32,0 141.06,39.14 177.67,102.67l389.67 676.09c42.08,73.01 147.45,73.01 189.52,0l389.67 -676.09c36.61,-63.53 104.36,-102.67 177.68,-102.67l373.16 0c226.53,0 410.16,-183.63 410.16,-410.16l0 -3288.65c0,-226.52 -183.63,-410.16 -410.16,-410.16z"/>
   <path class="fil2" d="M1861.4 2791.83l0 362c0,354.79 287.6,642.39 642.38,642.39l2212.51 0.01c405.62,0 734.44,-328.83 734.44,-734.45l0 -269.95 -3589.33 0z"/>
   <path class="fil2" d="M7483.05 2791.83l-396.49 0c226.53,0 410.16,183.63 410.16,410.16l0 3288.65c0,226.53 -183.63,410.16 -410.16,410.16l-373.14 0c-73.33,0 -141.07,39.14 -177.68,102.67l-286.19 496.55 103.48 179.54c42.09,73.01 147.45,73.01 189.53,0l389.66 -676.09c36.62,-63.53 104.36,-102.67 177.68,-102.67l373.15 0c226.53,0 410.16,-183.63 410.16,-410.16l0 -3288.65c0,-226.52 -183.63,-410.16 -410.16,-410.16z"/>
   <path class="fil2" d="M4540.11 3513.68l-2304.56 0c-354.78,0 -642.39,-287.61 -642.39,-642.39l0 -954.68c0,-354.79 287.62,-642.39 642.39,-642.39l2304.56 0c354.78,0 642.39,287.61 642.39,642.39l0 954.67c0,354.78 -287.62,642.4 -642.39,642.4z"/>
   <path class="fil3" d="M4540.11 1274.22l-353.91 0c354.78,0 642.38,287.61 642.38,642.39l0 954.68c0,354.78 -287.61,642.39 -642.38,642.39l353.91 0c354.78,0 642.39,-287.61 642.39,-642.39l0 -954.68c0,-354.79 -287.62,-642.39 -642.39,-642.39z"/>
   <path class="fil4" d="M1098.25 3863.19c56.65,0 102.54,-45.91 102.54,-102.54l0 -558.64c0,-163.84 128.78,-298.15 290.42,-307.11 12.55,399.85 341.5,721.31 744.34,721.31l2304.56 0c410.75,0 744.94,-334.17 744.94,-744.93l0 -954.67c0,-410.76 -334.18,-744.93 -744.94,-744.93l-2304.56 0c-410.75,0 -744.93,334.17 -744.93,744.93l0 773.18c-274.49,9.42 -494.9,235.49 -494.9,512.22l0 558.64c0,56.63 45.89,102.54 102.53,102.54zm597.44 -1070.8c0,-0.17 0.03,-0.35 0.03,-0.53 0,-0.17 -0.03,-0.36 -0.03,-0.53l0 -874.73c0,-297.68 242.18,-539.85 539.85,-539.85l2304.56 -0.01c297.68,0 539.86,242.17 539.86,539.85l0 954.68c0,297.68 -242.18,539.85 -539.86,539.85l-2304.55 0.01c-297.66,0 -539.85,-242.18 -539.85,-539.85l0 -78.89 -0.01 0z"/>
   <path class="fil4" d="M7483.05 2689.3l-1878.25 0c-56.65,0 -102.54,45.92 -102.54,102.55 0,56.62 45.89,102.54 102.54,102.54l1878.25 -0.01c169.61,0 307.62,137.99 307.62,307.62l0 2571.85c0,56.63 45.89,102.55 102.54,102.55 56.64,0 102.54,-45.92 102.54,-102.55l-0.01 -2571.85c0,-282.71 -229.98,-512.7 -512.69,-512.7z"/>
   <path class="fil4" d="M7893.21 6081.48c-56.65,0 -102.54,45.91 -102.54,102.54l0 306.62c0,169.63 -138.01,307.62 -307.62,307.62l-373.15 0c-109.66,0 -211.78,59 -266.52,154.01l-389.68 676.1c-0.79,1.37 -1.98,3.42 -5.92,3.42 -3.96,0 -5.14,-2.07 -5.93,-3.42l-360.23 -625.02 191.46 0c56.64,0 102.54,-45.91 102.54,-102.54 0,-56.63 -45.9,-102.54 -102.54,-102.54l-4764.67 0c-169.61,0 -307.62,-137.99 -307.62,-307.62l0 -2319.91c0,-56.63 -45.89,-102.54 -102.54,-102.54 -56.64,0 -102.54,45.91 -102.54,102.54l0 2319.9c0,282.71 229.99,512.7 512.7,512.7l4277.27 0c36.55,0 70.58,19.66 88.84,51.33l389.66 676.1c38.3,66.43 106.95,106.1 183.63,106.09 76.68,-0.01 145.3,-39.67 183.58,-106.09l389.68 -676.11c18.26,-31.67 52.29,-51.32 88.85,-51.32l373.13 0c282.71,0 512.7,-229.99 512.7,-512.7l0 -306.62c-0.01,-56.63 -45.9,-102.54 -102.54,-102.54z"/>
   <path class="fil4" d="M2589.34 4921.85c11.18,-11.91 128.82,-112.27 184.28,-219 13.85,-26.61 26.85,-59.28 39.05,-97.99 12.22,-38.72 18.35,-78.23 18.35,-118.57 0,-117.74 -45.18,-215.36 -135.5,-292.8 -90.37,-77.43 -211.36,-116.15 -362.98,-116.15 -135.5,0 -243.6,30.67 -324.25,91.96 -254.41,193.36 -45.84,382.49 63.45,285.04 62.07,-55.19 36.83,-67.03 119.39,-105.48 107.18,-49.86 380.96,-42.49 380.96,181.03 0,74.71 -44.69,154.18 -83.47,192.55 -127.21,125.62 -298.84,183.47 -298.84,510.7 0,89.3 21.02,133.96 111.32,133.96 80.63,0 120.99,-29.04 120.99,-87.11 -0.02,-267.85 65.75,-262.67 167.25,-358.14z"/>
   <path class="fil4" d="M2303.49 5541.31c-45.19,0 -81.49,16.15 -108.9,48.4 -27.45,32.29 -41.14,71 -41.14,116.16 0,43.56 13.69,81.9 41.14,114.94 27.41,33.09 63.71,49.6 108.9,49.6 45.15,0 83.86,-16.51 116.14,-49.6 32.25,-33.04 48.4,-71.38 48.4,-114.94 0,-45.15 -16.15,-83.87 -48.4,-116.16 -32.28,-32.25 -70.99,-48.4 -116.14,-48.4z"/>
   <path class="fil4" d="M2491.6 2805.19l0 -412.38 230.26 0c80.13,0 80.78,-153.5 0,-153.5l-230.26 0 0 -301.01c422.68,-8.01 432.24,19.02 459.78,-25.57 29.62,-47.95 19.81,-145.99 -44.4,-145.99 -538.46,5.23 -540.79,-12.35 -585.43,16.55 -17.08,11.05 -25.6,26.1 -25.6,45.15l0 976.74c0,82.44 195.65,81.83 195.65,0.01z"/>
   <path class="fil4" d="M2834.07 2780.02c0,24.66 14.92,45.31 44.72,61.93 29.84,16.63 61.16,24.93 93.93,24.93 41.81,0 66.67,-13.01 74.6,-39.02l56.08 -200.28 322.45 0 57.19 200.17c7.01,26.1 29.09,39.13 66.22,39.13 28.09,0 55.68,-8.01 82.77,-24.08 27.09,-16.04 40.65,-35.11 40.65,-57.19 0,-2 -1.01,-7.01 -3.02,-15.05l-290.46 -946.65c-6.02,-21.08 -21.07,-37.37 -45.15,-48.92 -24.09,-11.52 -51.17,-17.31 -81.27,-17.31 -30.1,0 -56.96,5.19 -80.53,15.6 -63.9,28.18 -15.61,-14.67 -335.17,990.64 -2,8.59 -3.01,13.96 -3.01,16.1zm441.63 -767.97l130.93 462.03 -260.24 0 129.31 -462.03z"/>
   <path class="fil4" d="M4076.34 2871.4c3.92,82.72 -10.9,116.86 18.82,142.98 38.39,33.77 106.1,14.95 106.1,-45.14l0 -97.83c90.29,-10.01 161.52,-42.63 213.71,-97.82 52.16,-55.17 78.27,-135.94 78.27,-242.31l0 -419.9c0,-119.38 -32.13,-206.68 -96.32,-261.87 -64.21,-55.17 -150.02,-82.77 -257.36,-82.77 -107.38,0 -192.88,27.6 -256.61,82.77 -63.72,55.19 -95.57,142.47 -95.57,261.87l0 419.89c-0.01,205.69 96.32,319.06 288.96,340.13zm-93.31 -760.02c0,-115.37 52.16,-173.08 156.52,-173.08 50.16,0 89.03,14.56 116.64,43.65 27.59,29.1 41.38,72.24 41.38,129.43l0 419.89c0,86.31 -32.13,139.98 -96.32,161.04l0 -79.76c0,-20.06 -6.01,-35.11 -18.06,-45.15 -12.04,-10.02 -26.59,-15.05 -43.64,-15.05 -17.06,0 -31.86,5.03 -44.39,15.05 -12.57,10.04 -18.82,25.09 -18.82,45.15l0 79.76c-62.22,-20.05 -93.31,-73.75 -93.31,-161.04l0 -419.89z"/>
   <path class="fil4" d="M3694.23 4096.1l0 1807.31c0,56.63 45.89,102.54 102.54,102.54 56.64,0 102.54,-45.91 102.54,-102.54l-0.01 -1807.31c0,-56.62 -45.89,-102.54 -102.54,-102.54 -56.64,0 -102.53,45.92 -102.53,102.54z"/>
   <path class="fil4" d="M6977.36 4270.29l-2271.82 0c-56.64,0 -102.54,45.91 -102.54,102.54 0,56.63 45.9,102.54 102.54,102.54l2271.82 0c56.65,0 102.54,-45.91 102.54,-102.54 0,-56.63 -45.91,-102.54 -102.54,-102.54z"/>
   <path class="fil4" d="M7079.9 4999.77c0,-56.63 -45.89,-102.55 -102.54,-102.55l-2271.82 0.01c-56.64,0 -102.54,45.91 -102.54,102.54 0,56.63 45.9,102.54 102.54,102.54l2271.82 0c56.63,0 102.54,-45.92 102.54,-102.54z"/>
   <path class="fil4" d="M4705.54 5524.15c-56.64,0 -102.54,45.91 -102.54,102.54 0,56.63 45.9,102.54 102.54,102.54l1135.92 0c56.64,0 102.54,-45.91 102.54,-102.54 0,-56.63 -45.9,-102.54 -102.54,-102.54l-1135.92 0z"/>
  </g>
 </g>
</svg>
