<?xml version="1.0" encoding="UTF-8"?>
<!DOCTYPE svg PUBLIC "-//W3C//DTD SVG 1.1//EN" "http://www.w3.org/Graphics/SVG/1.1/DTD/svg11.dtd">
<!-- Creator: CorelDRAW 2021 (64-Bit) -->
<svg xmlns="http://www.w3.org/2000/svg" xml:space="preserve" width="50mm" height="50mm" version="1.1" style="shape-rendering:geometricPrecision; text-rendering:geometricPrecision; image-rendering:optimizeQuality; fill-rule:evenodd; clip-rule:evenodd"
viewBox="0 0 5000 5000"
 xmlns:xlink="http://www.w3.org/1999/xlink"
 xmlns:xodm="http://www.corel.com/coreldraw/odm/2003">
 <defs>
  <style type="text/css">
   <![CDATA[
    .str0 {stroke:#700101;stroke-width:210.43;stroke-linejoin:round;stroke-miterlimit:10}
    .str1 {stroke:white;stroke-width:210.43;stroke-linecap:round;stroke-linejoin:round;stroke-miterlimit:10}
    .fil0 {fill:none}
    .fil4 {fill:none;fill-rule:nonzero}
    .fil2 {fill:#700101;fill-rule:nonzero}
    .fil5 {fill:#FDAB08;fill-rule:nonzero}
    .fil3 {fill:#FFCB05;fill-rule:nonzero}
    .fil1 {fill:#FFCC00;fill-rule:nonzero}
   ]]>
  </style>
 </defs>
 <g id="Layer_x0020_1">
  <metadata id="CorelCorpID_0Corel-Layer"/>
  <rect class="fil0" x="-6.13" y="6.11" width="5000.02" height="5000.02"/>
  <rect class="fil0" x="493.87" y="506.11" width="4000.02" height="4000.02"/>
  <g id="_1947545768624">
   <path class="fil1" d="M1519.71 4020.16c-240.5,0 -436.18,-195.67 -436.18,-436.28l0 -1352.91c0,-32.39 14.91,-62.96 40.4,-82.91l1321.58 -1033.48c19.03,-14.91 41.91,-22.33 64.83,-22.33 22.92,0 45.88,7.45 64.97,22.42l1288.59 1011.44c25.39,19.94 40.21,50.46 40.21,82.76l0 1375.01c0,240.61 -195.58,436.28 -436.09,436.28l-1948.31 0z"/>
   <path class="fil2" d="M2510.34 987.02c-45.8,0 -91.55,14.91 -129.66,44.65l-1321.56 1033.5c-51.02,39.89 -80.83,101.06 -80.83,165.8l0 1352.91c0,298.56 242.9,541.5 541.42,541.5l1948.31 0c298.52,0 541.36,-242.94 541.36,-541.5l0 -1375.01c0,-64.61 -29.69,-125.64 -80.53,-165.53l-1288.58 -1011.4c-38.16,-29.91 -84.05,-44.92 -129.93,-44.92l0 0zm0 210.45l1288.6 1011.4 0 1375.01c0,182.91 -148.29,331.05 -330.92,331.05l-1948.31 0c-182.72,0 -330.95,-148.14 -330.95,-331.05l0 -1352.91 1321.58 -1033.5z"/>
   <path class="fil3" d="M4317.46 2422.2l-1677.05 -1383.34c-40.45,-40.49 -93.57,-60.39 -146.54,-59.93 -53.07,-0.46 -106.23,19.44 -146.63,59.93l-1676.83 1383.34c-80.06,80.06 -79.97,209.95 0,290.1 80.24,80.06 209.98,80.06 290.23,-0.09l1533.23 -1239.78 1533.35 1239.78c79.98,80.15 210,80.15 290.24,0.09 79.79,-80.15 79.88,-210.04 0,-290.1z"/>
   <path class="fil4" d="M4317.46 2422.2l-1677.05 -1383.34c-40.45,-40.49 -93.57,-60.39 -146.54,-59.93 -53.07,-0.46 -106.23,19.44 -146.63,59.93l-1676.83 1383.34c-80.06,80.06 -79.97,209.95 0,290.1 80.24,80.06 209.98,80.06 290.23,-0.09l1533.23 -1239.78 1533.35 1239.78c79.98,80.15 210,80.15 290.24,0.09 79.79,-80.15 79.88,-210.04 0,-290.1z"/>
   <path class="fil5" d="M1188.76 2373.88c-58.1,0 -105.23,-47.07 -105.23,-105.22l0 -1072.42c0,-112.55 91.58,-204.14 204.14,-204.14l119.27 0c112.59,0 204.13,91.59 204.13,204.14l0 1072.42c0,58.15 -47.07,105.22 -105.17,105.22l-317.14 0z"/>
   <path class="fil2" d="M1406.94 886.88l-119.27 0c-170.58,0 -309.38,138.76 -309.38,309.36l0 1072.42c0,116.25 94.24,210.45 210.47,210.45l317.14 0c116.2,0 210.45,-94.2 210.45,-210.45l0 -1072.42c0,-170.6 -138.81,-309.36 -309.41,-309.36l0 0zm0 210.45c54.62,0 98.96,44.29 98.96,98.91l0 1072.42 -317.14 0 0 -1072.42c0,-54.62 44.34,-98.91 98.91,-98.91l119.27 0z"/>
   <path class="fil5" d="M2483.8 1218.29l-1295.04 1012.68 0 1352.91c0,182.91 148.23,331.05 330.95,331.05l964.09 0 0 -2696.64z"/>
   <path class="fil5" d="M2483.8 979.8c-49.68,1.97 -98.77,21.18 -136.56,59.06l-1676.83 1383.34c-80.06,80.06 -79.97,209.95 0,290.1 80.24,80.06 209.98,80.06 290.23,-0.09l1523.16 -1231.69 0 -500.72z"/>
   <path class="fil4 str0" d="M4317.46 2422.2l-1677.05 -1383.34c-40.45,-40.49 -93.57,-60.39 -146.54,-59.93 -53.07,-0.46 -106.23,19.44 -146.63,59.93l-1676.83 1383.34c-80.06,80.06 -79.97,209.95 0,290.1 80.24,80.06 209.98,80.06 290.23,-0.09l1533.23 -1239.78 1533.35 1239.78c79.98,80.15 210,80.15 290.24,0.09 79.79,-80.15 79.88,-210.04 0,-290.1z"/>
   <path class="fil1" d="M2183.63 4020.16c-58.1,0 -105.22,-47.08 -105.22,-105.23l0 -817.05c0,-140.49 114.33,-254.78 254.88,-254.78l321.16 0c140.54,0 254.87,114.29 254.87,254.78l0 817.05c0,58.15 -47.07,105.23 -105.17,105.23l-620.52 0z"/>
   <path class="fil2" d="M2654.45 2737.87l-321.16 0c-198.56,0 -360.11,161.5 -360.11,360.01l0 817.05c0,116.25 94.2,210.45 210.45,210.45l620.52 0c116.2,0 210.44,-94.2 210.44,-210.45l0 -817.05c0,-198.51 -161.59,-360.01 -360.14,-360.01l0 0zm0 210.45c82.67,0 149.7,66.99 149.7,149.56l0 817.05 -620.52 0 0 -817.05c0,-82.57 67.02,-149.56 149.66,-149.56l321.16 0z"/>
   <line class="fil4 str1" x1="3395.05" y1="2977.79" x2="3395.05" y2= "3603.01" />
  </g>
 </g>
</svg>
