<?xml version="1.0" encoding="UTF-8"?>
<!DOCTYPE svg PUBLIC "-//W3C//DTD SVG 1.1//EN" "http://www.w3.org/Graphics/SVG/1.1/DTD/svg11.dtd">
<!-- Creator: CorelDRAW 2021 (64-Bit) -->
<svg xmlns="http://www.w3.org/2000/svg" xml:space="preserve" width="50mm" height="50mm" version="1.1" style="shape-rendering:geometricPrecision; text-rendering:geometricPrecision; image-rendering:optimizeQuality; fill-rule:evenodd; clip-rule:evenodd"
viewBox="0 0 5000 5000"
 xmlns:xlink="http://www.w3.org/1999/xlink"
 xmlns:xodm="http://www.corel.com/coreldraw/odm/2003">
 <defs>
  <style type="text/css">
   <![CDATA[
    .str0 {stroke:#700101;stroke-width:204.4;stroke-linecap:round;stroke-linejoin:round;stroke-miterlimit:10}
    .str1 {stroke:white;stroke-width:204.4;stroke-linecap:round;stroke-linejoin:round;stroke-miterlimit:10}
    .fil0 {fill:none}
    .fil5 {fill:none;fill-rule:nonzero}
    .fil2 {fill:#700101;fill-rule:nonzero}
    .fil3 {fill:#FDAB08;fill-rule:nonzero}
    .fil1 {fill:#FFCC00;fill-rule:nonzero}
    .fil4 {fill:white;fill-rule:nonzero}
   ]]>
  </style>
 </defs>
 <g id="Layer_x0020_1">
  <metadata id="CorelCorpID_0Corel-Layer"/>
  <rect class="fil0" x="-6.13" y="6.11" width="5000.02" height="5000.02"/>
  <rect class="fil0" x="493.87" y="506.11" width="4000.02" height="4000.02"/>
  <g id="_1983435727392">
   <path class="fil1" d="M4098.47 3483.04c56.43,0 102.21,-45.77 102.21,-102.21l0 -663.47c0,-163.46 -69.44,-320.05 -190.55,-429.64l-357.35 -323.87c-120.12,-108.69 -275.39,-168.55 -437.27,-168.55l-882.88 0c-56.44,0 -102.21,45.76 -102.21,102.21l0 1483.32c0,56.44 45.77,102.21 102.21,102.21l1765.84 0z"/>
   <path class="fil2" d="M2332.63 1693.08l882.88 0c187.3,0 366.93,69.24 505.8,194.95l357.51 323.97c142.36,128.87 224.07,313.11 224.07,505.36l0 663.47c0,112.88 -91.53,204.42 -204.42,204.42l-1765.84 0c-112.92,0 -204.41,-91.54 -204.41,-204.42l0 -1483.32c0,-112.92 91.49,-204.43 204.41,-204.43l0 0zm0 204.43l0 1483.32 1765.84 0 0 -663.47c0,-134.61 -57.2,-263.61 -156.93,-353.87l-357.41 -323.92c-100.75,-91.23 -232.6,-142.06 -368.62,-142.06l-882.88 0z"/>
   <path class="fil3" d="M2332.63 3380.83l1765.84 0 0 -663.47c0,-92.08 -27.35,-181.32 -76.21,-257.53l-1689.63 0 0 921z"/>
   <path class="fil4" d="M2954.16 2534.23l646.81 0c43.81,0 63.1,-55.11 28.97,-82.49l-221.14 -176.86c-66.65,-53.28 -149.89,-82.53 -235.29,-82.53l-192.42 0 -26.93 341.88z"/>
   <path class="fil5 str0" d="M2954.16 2534.23l646.81 0c43.81,0 63.1,-55.11 28.97,-82.49l-221.14 -176.86c-66.65,-53.28 -149.89,-82.53 -235.29,-82.53l-192.42 0"/>
   <line class="fil5" x1="4118.6" y1="3485.57" x2="4386.36" y2= "3485.57" />
   <line class="fil5 str0" x1="4118.6" y1="3485.57" x2="4386.36" y2= "3485.57" />
   <path class="fil3" d="M3546.88 3813.62c209.62,0 380.13,-170.51 380.13,-380.13 0,-209.53 -170.51,-380.04 -380.13,-380.04 -209.53,0 -380.04,170.51 -380.04,380.04 0,209.62 170.51,380.13 380.04,380.13z"/>
   <path class="fil2" d="M3546.88 2951.24c265.98,0 482.35,216.33 482.35,482.25 0,265.96 -216.37,482.34 -482.35,482.34 -265.92,0 -482.25,-216.38 -482.25,-482.34 0,-265.92 216.33,-482.25 482.25,-482.25l0 0zm0 204.42c-153.36,0 -277.83,124.38 -277.83,277.83 0,153.53 124.47,277.92 277.83,277.92 153.45,0 277.92,-124.39 277.92,-277.92 0,-153.45 -124.47,-277.83 -277.92,-277.83z"/>
   <path class="fil1" d="M2232.24 3491.39c468.92,0 591.75,-28.34 646.37,-53.01 36.57,-16.54 60.08,-53.02 60.08,-93.14l0 -1664.92c0,-223.83 -182.03,-405.89 -405.72,-405.89l-1531.06 0c-223.8,0 -405.82,182.06 -405.82,405.89l0 1396.81c0,223.79 182.02,405.91 405.82,405.91l756.93 0c-1.51,0 227.12,8.35 473.37,8.35 0.03,0 0,0 0.03,0z"/>
   <path class="fil2" d="M1001.91 1172.22l1531.06 0c280.09,0 507.93,227.92 507.93,508.1l0 1664.92c0,80.29 -47.01,153.18 -120.21,186.23 -71.36,32.28 -204.11,62.13 -688.45,62.13 -233.52,0 -445.14,-7.24 -477.14,-8.35l-753.19 0c-280.14,0 -508.03,-227.97 -508.03,-508.12l0 -1396.81c0,-280.18 227.89,-508.1 508.03,-508.1l0 0zm0 204.42c-167.54,0 -303.61,135.93 -303.61,303.68l0 1396.81c0,167.68 136.07,303.7 303.61,303.7l756.93 0c0,0 226.19,8.36 473.4,8.36 252.19,0 526.3,-8.72 604.24,-43.95l0 -1664.92c0,-167.75 -136.11,-303.68 -303.51,-303.68l-1531.06 0z"/>
   <path class="fil3" d="M698.3 2459.83l0 617.3c0,167.68 136.07,303.7 303.61,303.7l756.93 0c0,0 923.3,34.17 1077.64,-35.59l0 -885.41 -2138.18 0z"/>
   <path class="fil5 str1" d="M1002 2185.91l0 -342.32c0,-92.87 75.24,-168.01 167.84,-168.01l606.95 0"/>
   <path class="fil3" d="M1701.2 3813.62c209.53,0 380.05,-170.51 380.05,-380.13 0,-209.53 -170.52,-380.04 -380.05,-380.04 -209.61,0 -380.14,170.51 -380.14,380.04 0,209.62 170.53,380.13 380.14,380.13z"/>
   <path class="fil2" d="M1701.2 2951.24c265.92,0 482.26,216.33 482.26,482.25 0,265.96 -216.34,482.34 -482.26,482.34 -265.97,0 -482.34,-216.38 -482.34,-482.34 0,-265.92 216.37,-482.25 482.34,-482.25l0 0zm0 204.42c-153.53,0 -277.93,124.38 -277.93,277.83 0,153.53 124.4,277.92 277.93,277.92 153.44,0 277.83,-124.39 277.83,-277.92 0,-153.45 -124.39,-277.83 -277.83,-277.83z"/>
  </g>
 </g>
</svg>
