<?xml version="1.0" encoding="UTF-8"?>
<!DOCTYPE svg PUBLIC "-//W3C//DTD SVG 1.1//EN" "http://www.w3.org/Graphics/SVG/1.1/DTD/svg11.dtd">
<!-- Creator: CorelDRAW 2021 (64-Bit) -->
<svg xmlns="http://www.w3.org/2000/svg" xml:space="preserve" width="90mm" height="90mm" version="1.1" style="shape-rendering:geometricPrecision; text-rendering:geometricPrecision; image-rendering:optimizeQuality; fill-rule:evenodd; clip-rule:evenodd"
viewBox="0 0 9000 9000"
 xmlns:xlink="http://www.w3.org/1999/xlink"
 xmlns:xodm="http://www.corel.com/coreldraw/odm/2003">
 <defs>
  <style type="text/css">
   <![CDATA[
    .fil0 {fill:none}
    .fil4 {fill:#700101;fill-rule:nonzero}
    .fil2 {fill:#FDAB08;fill-rule:nonzero}
    .fil3 {fill:#FF9305;fill-rule:nonzero}
    .fil1 {fill:#FFCC00;fill-rule:nonzero}
   ]]>
  </style>
 </defs>
 <g id="Layer_x0020_1">
  <metadata id="CorelCorpID_0Corel-Layer"/>
  <rect class="fil0" x="-4.27" y="4.25" width="9000.02" height="9000.02"/>
  <rect class="fil0" x="995.73" y="1004.25" width="7000.02" height="7000.02"/>
  <g id="_2464451376272">
   <g>
    <g>
     <path class="fil1" d="M4884.33 1784.43c-46.33,23.16 -75.59,70.51 -75.59,122.29l0 707.76c0,1046.43 556.02,1581.09 1392.37,2092.88 43.91,26.86 99.3,26.86 143.2,0 836.34,-511.8 1392.37,-1046.45 1392.37,-2092.88l0 -707.76c0,-51.78 -29.27,-99.13 -75.59,-122.29l-1327.27 -663.34c-38.47,-19.24 -83.77,-19.24 -122.24,0l-1327.25 663.34z"/>
    </g>
    <g>
     <path class="fil2" d="M5300.22 2388.89l0 -812.32 -415.89 207.86c-46.34,23.16 -75.6,70.51 -75.6,122.29l0 707.76c0,1046.43 556.01,1581.09 1392.37,2092.88 43.91,26.86 99.28,26.86 143.19,0 121.81,-74.54 237.61,-149.57 346.65,-226.59 -835.42,-511.47 -1390.72,-1046.13 -1390.72,-2091.87l0 -0.01z"/>
    </g>
    <g>
     <g>
      <circle class="fil2" cx="6266.56" cy="2754.62" r="935.12"/>
     </g>
     <g>
      <path class="fil3" d="M5728 2754.62c0,-448.38 315.65,-822.88 736.83,-913.84 -63.93,-13.8 -130.22,-21.26 -198.28,-21.26 -516.45,0 -935.12,418.67 -935.12,935.12 0,516.45 418.66,935.11 935.12,935.11 68.06,0 134.35,-7.45 198.28,-21.25 -421.16,-90.99 -736.83,-465.48 -736.83,-913.87l0 -0.01z"/>
     </g>
    </g>
   </g>
   <g>
    <path class="fil2" d="M1994.42 6151.36l0 -535.4c0,-250.75 204,-454.74 454.74,-454.74 250.75,0 454.74,203.99 454.74,454.74l0 535.4 410.16 0 0 -535.4c0,-477.67 -387.23,-864.88 -864.88,-864.88 -477.65,0 -864.88,387.23 -864.88,864.88l0 535.4 410.12 0z"/>
    <path class="fil3" d="M1816.05 6151.36l0 -535.4c0,-438.35 326.17,-800.27 749,-856.94 -37.93,-5.09 -76.57,-7.96 -115.89,-7.96 -477.66,0 -864.88,387.23 -864.88,864.88l0 535.4 231.77 0.01 0 0.01z"/>
    <g>
     <path class="fil1" d="M3506.82 7901.73l-2115.31 0c-75.51,0 -136.72,-61.2 -136.72,-136.71l0 -1476.93c0,-75.51 61.21,-136.72 136.72,-136.72l2115.31 -0.01c75.51,0 136.72,61.21 136.72,136.72l0 1476.93c0,75.51 -61.21,136.71 -136.72,136.71l0 0.01z"/>
    </g>
    <g>
     <path class="fil2" d="M1829.72 7765.01l0 -1476.93c0,-75.51 61.2,-136.71 136.71,-136.71l-574.92 -0.01c-75.51,0 -136.72,61.21 -136.72,136.72l0 1476.93c0,75.51 61.21,136.71 136.72,136.71l574.93 0.01c-75.51,0 -136.72,-61.2 -136.72,-136.71l0 -0.01z"/>
    </g>
   </g>
   <g>
    <path class="fil4" d="M3019.75 4240.71l587.31 0c56.65,0 102.54,-45.92 102.54,-102.55 0,-56.62 -45.89,-102.54 -102.54,-102.54l-587.31 0c-56.65,0 -102.54,45.92 -102.54,102.54 0,56.63 45.89,102.55 102.54,102.55z"/>
    <path class="fil4" d="M3019.75 4737.65l2385.33 0c56.65,0 102.54,-45.91 102.54,-102.54 0,-56.63 -45.89,-102.54 -102.54,-102.54l-2385.33 0c-56.65,0 -102.54,45.91 -102.54,102.54 0,56.63 45.89,102.54 102.54,102.54l0 0z"/>
    <path class="fil4" d="M5405.08 5029.5l-635.91 0c-56.64,0 -102.54,45.91 -102.54,102.54 0,56.63 45.9,102.54 102.54,102.54l635.91 0c56.65,0 102.54,-45.91 102.54,-102.54 0,-56.63 -45.91,-102.54 -102.54,-102.54l0 0z"/>
    <path class="fil4" d="M7706.92 1692.7l-1327.24 -663.32c-66.98,-33.48 -146.94,-33.48 -213.92,0l-1327.27 663.32c-0.02,0 -0.02,0 -0.02,0 -81.59,40.79 -132.29,122.79 -132.29,214.02l0 190.82 -1440.91 0c-56.65,0 -102.54,45.91 -102.54,102.54 0,56.63 45.89,102.54 102.54,102.54l1440.93 0 0 311.84c0,149.57 11.21,291.76 33.64,427.28l-1720.09 0c-56.65,0 -102.54,45.91 -102.54,102.54 0,56.63 45.89,102.54 102.54,102.54l1763.98 -0.01c26.88,101.17 60.87,198.34 101.93,291.87l-1865.91 0c-56.65,0 -102.54,45.91 -102.54,102.54 0,56.63 45.89,102.54 102.54,102.54l1970.74 0c36.01,61.21 75.45,120.75 118.44,178.72 28.3,38.17 58.22,75.83 89.87,113.14l-1181.58 0c-56.64,0 -102.54,45.92 -102.54,102.54 0,56.63 45.9,102.55 102.54,102.55l1377.2 0c193.32,181.93 437.66,361.04 753.16,554.12 38.59,23.61 81.84,35.41 125.12,35.41 43.27,0 86.52,-11.8 125.12,-35.41 10.49,-6.41 20.77,-12.8 31.09,-19.17l0 2490.12 -2682.83 -0.01 0 -191.18c0,-56.63 -45.9,-102.54 -102.54,-102.54 -56.64,0 -102.54,45.91 -102.54,102.54l0 690.43c0,18.84 -15.33,34.18 -34.18,34.18l-2115.31 -0.01c-18.86,0 -34.19,-15.34 -34.19,-34.18l0 -1476.93c0,-18.84 15.33,-34.18 34.19,-34.18l2115.31 0c18.86,0 34.18,15.34 34.18,34.18l0 307.99c0,56.63 45.9,102.54 102.55,102.54 56.64,0 102.54,-45.91 102.54,-102.54l0 -307.99c0,-20.6 -2.9,-40.51 -7.82,-59.59l1666.81 0c56.65,0 102.54,-45.91 102.54,-102.54 0,-56.63 -45.89,-102.54 -102.54,-102.54l-1988.49 0 0 -291.87 1988.48 0c56.64,0 102.54,-45.91 102.54,-102.54 0,-56.63 -45.9,-102.54 -102.54,-102.54l-1992.78 0c-9.48,-102.74 -35,-200.88 -74.18,-291.87l1061.92 0c56.65,0 102.54,-45.91 102.54,-102.54 0,-56.63 -45.89,-102.54 -102.54,-102.54l-1182.16 0.01c-176.93,-231.37 -455.62,-380.99 -768.71,-380.99 -163.72,0 -317.98,41.01 -453.29,113.1l0 -2459.01 790.88 0c56.65,0 102.54,-45.91 102.54,-102.54 0,-56.63 -45.89,-102.54 -102.54,-102.54l-825.06 0c-94.24,0 -170.89,76.66 -170.89,170.9l0 2639.55c-189.95,176.75 -309.06,428.65 -309.06,707.96l0 432.86 -90.23 0c-131.93,0 -239.26,107.34 -239.26,239.26l0 1476.94c0,131.92 107.33,239.26 239.26,239.26l2115.31 0c131.92,0 239.26,-107.34 239.26,-239.26l0 -294.17 2717.03 0c94.24,0 170.9,-76.66 170.9,-170.9l0 -2656.01c364.98,-244.25 617.68,-472.24 802.47,-721.45 270.99,-365.45 402.73,-793.31 402.73,-1308.01l0 -707.75c0.01,-91.22 -50.68,-173.23 -132.29,-214.02l0 0zm-4905.56 4356.12l-704.39 0 0 -432.86c0,-194.21 158.01,-352.2 352.2,-352.2 194.2,0 352.2,157.99 352.2,352.2l0 432.86 -0.01 0zm-1114.54 -432.86c0,-420.37 342,-762.36 762.35,-762.36 420.36,0 762.35,341.99 762.35,762.36l0 432.86 -205.06 0 0 -432.86c0,-307.29 -249.99,-557.28 -557.29,-557.28 -307.29,0 -557.28,249.99 -557.28,557.28l0 432.86 -205.07 0 0 -432.86zm5947.32 -3001.48c0,985.41 -514.01,1497.92 -1343.34,2005.41 -11.03,6.74 -25.21,6.73 -36.18,0 -829.35,-507.51 -1343.36,-1020 -1343.36,-2005.41l0 -707.76c0,-13.04 7.25,-24.76 18.91,-30.58l1327.25 -663.34c9.56,-4.78 20.98,-4.78 30.56,0l1327.23 663.32c11.67,5.83 18.91,17.54 18.91,30.59l0 707.77 0.02 0z"/>
    <path class="fil4" d="M6266.55 1716.98c-572.17,0 -1037.64,465.49 -1037.64,1037.64 0,572.16 465.48,1037.64 1037.64,1037.64 437.73,0 830.56,-276.99 977.51,-689.27 19.02,-53.33 -8.82,-112 -62.15,-131.01 -53.33,-19.02 -112,8.82 -131.02,62.15 -117.92,330.79 -433.13,553.04 -784.34,553.04 -459.08,0 -832.57,-373.49 -832.57,-832.56 0,-459.08 373.49,-832.57 832.57,-832.57 404.19,0 748.82,288.5 819.42,685.95 9.91,55.76 63.17,92.98 118.89,83.03 55.76,-9.9 92.93,-63.14 83.03,-118.89 -88.02,-495.51 -517.55,-855.15 -1021.34,-855.15l0 0z"/>
    <path class="fil4" d="M6622.22 2474.02l-404.02 404.02 -234.92 -234.94c-40.05,-40.04 -104.96,-40.05 -145.02,0 -40.04,40.05 -40.04,104.98 0,145.01l307.43 307.44c19.24,19.24 45.31,30.04 72.52,30.04 27.21,0 53.26,-10.8 72.51,-30.04l476.52 -476.52c40.05,-40.05 40.05,-104.98 0,-145.01 -40.04,-40.03 -104.95,-40.03 -145.01,0l-0.01 0z"/>
   </g>
  </g>
 </g>
</svg>
