<?xml version="1.0" encoding="UTF-8"?>
<!DOCTYPE svg PUBLIC "-//W3C//DTD SVG 1.1//EN" "http://www.w3.org/Graphics/SVG/1.1/DTD/svg11.dtd">
<!-- Creator: CorelDRAW 2021 (64-Bit) -->
<svg xmlns="http://www.w3.org/2000/svg" xml:space="preserve" width="50mm" height="50mm" version="1.1" style="shape-rendering:geometricPrecision; text-rendering:geometricPrecision; image-rendering:optimizeQuality; fill-rule:evenodd; clip-rule:evenodd"
viewBox="0 0 5000 5000"
 xmlns:xlink="http://www.w3.org/1999/xlink"
 xmlns:xodm="http://www.corel.com/coreldraw/odm/2003">
 <defs>
  <style type="text/css">
   <![CDATA[
    .str0 {stroke:white;stroke-width:222.82;stroke-linecap:round;stroke-linejoin:round;stroke-miterlimit:10}
    .fil0 {fill:none}
    .fil4 {fill:none;fill-rule:nonzero}
    .fil2 {fill:#700101;fill-rule:nonzero}
    .fil3 {fill:#FDAB08;fill-rule:nonzero}
    .fil1 {fill:#FFCC00;fill-rule:nonzero}
   ]]>
  </style>
 </defs>
 <g id="Layer_x0020_1">
  <metadata id="CorelCorpID_0Corel-Layer"/>
  <rect class="fil0" x="-6.13" y="6.11" width="5000.02" height="5000.02"/>
  <rect class="fil0" x="493.87" y="506.11" width="4000.02" height="4000.02"/>
  <g id="_1947545787536">
   <path class="fil1" d="M2835.69 4394.73c-172.51,0 -315.67,-128.47 -338.72,-294.84 -23.25,166.41 -166.51,294.84 -339.21,294.84 -188.8,0 -342.33,-153.57 -342.33,-342.37l1.07 -1201.58 -70.58 75.37c-50.73,55.68 -118.75,87.59 -195.72,91.27 -4.94,0.21 -9.83,0.34 -14.68,0.34 -71.27,0 -137.01,-25.58 -190.1,-73.92 -56.73,-51.55 -88.71,-119.66 -92.39,-196.88 -3.49,-77.32 21.94,-148.05 73.65,-204.74l473.98 -514.44c98.2,-106.57 237.62,-167.62 382.43,-167.62l621.55 0c144.95,0 284.38,61.05 382.58,167.57l473.46 514.01c52.12,57.17 77.56,127.9 74.07,204.97 -3.74,77.37 -35.61,145.44 -92.34,197.13 -53.24,48.39 -118.98,73.92 -190.15,73.92 0,0 -9.78,-0.13 -14.68,-0.34 -77.22,-3.68 -145.34,-35.7 -196.87,-92.63l-67.6 -72.08 8.19 1199.17c-5.37,193.97 -157.16,342.85 -345.61,342.85z"/>
   <path class="fil2" d="M2804.64 1748.74l-621.55 0c-175.86,0 -345.12,74.11 -464.35,203.47l-473.61 514c-72.81,79.94 -108.26,178.39 -103.43,285.64 5.19,107.74 49.71,202.55 128.87,274.54 73.78,67.19 165.45,102.8 264.95,102.8 6.59,0 13.27,-0.15 19.96,-0.48 53.29,-2.53 103.52,-14.83 149.41,-36.24l-0.83 959.7c0,250.41 203.52,453.98 453.7,453.98 134.67,0 255.88,-58.95 339.11,-152.46 83.14,93.51 204.24,152.46 338.82,152.46 249.17,0 449.87,-196.44 456.94,-447.24 0.1,-2.57 0.15,-5.19 0.1,-7.8l-6.54 -957.09c44.96,20.49 94.04,32.22 146.11,34.69 6.69,0.33 13.38,0.48 19.96,0.48 99.31,0 190.98,-35.55 264.99,-102.8 79.21,-72.14 123.69,-166.95 128.77,-274.16 4.89,-107.63 -30.57,-206.08 -102.55,-285.1l-474.34 -514.82c-119.26,-129.46 -288.59,-203.57 -464.49,-203.57l0 0zm0 222.8c113.94,0 223.43,48 300.65,131.72l473.46 513.95c32.08,35.23 46.85,76.74 44.67,124.46 -2.28,47.87 -20.93,87.79 -56,119.76 -32.91,29.9 -71.32,44.91 -115.16,44.91 -3.09,0 -6.2,-0.1 -9.4,-0.24 -47.87,-2.28 -87.68,-20.88 -119.57,-56.11l-263.54 -281.27 10.14 1483.89c-3.59,127.46 -106.73,230.69 -234.2,230.69 -127.35,0 -230.59,-103.23 -230.59,-230.69l0 -636.67 -216.31 0 0 636.42c0,127.51 -103.48,230.94 -231.03,230.94 -127.56,0 -230.9,-103.43 -230.9,-230.94l1.36 -1483.83 -263.64 281.46c-32.08,35.23 -71.89,53.83 -119.67,56.11 -3.19,0.14 -6.28,0.24 -9.39,0.24 -43.85,0 -82.26,-15.01 -115.06,-44.91 -35.17,-31.97 -53.82,-71.89 -56.1,-119.76 -2.18,-47.72 12.59,-89.23 44.67,-124.46l473.55 -513.95c77.22,-83.72 186.62,-131.72 300.51,-131.72l621.55 0z"/>
   <path class="fil3" d="M1882.58 2103.26l-473.55 513.95c-32.08,35.23 -46.85,76.74 -44.67,124.46 2.28,47.87 20.93,87.79 56.1,119.76 35.12,32.03 76.64,46.94 124.45,44.67 47.78,-2.28 87.59,-20.88 119.67,-56.11l263.64 -281.46 -1.36 1483.83c0,127.51 103.34,230.94 230.9,230.94 127.55,0 231.03,-103.43 231.03,-230.94l0 -636.42 106.39 0 0 -1444.4 -312.09 0c-113.89,0 -223.29,48 -300.51,131.72z"/>
   <path class="fil1" d="M2493.92 1541.2c-127.32,0 -237.25,-45.44 -326.77,-135.12 -89.52,-89.48 -135.02,-199.49 -135.02,-326.76 0,-127.26 45.5,-237.14 135.17,-326.77 89.47,-89.52 199.34,-135.02 326.62,-135.02 127.12,0 237.03,45.5 326.71,135.12 89.63,89.67 135.11,199.55 135.11,326.67 0,127.17 -45.44,237.15 -135.06,326.82 -89.63,89.62 -199.6,135.06 -326.76,135.06z"/>
   <path class="fil2" d="M2493.92 506.11c-155.7,0 -295.91,58.04 -405.59,167.86 -109.59,109.44 -167.62,249.65 -167.62,405.35 0,155.7 58.03,296 167.77,405.68 109.49,109.59 249.74,167.57 405.44,167.57 155.6,0 295.8,-57.94 405.48,-167.62 109.78,-109.82 167.71,-250.07 167.71,-405.63 0,-155.51 -57.98,-295.71 -167.71,-405.48 -109.73,-109.69 -249.98,-167.73 -405.48,-167.73l0 0zm0 222.85c96.88,0 179.58,34.15 247.94,102.47 68.3,68.31 102.46,150.91 102.46,247.89 0,97.03 -34.16,179.69 -102.46,248.03 -68.36,68.37 -151.06,102.42 -247.94,102.42 -97.09,0 -179.69,-34.05 -247.9,-102.42 -68.41,-68.34 -102.46,-151 -102.46,-248.03 0,-96.98 34.05,-179.58 102.46,-247.89 68.21,-68.32 150.81,-102.47 247.9,-102.47z"/>
   <path class="fil3" d="M2493.92 728.96c-97.09,0 -179.69,34.15 -247.9,102.47 -68.41,68.31 -102.46,150.91 -102.46,247.89 0,97.03 34.05,179.69 102.46,248.03 68.21,68.37 150.81,102.42 247.9,102.42l0 -700.81z"/>
   <line class="fil4 str0" x1="2670.3" y1="2656.61" x2="2670.3" y2= "2229.51" />
   <line class="fil4 str0" x1="2582.86" y1="989.55" x2="2507.77" y2= "989.55" />
  </g>
 </g>
</svg>
