<?xml version="1.0" encoding="UTF-8"?>
<!DOCTYPE svg PUBLIC "-//W3C//DTD SVG 1.1//EN" "http://www.w3.org/Graphics/SVG/1.1/DTD/svg11.dtd">
<!-- Creator: CorelDRAW 2021 (64-Bit) -->
<svg xmlns="http://www.w3.org/2000/svg" xml:space="preserve" width="90mm" height="90mm" version="1.1" style="shape-rendering:geometricPrecision; text-rendering:geometricPrecision; image-rendering:optimizeQuality; fill-rule:evenodd; clip-rule:evenodd"
viewBox="0 0 9000 9000"
 xmlns:xlink="http://www.w3.org/1999/xlink"
 xmlns:xodm="http://www.corel.com/coreldraw/odm/2003">
 <defs>
  <style type="text/css">
   <![CDATA[
    .fil0 {fill:none}
    .fil3 {fill:#700101;fill-rule:nonzero}
    .fil1 {fill:#FDAB08;fill-rule:nonzero}
    .fil2 {fill:#FFCC00;fill-rule:nonzero}
   ]]>
  </style>
 </defs>
 <g id="Layer_x0020_1">
  <metadata id="CorelCorpID_0Corel-Layer"/>
  <rect class="fil0" x="-4.27" y="4.25" width="9000.02" height="9000.02"/>
  <rect class="fil0" x="995.73" y="1004.25" width="7000.02" height="7000.02"/>
  <g id="_2499845902432">
   <path class="fil1" d="M2406.54 5631.98l2726.21 1497.02 2726.27 -1497.02 0 -2993.99 -2726.27 -1497.02 -2726.21 1497.02 0 2993.99zm0 0z"/>
   <path class="fil1" d="M7859.02 2638.9l0 2993.08 -2726.26 1497.02 -1.61 -0.9 0 -2993.09 2726.27 -1497.02 1.6 0.91zm0 0z"/>
   <path class="fil2" d="M7859.02 2637.99l0 0.06 -2726.26 1497.02 -2726.22 -1497.02 0 -0.06 2726.22 -1497.02 2726.26 1497.02zm0 0z"/>
   <path class="fil2" d="M3489.72 2043.74l2726.27 1497.02 584.2 -326.25 -2726.26 -1496.97 -584.21 326.2zm0 0z"/>
   <path class="fil2" d="M6215.99 3540.77l0 934.98 584.2 -321.51 0 -939.73 -584.2 326.26zm0 0z"/>
   <path class="fil2" d="M4497.6 6184.79c0,929.21 -753.24,1682.45 -1682.4,1682.45 -929.21,0 -1682.45,-753.24 -1682.45,-1682.45 0,-929.16 753.24,-1682.4 1682.45,-1682.4 929.16,0 1682.4,753.24 1682.4,1682.4zm0 0z"/>
   <path class="fil3" d="M7924.82 2518.15l-2726.27 -1497.02c-40.96,-22.48 -90.63,-22.48 -131.59,0l-1027.58 564.23c-21.69,5.72 -41.93,16.61 -58.7,32.26l-1639.93 900.53c-43.74,23.98 -70.93,69.91 -70.93,119.84l0 1810.57c-276.64,86.52 -530.16,239.1 -740.95,449.95 -549.45,549.38 -689.53,1387.32 -348.59,2085.07 33.12,67.83 114.99,95.97 182.81,62.81 67.88,-33.17 95.97,-115.04 62.86,-182.87 -289.67,-592.85 -170.63,-1304.81 296.24,-1771.69 291.97,-291.97 680.13,-452.77 1093.01,-452.77 412.88,0 801.03,160.8 1093,452.77 291.92,291.92 452.72,680.08 452.72,1092.96 0,412.88 -160.8,801.03 -452.77,1093 -466.88,466.88 -1178.83,585.92 -1771.69,296.24 -67.83,-33.16 -149.7,-5.02 -182.81,62.81 -33.17,67.88 -5.08,149.75 62.8,182.86 254.16,124.22 526.85,184.57 797.57,184.57 472.27,-0.05 938.23,-183.87 1287.51,-533.15 160.16,-160.17 286.73,-344.95 376.3,-545.81l589.12 323.48c20.51,11.27 43.15,16.88 65.8,16.88 22.64,0 45.34,-5.61 65.79,-16.88l2726.27 -1496.97c43.74,-24.03 70.92,-69.96 70.92,-119.84l0 -950.15c0,-75.51 -61.2,-136.72 -136.72,-136.72 -75.52,0 -136.72,61.21 -136.72,136.72l0 869.24 -2452.4 1346.63 0 -2682.05 809.37 -444.44 0 704.53c0,48.39 25.53,93.14 67.13,117.71 21.47,12.66 45.5,19.01 69.59,19.01 22.64,0 45.34,-5.6 65.9,-16.93l584.21 -321.56c43.69,-24.03 70.76,-69.9 70.76,-119.73l0 -853.96 785.44 -431.25 0 719.1c0,75.52 61.2,136.72 136.72,136.72 75.52,0 136.72,-61.2 136.72,-136.72l0 -950.14c0,-49.88 -27.18,-95.86 -70.92,-119.84l0.01 0zm-2792.06 -1221.23l2442.2 1341.07 -770.39 423.03 -2442.19 -1341.07 770.38 -423.03zm0 2682.1l-2442.2 -1341.03 798.63 -438.56 2442.25 1341.02 -798.68 438.57zm1082.7 -594.52l-2442.2 -1341.02 305.05 -167.54 2442.26 1341.03 -305.11 167.53zm-2113.92 1514.01c-343.61,-343.62 -800.45,-532.83 -1286.34,-532.83 -91.91,0 -182.7,6.78 -271.94,20.08l0 -1516.73 2453.25 1347.11 0 2682.04 -425.8 -233.81c41.92,-154.35 63.61,-315.31 63.61,-479.59 0,-485.88 -189.22,-942.72 -532.78,-1286.28l0 0.01zm2561.94 -825.07l-310.77 171.06 0 -623.41 310.77 -170.63 0 622.98zm0 0z"/>
   <path class="fil3" d="M7859.02 3997.6c-35.94,0 -71.24,14.63 -96.66,40.06 -25.42,25.42 -40.06,60.67 -40.06,96.66 0,35.94 14.64,71.19 40.06,96.61 25.42,25.48 60.72,40.06 96.66,40.06 35.95,0 71.25,-14.58 96.67,-40.06 25.42,-25.42 40.05,-60.67 40.05,-96.61 0,-35.99 -14.63,-71.24 -40.05,-96.66 -25.42,-25.43 -60.72,-40.06 -96.67,-40.06zm0 0z"/>
   <path class="fil3" d="M2355.49 6321.51c34.98,0 70.01,-13.35 96.66,-40 53.41,-53.41 53.41,-139.98 0,-193.38l-94.69 -94.75 808.03 0c196,0 355.47,159.47 355.47,355.47 0,196 -159.47,355.47 -355.47,355.47l-478.78 0c-75.52,0 -136.72,61.2 -136.72,136.72 0,75.47 61.2,136.67 136.72,136.67l478.78 0c346.77,0 628.91,-282.09 628.91,-628.86 0,-346.76 -282.14,-628.85 -628.91,-628.85l-808.03 0 94.69 -94.75c53.41,-53.4 53.41,-139.97 0,-193.38 -53.35,-53.35 -139.92,-53.35 -193.33,0l-328.13 328.13c-53.35,53.4 -53.35,139.97 0,193.38l328.13 328.07c26.7,26.71 61.68,40.06 96.67,40.06zm0 0z"/>
   <path class="fil3" d="M1625.64 7511.39c-38.88,0 -77.49,-16.55 -104.46,-48.65l-0.27 -0.32c-48.6,-57.78 -41.12,-143.98 16.66,-192.58 57.79,-48.65 144.04,-41.18 192.64,16.61 48.54,57.84 41.23,144.19 -16.56,192.79 -25.69,21.58 -56.93,32.15 -88.01,32.15l0 0zm0 0z"/>
  </g>
 </g>
</svg>
