<?xml version="1.0" encoding="UTF-8"?>
<!DOCTYPE svg PUBLIC "-//W3C//DTD SVG 1.1//EN" "http://www.w3.org/Graphics/SVG/1.1/DTD/svg11.dtd">
<!-- Creator: CorelDRAW 2021 (64-Bit) -->
<svg xmlns="http://www.w3.org/2000/svg" xml:space="preserve" width="50mm" height="50mm" version="1.1" style="shape-rendering:geometricPrecision; text-rendering:geometricPrecision; image-rendering:optimizeQuality; fill-rule:evenodd; clip-rule:evenodd"
viewBox="0 0 5000 5000"
 xmlns:xlink="http://www.w3.org/1999/xlink"
 xmlns:xodm="http://www.corel.com/coreldraw/odm/2003">
 <defs>
  <style type="text/css">
   <![CDATA[
    .str0 {stroke:#700101;stroke-width:205.14;stroke-linecap:round;stroke-linejoin:round;stroke-miterlimit:10}
    .str1 {stroke:white;stroke-width:205.14;stroke-linecap:round;stroke-linejoin:round;stroke-miterlimit:10}
    .fil0 {fill:none}
    .fil3 {fill:none;fill-rule:nonzero}
    .fil2 {fill:#700101;fill-rule:nonzero}
    .fil1 {fill:#FDAB08;fill-rule:nonzero}
    .fil4 {fill:#FFCC00;fill-rule:nonzero}
   ]]>
  </style>
 </defs>
 <g id="Layer_x0020_1">
  <metadata id="CorelCorpID_0Corel-Layer"/>
  <rect class="fil0" x="-6.13" y="6.11" width="5000.02" height="5000.02"/>
  <rect class="fil0" x="493.87" y="506.11" width="4000.02" height="4000.02"/>
  <g id="_1983444094336">
   <path class="fil1" d="M1298.69 3541.29c-183.17,0 -332.18,-149 -332.18,-332.13l0 -2268.39c0,-183.12 149.01,-332.04 332.18,-332.04l1468.67 0c183.17,0 332.17,148.92 332.17,332.04l0 2268.39c0,183.13 -149,332.13 -332.17,332.13l-1468.67 0z"/>
   <path class="fil2" d="M2767.36 506.11l-1468.67 0c-239.73,0 -434.75,194.99 -434.75,434.66l0 2268.39c0,239.68 195.02,434.71 434.75,434.71l1468.67 0c239.72,0 434.76,-195.03 434.76,-434.71l0 -2268.39c0,-239.67 -195.04,-434.66 -434.76,-434.66l0 0zm0 205.16c126.84,0 229.59,102.85 229.59,229.5l0 2268.39c0,126.67 -102.75,229.55 -229.59,229.55l-1468.67 0c-126.85,0 -229.6,-102.88 -229.6,-229.55l0 -2268.39c0,-126.65 102.75,-229.5 229.6,-229.5l1468.67 0z"/>
   <line class="fil3" x1="1579.08" y1="1032.11" x2="2508.27" y2= "1032.11" />
   <line class="fil3 str0" x1="1579.08" y1="1032.11" x2="2508.27" y2= "1032.11" />
   <line class="fil3 str1" x1="1408.89" y1="2858.03" x2="1408.89" y2= "1490.96" />
   <path class="fil4" d="M2220.38 4403.58c-183.16,0 -332.18,-149 -332.18,-332.13l0 -2268.38c0,-183.08 149.02,-332 332.18,-332l1046.45 0c27.21,0 53.29,10.78 72.52,30.01l651.82 651.82c19.26,19.27 30.06,45.36 30.06,72.57l0 1845.98c0,183.13 -149,332.13 -332.18,332.13l-1468.67 0z"/>
   <path class="fil2" d="M3266.83 1368.44l-1046.45 0c-239.71,0 -434.75,195 -434.75,434.63l0 2268.38c0,239.68 195.04,434.71 434.75,434.71l1468.67 0c239.73,0 434.76,-195.03 434.76,-434.71l0 -1845.98c0,-54.45 -21.63,-106.59 -60.08,-145.09l-651.83 -651.86c-38.48,-38.45 -90.67,-60.08 -145.07,-60.08l0 0zm0 205.16l651.82 651.87 0 1845.98c0,126.67 -102.67,229.55 -229.6,229.55l-1468.67 0c-126.84,0 -229.6,-102.88 -229.6,-229.55l0 -2268.38c0,-126.66 102.76,-229.47 229.6,-229.47l1046.45 0z"/>
   <path class="fil2" d="M3345.54 1447.2c-26.44,0 -53.11,5.1 -78.49,15.61 -76.67,31.76 -126.62,106.59 -126.62,189.55l0 252.43c0,238.62 194.14,432.72 432.75,432.72l252.35 0c82.99,0 157.79,-50.01 189.54,-126.67 31.76,-76.66 14.23,-164.88 -44.46,-223.58l-479.93 -479.98c-39.26,-39.24 -91.75,-60.08 -145.14,-60.08l0 0zm0.05 205.16l479.94 479.98 -252.35 0c-125.68,0 -227.59,-101.99 -227.59,-227.55l0 -252.43z"/>
   <line class="fil3" x1="2430.76" y1="2568.94" x2="3478.86" y2= "2568.94" />
   <line class="fil3 str0" x1="2430.76" y1="2568.94" x2="3478.86" y2= "2568.94" />
   <line class="fil3" x1="2430.76" y1="2955.52" x2="3478.86" y2= "2955.52" />
   <line class="fil3 str0" x1="2430.76" y1="2955.52" x2="3478.86" y2= "2955.52" />
   <line class="fil3" x1="2430.76" y1="3342.02" x2="3478.86" y2= "3342.02" />
   <line class="fil3 str0" x1="2430.76" y1="3342.02" x2="3478.86" y2= "3342.02" />
   <line class="fil3" x1="2430.76" y1="3728.61" x2="3478.86" y2= "3728.61" />
   <line class="fil3 str0" x1="2430.76" y1="3728.61" x2="3478.86" y2= "3728.61" />
   <line class="fil3 str1" x1="2433.97" y1="1840.8" x2="2847.58" y2= "1840.8" />
  </g>
 </g>
</svg>
