<?xml version="1.0" encoding="UTF-8"?>
<!DOCTYPE svg PUBLIC "-//W3C//DTD SVG 1.1//EN" "http://www.w3.org/Graphics/SVG/1.1/DTD/svg11.dtd">
<!-- Creator: CorelDRAW 2021 (64-Bit) -->
<svg xmlns="http://www.w3.org/2000/svg" xml:space="preserve" width="210mm" height="297mm" version="1.1" style="shape-rendering:geometricPrecision; text-rendering:geometricPrecision; image-rendering:optimizeQuality; fill-rule:evenodd; clip-rule:evenodd"
viewBox="0 0 21000 29700"
 xmlns:xlink="http://www.w3.org/1999/xlink"
 xmlns:xodm="http://www.corel.com/coreldraw/odm/2003">
 <defs>
  <style type="text/css">
   <![CDATA[
    .str0 {stroke:#700101;stroke-width:719.84;stroke-linejoin:round;stroke-miterlimit:10}
    .fil3 {fill:none;fill-rule:nonzero}
    .fil0 {fill:#700101;fill-rule:nonzero}
    .fil1 {fill:#FDAB08;fill-rule:nonzero}
    .fil2 {fill:white;fill-rule:nonzero}
   ]]>
  </style>
 </defs>
 <g id="Layer_x0020_1">
  <metadata id="CorelCorpID_0Corel-Layer"/>
  <path class="fil0" d="M10492.56 9206.01c-1141.21,0 -2214.23,444.47 -3021.16,1251.27 -1277.05,1277.72 -1612.93,3231.05 -835.9,4860.57 41.66,87.17 167.65,350.87 2928.22,4653.39 210.33,328.02 568.43,523.8 957.81,523.8 391.11,0 748.73,-197.51 956.7,-528.06 2700.68,-4295.73 2818.2,-4538.93 2862.48,-4630.5 788.96,-1634.53 456.54,-3595.23 -827.12,-4879.02 -806.93,-806.98 -1879.77,-1251.45 -3021.03,-1251.45l0 0zm0 720.11c909.14,0 1818.29,346.79 2511.91,1040.28 1097.12,1097.24 1326.56,2733.99 687.99,4056.74 -133.18,275.76 -2029.54,3297.59 -2823.47,4560.4 -80.43,127.9 -213.66,191.43 -347.46,191.43 -134.6,0 -269.64,-64.5 -351.8,-192.49 -811.95,-1265.34 -2750.59,-4294.36 -2884.39,-4574.51 -629.48,-1319.95 -397.37,-2948.41 695.04,-4041.57 693.76,-693.49 1602.9,-1040.28 2512.18,-1040.28z"/>
  <path class="fil1" d="M10516.52 19774.66c-132.87,-1.6 -265.56,-65.75 -346.79,-192.18 -811.95,-1265.34 -2750.59,-4294.36 -2884.39,-4574.51 -629.48,-1319.95 -397.37,-2948.41 695.04,-4041.57 699.71,-699.88 1618.88,-1045.47 2536.14,-1039.22l0 9847.48z"/>
  <path class="fil2" d="M12081.89 13115.99c0,936.52 -758.58,1695.58 -1695.27,1695.58 -936.51,0 -1695.27,-759.06 -1695.27,-1695.58 0,-936.51 758.76,-1695.44 1695.27,-1695.44 936.69,0 1695.27,758.93 1695.27,1695.44z"/>
  <path class="fil3 str0" d="M12081.89 13115.99c0,936.52 -758.58,1695.58 -1695.27,1695.58 -936.51,0 -1695.27,-759.06 -1695.27,-1695.58 0,-936.51 758.76,-1695.44 1695.27,-1695.44 936.69,0 1695.27,758.93 1695.27,1695.44z"/>
 </g>
</svg>
