<?xml version="1.0" encoding="UTF-8"?>
<!DOCTYPE svg PUBLIC "-//W3C//DTD SVG 1.1//EN" "http://www.w3.org/Graphics/SVG/1.1/DTD/svg11.dtd">
<!-- Creator: CorelDRAW 2021 (64-Bit) -->
<svg xmlns="http://www.w3.org/2000/svg" xml:space="preserve" width="210mm" height="297mm" version="1.1" style="shape-rendering:geometricPrecision; text-rendering:geometricPrecision; image-rendering:optimizeQuality; fill-rule:evenodd; clip-rule:evenodd"
viewBox="0 0 21000 29700"
 xmlns:xlink="http://www.w3.org/1999/xlink"
 xmlns:xodm="http://www.corel.com/coreldraw/odm/2003">
 <defs>
  <style type="text/css">
   <![CDATA[
    .str1 {stroke:#700101;stroke-width:528.72;stroke-linejoin:round;stroke-miterlimit:10}
    .str0 {stroke:#700101;stroke-width:528.72;stroke-linecap:round;stroke-linejoin:round;stroke-miterlimit:10}
    .str2 {stroke:white;stroke-width:528.72;stroke-linecap:round;stroke-linejoin:round;stroke-miterlimit:10}
    .fil1 {fill:none;fill-rule:nonzero}
    .fil0 {fill:#700101;fill-rule:nonzero}
    .fil2 {fill:#FDAB08;fill-rule:nonzero}
   ]]>
  </style>
 </defs>
 <g id="Layer_x0020_1">
  <metadata id="CorelCorpID_0Corel-Layer"/>
  <g id="_2209456672368">
   <path class="fil0" d="M10062.98 12980.99l-549.94 22.06c-1093.54,43.92 -1950.06,935.25 -1950.06,2029.02 0,1093.77 856.52,1984.99 1949.93,2029.01l550.07 22.19 0 -4102.28zm-528.69 550.52l0 3001.24c-802.47,-32.29 -1442.53,-690.86 -1442.53,-1500.68 0,-809.6 640.06,-1468.4 1442.53,-1500.56z"/>
   <path class="fil0" d="M11393.54 12980.99l0 4102.28 550.03 -22.19c1093.31,-44.02 1949.93,-935.24 1949.93,-2029.01 0,-1093.77 -856.62,-1985.1 -1950.06,-2029.02l-549.9 -22.06 0 0zm528.65 550.52c802.47,32.16 1442.53,690.96 1442.53,1500.56 0,809.82 -640.06,1468.39 -1442.53,1500.68l0 -3001.24z"/>
   <line class="fil1 str0" x1="9802.36" y1="12991.09" x2="9802.36" y2= "17073.04" />
   <line class="fil1 str0" x1="11614.56" y1="12991.09" x2="11614.56" y2= "17073.04" />
   <path class="fil1 str1" d="M7783.25 15001.37l-610.41 0c-87.36,-182.86 -159.43,-371.17 -216.91,-562.9 -401.41,-1342.65 -72.31,-2857.25 987.44,-3917.43 1537.94,-1537.84 4031.81,-1537.7 5569.51,0.23 1064.44,1064.21 1392.18,2586.51 983.41,3932.71 -58.62,192.32 -132.07,381.08 -220.47,564.3l-608.2 0"/>
   <path class="fil2" d="M8093.16 15005.51c-0.26,8.96 -1.4,17.59 -1.4,26.56 0,809.82 640.06,1468.39 1442.53,1500.68l0 -1527.24 -1441.13 0z"/>
   <path class="fil2" d="M11922.19 16532.75c802.47,-32.29 1442.53,-690.86 1442.53,-1500.68 0,-8.97 -1.14,-17.6 -1.37,-26.56l-1441.16 0 0 1527.24z"/>
   <path class="fil1 str2" d="M12568.8 14470.08c297.7,297.27 300.83,775.22 8.28,1067.77"/>
   <path class="fil1 str2" d="M8914.14 14470.08c-297.73,297.27 -300.83,775.22 -8.28,1067.77"/>
  </g>
 </g>
</svg>
