<?xml version="1.0" encoding="UTF-8"?>
<!DOCTYPE svg PUBLIC "-//W3C//DTD SVG 1.1//EN" "http://www.w3.org/Graphics/SVG/1.1/DTD/svg11.dtd">
<!-- Creator: CorelDRAW 2021 (64-Bit) -->
<svg xmlns="http://www.w3.org/2000/svg" xml:space="preserve" width="210mm" height="297mm" version="1.1" style="shape-rendering:geometricPrecision; text-rendering:geometricPrecision; image-rendering:optimizeQuality; fill-rule:evenodd; clip-rule:evenodd"
viewBox="0 0 21000 29700"
 xmlns:xlink="http://www.w3.org/1999/xlink"
 xmlns:xodm="http://www.corel.com/coreldraw/odm/2003">
 <defs>
  <style type="text/css">
   <![CDATA[
    .str0 {stroke:#700101;stroke-width:280.51;stroke-linejoin:round;stroke-miterlimit:10}
    .str1 {stroke:white;stroke-width:280.51;stroke-linecap:round;stroke-linejoin:round;stroke-miterlimit:10}
    .fil0 {fill:none}
    .fil4 {fill:none;fill-rule:nonzero}
    .fil2 {fill:#700101;fill-rule:nonzero}
    .fil5 {fill:#FDAB08;fill-rule:nonzero}
    .fil3 {fill:#FFCB05;fill-rule:nonzero}
    .fil1 {fill:#FFCC00;fill-rule:nonzero}
   ]]>
  </style>
 </defs>
 <g id="Layer_x0020_1">
  <metadata id="CorelCorpID_0Corel-Layer"/>
  <rect class="fil0" x="4904.01" y="20334.24" width="6697.89" height="6697.89"/>
  <path class="fil1" d="M6954.33 25701.49c-320.6,0 -581.46,-260.84 -581.46,-581.58l0 -1803.54c0,-43.18 19.88,-83.93 53.85,-110.52l1761.77 -1377.71c25.38,-19.89 55.87,-29.77 86.42,-29.77 30.56,0 61.16,9.94 86.61,29.89l1717.79 1348.32c33.85,26.59 53.61,67.27 53.61,110.33l0 1833c0,320.74 -260.72,581.58 -581.34,581.58l-2597.25 0z"/>
  <path class="fil2" d="M8274.91 21658.09c-61.04,0 -122.04,19.88 -172.85,59.52l-1761.73 1377.74c-68.01,53.17 -107.75,134.72 -107.75,221.02l0 1803.54c0,398 323.8,721.86 721.75,721.86l2597.25 0c397.95,0 721.67,-323.86 721.67,-721.86l0 -1833c0,-86.13 -39.58,-167.48 -107.35,-220.66l-1717.78 -1348.27c-50.86,-39.89 -112.05,-59.89 -173.21,-59.89l0 0zm0 280.55l1717.8 1348.27 0 1833c0,243.83 -197.67,441.31 -441.13,441.31l-2597.25 0c-243.59,0 -441.19,-197.48 -441.19,-441.31l0 -1803.54 1761.77 -1377.73z"/>
  <path class="fil3" d="M10683.94 23571.3l-2235.63 -1844.11c-53.92,-53.97 -124.73,-80.49 -195.36,-79.89 -70.74,-0.6 -141.6,25.92 -195.45,79.89l-2235.36 1844.11c-106.72,106.72 -106.6,279.88 0,386.72 106.98,106.73 279.93,106.73 386.91,-0.13l2043.9 -1652.71 2044.08 1652.71c106.62,106.86 279.95,106.86 386.91,0.13 106.37,-106.84 106.49,-280 0,-386.72z"/>
  <path class="fil4" d="M10683.94 23571.3l-2235.63 -1844.11c-53.92,-53.97 -124.73,-80.49 -195.36,-79.89 -70.74,-0.6 -141.6,25.92 -195.45,79.89l-2235.36 1844.11c-106.72,106.72 -106.6,279.88 0,386.72 106.98,106.73 279.93,106.73 386.91,-0.13l2043.9 -1652.71 2044.08 1652.71c106.62,106.86 279.95,106.86 386.91,0.13 106.37,-106.84 106.49,-280 0,-386.72z"/>
  <path class="fil5" d="M6513.14 23506.89c-77.45,0 -140.27,-62.76 -140.27,-140.28l0 -1429.61c0,-150.04 122.09,-272.13 272.13,-272.13l159 0c150.09,0 272.13,122.09 272.13,272.13l0 1429.61c0,77.52 -62.76,140.28 -140.21,140.28l-422.78 0z"/>
  <path class="fil2" d="M6804 21524.59l-159 0c-227.39,0 -412.42,184.98 -412.42,412.41l0 1429.61c0,154.97 125.63,280.55 280.56,280.55l422.78 0c154.9,0 280.55,-125.58 280.55,-280.55l0 -1429.61c0,-227.43 -185.05,-412.41 -412.47,-412.41l0 0zm0 280.55c72.81,0 131.92,59.04 131.92,131.86l0 1429.61 -422.78 0 0 -1429.61c0,-72.82 59.11,-131.86 131.86,-131.86l159 0z"/>
  <path class="fil5" d="M8239.54 21966.39l-1726.4 1349.98 0 1803.54c0,243.83 197.6,441.31 441.19,441.31l1285.21 0 0 -3594.83z"/>
  <path class="fil5" d="M8239.54 21648.46c-66.23,2.63 -131.67,28.23 -182.04,78.73l-2235.36 1844.11c-106.72,106.72 -106.6,279.88 0,386.72 106.98,106.73 279.93,106.73 386.91,-0.13l2030.49 -1641.92 0 -667.51z"/>
  <path class="fil4 str0" d="M10683.94 23571.3l-2235.63 -1844.11c-53.92,-53.97 -124.73,-80.49 -195.36,-79.89 -70.74,-0.6 -141.6,25.92 -195.45,79.89l-2235.36 1844.11c-106.72,106.72 -106.6,279.88 0,386.72 106.98,106.73 279.93,106.73 386.91,-0.13l2043.9 -1652.71 2044.08 1652.71c106.62,106.86 279.95,106.86 386.91,0.13 106.37,-106.84 106.49,-280 0,-386.72z"/>
  <path class="fil1" d="M7839.39 25701.49c-77.45,0 -140.27,-62.75 -140.27,-140.27l0 -1089.2c0,-187.28 152.41,-339.64 339.77,-339.64l428.14 0c187.35,0 339.76,152.36 339.76,339.64l0 1089.2c0,77.52 -62.75,140.27 -140.2,140.27l-827.2 0z"/>
  <path class="fil2" d="M8467.03 23992.11l-428.14 0c-264.69,0 -480.05,215.29 -480.05,479.91l0 1089.2c0,154.97 125.58,280.55 280.55,280.55l827.2 0c154.9,0 280.53,-125.58 280.53,-280.55l0 -1089.2c0,-264.62 -215.41,-479.91 -480.09,-479.91l0 0zm0 280.55c110.19,0 199.56,89.29 199.56,199.36l0 1089.2 -827.2 0 0 -1089.2c0,-110.07 89.34,-199.36 199.5,-199.36l428.14 0z"/>
  <line class="fil4 str1" x1="9454.3" y1="24311.94" x2="9454.3" y2= "25145.41" />
 </g>
</svg>
