<?xml version="1.0" encoding="UTF-8"?>
<!DOCTYPE svg PUBLIC "-//W3C//DTD SVG 1.1//EN" "http://www.w3.org/Graphics/SVG/1.1/DTD/svg11.dtd">
<!-- Creator: CorelDRAW 2021 (64-Bit) -->
<svg xmlns="http://www.w3.org/2000/svg" xml:space="preserve" width="50.0002mm" height="50.0002mm" version="1.1" style="shape-rendering:geometricPrecision; text-rendering:geometricPrecision; image-rendering:optimizeQuality; fill-rule:evenodd; clip-rule:evenodd"
viewBox="0 0 5000.02 5000.02"
 xmlns:xlink="http://www.w3.org/1999/xlink"
 xmlns:xodm="http://www.corel.com/coreldraw/odm/2003">
 <defs>
  <style type="text/css">
   <![CDATA[
    .fil0 {fill:none}
    .fil2 {fill:#990000}
    .fil1 {fill:url(#id0)}
   ]]>
  </style>
  <linearGradient id="id0" gradientUnits="userSpaceOnUse" x1="860.39" y1="2505.93" x2="4127.11" y2="2505.93">
   <stop offset="0" style="stop-opacity:1; stop-color:#FDAB08"/>
   <stop offset="1" style="stop-opacity:1; stop-color:#FFCC00"/>
  </linearGradient>
 </defs>
 <g id="Layer_x0020_1">
  <metadata id="CorelCorpID_0Corel-Layer"/>
  <rect class="fil0" x="-6.12" y="6.12" width="5000.02" height="5000.02"/>
  <rect class="fil0" x="-6.12" y="6.12" width="5000.02" height="5000.02"/>
  <rect class="fil0" x="493.88" y="506.12" width="4000.02" height="4000.02"/>
  <circle class="fil1" cx="2493.89" cy="2506.03" r="1633.5"/>
  <path class="fil2" d="M2486.36 4073.19c-342.1,0 -745.74,-143.48 -996.12,-367.11 -98.37,-87.86 -107.9,-97.13 -195.82,-195.82 -63.45,-71.22 -111.92,-148.98 -160.61,-231.04 -77.92,-131.33 -125.34,-269.97 -164.37,-423.1 -115.67,-453.82 21.14,-1012.1 324.98,-1353.16 114.09,-128.08 163.11,-176.82 306.38,-281.09 425.2,-309.44 1050.54,-367.61 1530.82,-143.81 489.97,228.32 853.93,685.93 913.82,1232.7 22.59,206.3 19.22,327.05 -24.44,532.95 -21.17,99.85 -57.43,209.06 -96.18,295.47 -252.71,563.54 -817.3,934.01 -1438.46,934.01zm-1800.06 -1626.84l0 135.57c0,374.77 210.37,887.6 476.3,1150.53 20.74,20.5 35.9,35.76 56.56,56.42 308.92,308.93 765.83,525.33 1214.48,525.33 315.1,0 574.44,-42.21 826.06,-168.11 352.82,-176.53 592.94,-387.86 798.4,-730.53 29.04,-48.43 49.41,-91.47 75.27,-143.14 126.17,-252.15 168.12,-510.34 168.12,-826.07 0,-177.83 -47.08,-391.95 -104.49,-550.77 -49.95,-138.2 -135.73,-311.51 -224.78,-430.46 -133.74,-178.63 -143.81,-183.52 -312.74,-342.52l-399.78 -255.47c-510.69,-255.53 -1192.07,-214.16 -1674.77,75.27 -48.76,29.24 -87.13,52.89 -133.48,84.92 -197.61,136.57 -403.84,358.71 -521.82,570.27 -27.78,49.82 -49.06,90.94 -75.22,143.21 -83.26,166.4 -168.11,459.52 -168.11,705.55z"/>
  <path class="fil2" d="M1409.33 2461.42c0,122.82 -1.49,193.52 31.6,314.86 7.87,28.9 18.37,68.09 29.7,98.33 46.25,123.47 102.83,222.97 186.11,326.04 11.8,14.61 20.62,20.7 33.07,34.72 33.38,37.56 9.42,24.1 62.8,65.24 17.04,13.14 20.53,18.97 35.13,32.66 146.54,137.35 433.97,257.89 645.9,257.89 241.38,0 305.08,-8.14 529.42,-103.23 31.84,-13.49 52.61,-28.17 83.02,-45.02 303.06,-167.94 532.37,-544.08 532.37,-891.11 0,-245.38 -32.59,-398.35 -146.28,-591.82 -39.52,-67.26 -84.95,-133.42 -138.01,-185.86 -56.41,-55.77 -121.23,-141.19 -197.74,-141.19 -122.78,0 -160.39,152.33 -75.49,218.6 26.84,20.95 44.66,40.55 69.85,65.72 44.79,44.78 92.97,98.16 123.6,155.07 145.16,269.62 162.62,493.88 46.78,779.78 -42.05,103.77 -114.59,202.61 -200.16,274.33 -78.67,65.93 -103.76,95.87 -220.73,148.32 -276.97,124.2 -582.27,90.3 -827.01,-76.63 -222.07,-151.47 -362.91,-420.91 -362.91,-691.51 0,-243.92 124.96,-507.25 312.13,-651.92 93.54,-72.31 54.38,-221.76 -86.18,-221.76 -80.33,0 -276.09,240.79 -321.39,326.34 -82.11,155.01 -145.58,315.52 -145.58,502.15z"/>
  <path class="fil2" d="M2373.38 1527.49l0 873.67c0,54.62 52.25,105.45 135.57,105.45 47.04,0 105.45,-58.42 105.45,-105.45l0 -873.67c0,-54.62 -52.25,-105.44 -135.57,-105.44 -47.03,0 -105.45,58.41 -105.45,105.44z"/>
 </g>
</svg>
