<?xml version="1.0" encoding="UTF-8"?>
<!DOCTYPE svg PUBLIC "-//W3C//DTD SVG 1.1//EN" "http://www.w3.org/Graphics/SVG/1.1/DTD/svg11.dtd">
<!-- Creator: CorelDRAW 2021 (64-Bit) -->
<svg xmlns="http://www.w3.org/2000/svg" xml:space="preserve" width="210mm" height="297mm" version="1.1" style="shape-rendering:geometricPrecision; text-rendering:geometricPrecision; image-rendering:optimizeQuality; fill-rule:evenodd; clip-rule:evenodd"
viewBox="0 0 21000 29700"
 xmlns:xlink="http://www.w3.org/1999/xlink"
 xmlns:xodm="http://www.corel.com/coreldraw/odm/2003">
 <defs>
  <style type="text/css">
   <![CDATA[
    .str0 {stroke:white;stroke-width:265.16;stroke-linecap:round;stroke-linejoin:round;stroke-miterlimit:10}
    .fil4 {fill:none}
    .fil3 {fill:none;fill-rule:nonzero}
    .fil1 {fill:#700101;fill-rule:nonzero}
    .fil2 {fill:#FDAB08;fill-rule:nonzero}
    .fil0 {fill:#FFCC00;fill-rule:nonzero}
   ]]>
  </style>
 </defs>
 <g id="Layer_x0020_1">
  <metadata id="CorelCorpID_0Corel-Layer"/>
  <g id="_2210398744336">
   <path class="fil0" d="M23121.33 25930.65c-205.28,0 -375.65,-152.87 -403.09,-350.86 -27.66,198.03 -198.14,350.86 -403.66,350.86 -224.67,0 -407.37,-182.75 -407.37,-407.42l1.27 -1429.9 -83.99 89.7c-60.37,66.25 -141.31,104.23 -232.91,108.61 -5.88,0.25 -11.7,0.41 -17.47,0.41 -84.81,0 -163.04,-30.44 -226.22,-87.97 -67.51,-61.35 -105.57,-142.4 -109.95,-234.29 -4.15,-92.01 26.12,-176.18 87.65,-243.64l564.04 -612.19c116.86,-126.83 282.78,-199.47 455.1,-199.47l739.65 0c172.49,0 338.41,72.64 455.27,199.41l563.42 611.67c62.04,68.04 92.3,152.21 88.15,243.92 -4.44,92.07 -42.37,173.08 -109.88,234.59 -63.36,57.59 -141.59,87.97 -226.29,87.97 0,0 -11.63,-0.16 -17.47,-0.41 -91.89,-4.38 -172.94,-42.49 -234.27,-110.22l-80.44 -85.78 9.74 1427.02c-6.39,230.83 -187.02,407.99 -411.28,407.99z"/>
   <path class="fil1" d="M23084.38 22781.89l-739.65 0c-209.27,0 -410.7,88.2 -552.58,242.14l-563.6 611.66c-86.65,95.13 -128.84,212.29 -123.09,339.92 6.18,128.21 59.16,241.04 153.35,326.7 87.81,79.96 196.89,122.34 315.3,122.34 7.85,0 15.79,-0.18 23.75,-0.57 63.42,-3.01 123.2,-17.65 177.8,-43.13l-0.98 1142.06c0,297.99 242.18,540.24 539.9,540.24 160.27,0 304.5,-70.15 403.55,-181.43 98.93,111.28 243.05,181.43 403.2,181.43 296.51,0 535.35,-233.77 543.76,-532.22 0.12,-3.06 0.18,-6.18 0.12,-9.28l-7.78 -1138.95c53.5,24.38 111.91,38.34 173.88,41.28 7.96,0.39 15.91,0.57 23.74,0.57 118.19,0 227.27,-42.31 315.35,-122.34 94.26,-85.84 147.19,-198.67 153.24,-326.25 5.82,-128.08 -36.38,-245.24 -122.04,-339.27l-564.47 -612.64c-141.93,-154.06 -343.42,-242.26 -552.75,-242.26l0 0zm0 265.14c135.59,0 265.89,57.13 357.78,156.75l563.42 611.61c38.17,41.92 55.76,91.32 53.16,148.11 -2.71,56.96 -24.91,104.47 -66.64,142.51 -39.16,35.58 -84.87,53.44 -137.05,53.44 -3.67,0 -7.37,-0.11 -11.18,-0.28 -56.96,-2.71 -104.34,-24.85 -142.28,-66.77l-313.62 -334.71 12.06 1765.84c-4.27,151.68 -127.01,274.53 -278.7,274.53 -151.55,0 -274.41,-122.85 -274.41,-274.53l0 -757.65 -257.4 0 0 757.35c0,151.74 -123.15,274.83 -274.94,274.83 -151.8,0 -274.77,-123.09 -274.77,-274.83l1.62 -1765.77 -313.74 334.94c-38.17,41.92 -85.55,64.06 -142.4,66.77 -3.81,0.17 -7.48,0.28 -11.18,0.28 -52.18,0 -97.89,-17.86 -136.93,-53.44 -41.85,-38.04 -64.04,-85.55 -66.75,-142.51 -2.6,-56.79 14.98,-106.19 53.16,-148.11l563.53 -611.61c91.89,-99.62 222.07,-156.75 357.61,-156.75l739.65 0z"/>
   <path class="fil2" d="M21987.12 23203.78l-563.53 611.61c-38.18,41.92 -55.76,91.32 -53.16,148.11 2.71,56.96 24.9,104.47 66.75,142.51 41.81,38.11 91.21,55.86 148.11,53.16 56.85,-2.71 104.23,-24.85 142.4,-66.77l313.74 -334.94 -1.62 1765.77c0,151.74 122.97,274.83 274.77,274.83 151.79,0 274.94,-123.09 274.94,-274.83l0 -757.35 126.6 0 0 -1718.85 -371.39 0c-135.54,0 -265.72,57.13 -357.61,156.75z"/>
   <path class="fil0" d="M22714.62 22534.92c-151.51,0 -282.33,-54.08 -388.86,-160.79 -106.53,-106.48 -160.67,-237.4 -160.67,-388.86 0,-151.44 54.14,-282.19 160.85,-388.85 106.47,-106.53 237.22,-160.68 388.68,-160.68 151.27,0 282.07,54.15 388.79,160.79 106.66,106.72 160.78,237.47 160.78,388.74 0,151.35 -54.07,282.21 -160.72,388.93 -106.66,106.64 -237.53,160.72 -388.85,160.72z"/>
   <path class="fil1" d="M22714.62 21303.15c-185.29,0 -352.14,69.07 -482.66,199.76 -130.41,130.23 -199.47,297.08 -199.47,482.36 0,185.29 69.06,352.25 199.65,482.78 130.29,130.41 297.19,199.4 482.48,199.4 185.17,0 352,-68.95 482.52,-199.47 130.64,-130.68 199.59,-297.58 199.59,-482.71 0,-185.05 -69,-351.89 -199.59,-482.52 -130.57,-130.53 -297.47,-199.6 -482.52,-199.6l0 0zm0 265.19c115.29,0 213.7,40.65 295.05,121.95 81.28,81.28 121.93,179.58 121.93,294.98 0,115.48 -40.65,213.84 -121.93,295.17 -81.35,81.35 -179.76,121.88 -295.05,121.88 -115.54,0 -213.84,-40.53 -295.01,-121.88 -81.4,-81.33 -121.93,-179.69 -121.93,-295.17 0,-115.4 40.53,-213.7 121.93,-294.98 81.17,-81.3 179.47,-121.95 295.01,-121.95z"/>
   <path class="fil2" d="M22714.62 21568.34c-115.54,0 -213.84,40.65 -295.01,121.95 -81.4,81.28 -121.93,179.58 -121.93,294.98 0,115.48 40.53,213.84 121.93,295.17 81.17,81.35 179.47,121.88 295.01,121.88l0 -833.98z"/>
   <line class="fil3 str0" x1="22924.51" y1="23862.27" x2="22924.51" y2= "23354.02" />
   <line class="fil3 str0" x1="22820.46" y1="21878.45" x2="22731.1" y2= "21878.45" />
  </g>
  <rect class="fil4" x="19365.6" y="20334.24" width="6697.89" height="6697.89"/>
 </g>
</svg>
