<?xml version="1.0" encoding="UTF-8"?>
<!DOCTYPE svg PUBLIC "-//W3C//DTD SVG 1.1//EN" "http://www.w3.org/Graphics/SVG/1.1/DTD/svg11.dtd">
<!-- Creator: CorelDRAW 2021 (64-Bit) -->
<svg xmlns="http://www.w3.org/2000/svg" xml:space="preserve" width="210mm" height="297mm" version="1.1" style="shape-rendering:geometricPrecision; text-rendering:geometricPrecision; image-rendering:optimizeQuality; fill-rule:evenodd; clip-rule:evenodd"
viewBox="0 0 21000 29700"
 xmlns:xlink="http://www.w3.org/1999/xlink"
 xmlns:xodm="http://www.corel.com/coreldraw/odm/2003">
 <defs>
  <style type="text/css">
   <![CDATA[
    .str0 {stroke:#700101;stroke-width:269.7;stroke-linecap:round;stroke-linejoin:round;stroke-miterlimit:10}
    .str1 {stroke:white;stroke-width:269.7;stroke-linecap:round;stroke-linejoin:round;stroke-miterlimit:10}
    .fil4 {fill:none}
    .fil3 {fill:none;fill-rule:nonzero}
    .fil1 {fill:#700101;fill-rule:nonzero}
    .fil2 {fill:#FDAB08;fill-rule:nonzero}
    .fil0 {fill:#FFCC00;fill-rule:nonzero}
   ]]>
  </style>
 </defs>
 <g id="Layer_x0020_1">
  <metadata id="CorelCorpID_0Corel-Layer"/>
  <g id="_2210396132336">
   <path class="fil0" d="M65386 25345.58c-329.53,0 -597.62,-268.15 -597.62,-597.74l0 -2129.27c0,-329.59 268.09,-597.74 597.62,-597.74l3095.36 0c329.54,0 597.68,268.15 597.68,597.74l0 2129.27c0,329.59 -268.14,597.74 -597.68,597.74l-3095.36 0z"/>
   <path class="fil1" d="M68481.36 21885.96l-3095.36 0c-403.89,0 -732.55,328.67 -732.55,732.61l0 2129.27c0,404 328.66,732.66 732.55,732.66l3095.36 0c403.89,0 732.54,-328.66 732.54,-732.66l0 -2129.27c0,-403.94 -328.65,-732.61 -732.54,-732.61l0 0zm0 269.74c255.54,0 462.81,207.16 462.81,462.87l0 2129.27c0,255.71 -207.27,462.88 -462.81,462.88l-3095.36 0c-255.48,0 -462.77,-207.17 -462.77,-462.88l0 -2129.27c0,-255.71 207.29,-462.87 462.77,-462.87l3095.36 0z"/>
   <path class="fil2" d="M64923.23 23696.01l0 1051.83c0,255.71 207.29,462.88 462.77,462.88l3095.36 0c255.54,0 462.81,-207.17 462.81,-462.88l0 -1051.83 -4020.94 0z"/>
   <path class="fil3 str0" d="M68810.07 22249.69l-1531.53 1537.27c-197.01,197.02 -516.75,197.08 -713.72,0l-1541.96 -1541.96"/>
   <line class="fil3 str0" x1="67420.21" y1="23747.02" x2="68858.97" y2= "25181.51" />
   <line class="fil3 str0" x1="65057.33" y1="25152.19" x2="66465.84" y2= "23752.01" />
   <line class="fil3 str1" x1="67754.61" y1="22537.95" x2="67124.28" y2= "22537.95" />
  </g>
  <rect class="fil4" x="63584.72" y="20334.24" width="6697.89" height="6697.89"/>
 </g>
</svg>
