<?xml version="1.0" encoding="UTF-8"?>
<!DOCTYPE svg PUBLIC "-//W3C//DTD SVG 1.1//EN" "http://www.w3.org/Graphics/SVG/1.1/DTD/svg11.dtd">
<!-- Creator: CorelDRAW 2021 (64-Bit) -->
<svg xmlns="http://www.w3.org/2000/svg" xml:space="preserve" width="210mm" height="297mm" version="1.1" style="shape-rendering:geometricPrecision; text-rendering:geometricPrecision; image-rendering:optimizeQuality; fill-rule:evenodd; clip-rule:evenodd"
viewBox="0 0 21000 29700"
 xmlns:xlink="http://www.w3.org/1999/xlink"
 xmlns:xodm="http://www.corel.com/coreldraw/odm/2003">
 <defs>
  <style type="text/css">
   <![CDATA[
    .str0 {stroke:#700101;stroke-width:281.77;stroke-linecap:round;stroke-linejoin:round;stroke-miterlimit:10}
    .str1 {stroke:white;stroke-width:281.77;stroke-linecap:round;stroke-linejoin:round;stroke-miterlimit:10}
    .fil5 {fill:none}
    .fil4 {fill:none;fill-rule:nonzero}
    .fil1 {fill:#700101;fill-rule:nonzero}
    .fil2 {fill:#FDAB08;fill-rule:nonzero}
    .fil0 {fill:#FFCC00;fill-rule:nonzero}
    .fil3 {fill:white;fill-rule:nonzero}
   ]]>
  </style>
 </defs>
 <g id="Layer_x0020_1">
  <metadata id="CorelCorpID_0Corel-Layer"/>
  <g id="_2210397200192">
   <path class="fil0" d="M53915.41 24977.7c77.79,0 140.9,-63.08 140.9,-140.9l0 -914.63c0,-225.34 -95.74,-441.21 -262.69,-592.29l-492.63 -446.47c-165.6,-149.85 -379.64,-232.37 -602.81,-232.37l-1217.1 0c-77.8,0 -140.91,63.09 -140.91,140.91l0 2044.85c0,77.82 63.11,140.9 140.91,140.9l2434.33 0z"/>
   <path class="fil1" d="M51481.08 22510.14l1217.1 0c258.21,0 505.84,95.44 697.28,268.75l492.86 446.61c196.24,177.65 308.89,431.64 308.89,696.67l0 914.63c0,155.61 -126.17,281.81 -281.8,281.81l-2434.33 0c-155.67,0 -281.8,-126.2 -281.8,-281.81l0 -2044.85c0,-155.67 126.13,-281.81 281.8,-281.81l0 0zm0 281.81l0 2044.85 2434.33 0 0 -914.63c0,-185.57 -78.86,-363.41 -216.35,-487.84l-492.71 -446.53c-138.89,-125.78 -320.66,-195.85 -508.17,-195.85l-1217.1 0z"/>
   <path class="fil2" d="M51481.08 24836.8l2434.33 0 0 -914.63c0,-126.94 -37.71,-249.96 -105.07,-355.02l-2329.26 0 0 1269.65z"/>
   <path class="fil3" d="M52337.9 23669.71l891.67 0c60.4,0 86.98,-75.98 39.94,-113.71l-304.85 -243.81c-91.89,-73.46 -206.64,-113.78 -324.38,-113.78l-265.26 0 -37.12 471.3z"/>
   <path class="fil4 str0" d="M52337.9 23669.71l891.67 0c60.4,0 86.98,-75.98 39.94,-113.71l-304.85 -243.81c-91.89,-73.46 -206.64,-113.78 -324.38,-113.78l-265.26 0"/>
   <line class="fil4" x1="53943.16" y1="24981.19" x2="54312.28" y2= "24981.19" />
   <line class="fil4 str0" x1="53943.16" y1="24981.19" x2="54312.28" y2= "24981.19" />
   <path class="fil2" d="M53155 25433.43c288.98,0 524.04,-235.06 524.04,-524.02 0,-288.86 -235.06,-523.93 -524.04,-523.93 -288.84,0 -523.9,235.07 -523.9,523.93 0,288.96 235.06,524.02 523.9,524.02z"/>
   <path class="fil1" d="M53155 24244.58c366.67,0 664.95,298.24 664.95,664.83 0,366.64 -298.28,664.93 -664.95,664.93 -366.59,0 -664.81,-298.29 -664.81,-664.93 0,-366.59 298.22,-664.83 664.81,-664.83l0 0zm0 281.81c-211.41,0 -383,171.47 -383,383.02 0,211.65 171.59,383.12 383,383.12 211.55,0 383.14,-171.47 383.14,-383.12 0,-211.55 -171.59,-383.02 -383.14,-383.02z"/>
   <path class="fil0" d="M51342.69 24989.22c646.43,0 815.77,-39.07 891.06,-73.08 50.42,-22.8 82.82,-73.09 82.82,-128.4l0 -2295.19c0,-308.57 -250.93,-559.56 -559.31,-559.56l-2110.67 0c-308.52,0 -559.45,250.99 -559.45,559.56l0 1925.58c0,308.52 250.93,559.57 559.45,559.57l1043.48 0c-2.08,0 313.1,11.52 652.57,11.52 0.05,0 0,0 0.05,0z"/>
   <path class="fil1" d="M49646.59 21792.09l2110.67 0c386.12,0 700.21,314.21 700.21,700.46l0 2295.19c0,110.69 -64.8,211.17 -165.72,256.74 -98.37,44.49 -281.37,85.64 -949.06,85.64 -321.93,0 -613.67,-9.98 -657.78,-11.51l-1038.32 0c-386.2,0 -700.36,-314.27 -700.36,-700.48l0 -1925.58c0,-386.25 314.16,-700.46 700.36,-700.46l0 0zm0 281.8c-230.96,0 -418.55,187.4 -418.55,418.66l0 1925.58c0,231.16 187.59,418.67 418.55,418.67l1043.48 0c0,0 311.82,11.53 652.62,11.53 347.66,0 725.53,-12.02 832.98,-60.59l0 -2295.19c0,-231.26 -187.64,-418.66 -418.41,-418.66l-2110.67 0z"/>
   <path class="fil2" d="M49228.04 23567.15l0 850.98c0,231.16 187.59,418.67 418.55,418.67l1043.48 0c0,0 1272.83,47.11 1485.6,-49.06l0 -1220.59 -2947.63 0z"/>
   <path class="fil4 str1" d="M49646.71 23189.53l0 -471.91c0,-128.04 103.72,-231.62 231.38,-231.62l836.73 0"/>
   <path class="fil2" d="M50610.61 25433.43c288.86,0 523.92,-235.06 523.92,-524.02 0,-288.86 -235.06,-523.93 -523.92,-523.93 -288.97,0 -524.05,235.07 -524.05,523.93 0,288.96 235.08,524.02 524.05,524.02z"/>
   <path class="fil1" d="M50610.61 24244.58c366.58,0 664.82,298.24 664.82,664.83 0,366.64 -298.24,664.93 -664.82,664.93 -366.66,0 -664.93,-298.29 -664.93,-664.93 0,-366.59 298.27,-664.83 664.93,-664.83l0 0zm0 281.81c-211.66,0 -383.14,171.47 -383.14,383.02 0,211.65 171.48,383.12 383.14,383.12 211.53,0 383.01,-171.47 383.01,-383.12 0,-211.55 -171.48,-383.02 -383.01,-383.02z"/>
  </g>
  <rect class="fil5" x="48280.31" y="20334.24" width="6697.89" height="6697.89"/>
 </g>
</svg>
