<?xml version="1.0" encoding="UTF-8"?>
<!DOCTYPE svg PUBLIC "-//W3C//DTD SVG 1.1//EN" "http://www.w3.org/Graphics/SVG/1.1/DTD/svg11.dtd">
<!-- Creator: CorelDRAW 2021 (64-Bit) -->
<svg xmlns="http://www.w3.org/2000/svg" xml:space="preserve" width="79.4828mm" height="79.4828mm" version="1.1" style="shape-rendering:geometricPrecision; text-rendering:geometricPrecision; image-rendering:optimizeQuality; fill-rule:evenodd; clip-rule:evenodd"
viewBox="0 0 7948.28 7948.28"
 xmlns:xlink="http://www.w3.org/1999/xlink"
 xmlns:xodm="http://www.corel.com/coreldraw/odm/2003">
 <defs>
  <style type="text/css">
   <![CDATA[
    .fil0 {fill:none}
    .fil1 {fill:#FDAB08}
    .fil2 {fill:#FFCC00}
   ]]>
  </style>
 </defs>
 <g id="Layer_x0020_1">
  <metadata id="CorelCorpID_0Corel-Layer"/>
  <path class="fil0" d="M832.69 343.07l6272.52 0c276.1,0 500,223.9 500,500l0 6272.52c0,276.09 -223.9,499.99 -500,499.99l-6272.52 0.01c-276.08,-0.01 -499.98,-223.91 -499.98,-500.01l-0.02 -6272.51c0.02,-276.1 223.92,-500 500.02,-500z"/>
  <rect class="fil0" x="-5.19" y="5.19" width="7948.28" height="7948.28"/>
  <g id="_2630452693680">
   <path class="fil1" d="M3968.95 5297.24l3.34 0 572.63 0c-8.19,30.65 -47.06,72.55 -66.93,99.03l-216.18 291.46c-48.94,65.31 -95.13,130.14 -145.02,196.65l-145.48 190.73 -2.36 3.1 0 400.26 1.86 0 1735.82 0c200.3,0 410.01,-201.9 410.01,-400.25l0 -87.86c0,-96.4 -171.07,-495.31 -248.37,-610.71 -285.2,-425.71 -635.18,-375.28 -1069.53,-375.28l139.15 -134.19c40.61,-40.14 98.19,-109.09 124.43,-158.68 291.25,0 472.22,-57.5 656.4,-280.77 85.89,-104.12 153.87,-272.27 153.87,-422.11l0 -693.12c0,-224.52 -86.57,-545.7 -182.25,-735.41 -73.92,-146.54 -154.24,-295.33 -264.44,-418.92 -21.34,-23.94 -35.92,-33.24 -56.83,-60.31 -126.73,-164.08 -402.62,-346.49 -592.99,-441.81 -221.03,-110.67 -472.31,-169.66 -727.39,-178.85l-71.6 0 -8.14 0 0 305.82 7.76 -0.03 165.42 -0.63c398.93,51.38 637.27,184.61 927.26,429.69l177.1 203.63c99.11,131.58 148.85,225.17 212,373.74 47.76,112.38 108.71,350.63 111.46,474.27 -35.49,-2.96 -30.56,-8.51 -62.61,-15.48 -25.59,-5.57 -46.52,-4.46 -73.82,-4.29 -52.15,0.33 -104.28,0.24 -156.43,0.24 -25.18,-108.06 -13.2,-105.59 -55.05,-247.58 -41.3,-140.09 -118.82,-287.45 -204.34,-400.92 -23.69,-31.44 -38.29,-54.49 -65.02,-81.42 -32.9,-33.14 -44.51,-46.19 -74.2,-81.99 -17.92,-21.63 -14.98,-15.31 -36.44,-31.89 -172.81,-133.47 -305.37,-237.92 -543.04,-296.52 -110.5,-27.25 -216.58,-41.52 -322.64,-42.32l-7.41 -0.03 0 1485.32c1.81,1.21 3.67,2.53 5.54,3.93 79.77,59.19 224.54,279.16 550.9,279.16l468.59 0c0,127.13 -1.6,227.52 -25.1,345.86 -16.58,83.46 -49.23,177.4 -82.28,239.87 -67.67,0 -630.56,-6.3 -669.66,3.94 -118,30.93 -138,202.07 -39.32,265.73 62.39,40.25 407.13,23.2 494.21,23.2 -33.19,49.56 -163.31,136.8 -221.26,169.23l-136.1 59.15c-113.57,39.68 -228.85,58.8 -341.8,59.47l-3.72 0.03 0 297.86z"/>
   <path class="fil2" d="M3392.97 5297.24l575.98 0 0 -297.86c-352.5,0.83 -681.79,-178.51 -864.74,-477.47 -132.56,-216.62 -160.3,-383.34 -160.3,-689.01 324.84,0 685.37,50.03 915.4,-177.97 37.18,-36.85 67.51,-76.92 109.63,-105.13l0.01 0.01 0 -1485.32c-105.89,-0.17 -211.84,13.13 -322.22,40.43 -283.27,70.06 -457.73,210.99 -651.66,402.67 -60.9,60.2 -150.14,194.79 -187.9,270.91 -48.49,97.75 -99.97,220.72 -122.78,336.05 -9.76,49.39 -13.41,88.95 -23.59,132.61 -145.32,0 -156.44,-9.98 -283.1,19.53 0,-291.35 142.86,-604.36 308.27,-843.68 26.2,-37.91 58.04,-69.29 87.72,-107.52 31.45,-40.53 58.88,-65.76 94.37,-100.88 32.66,-32.33 66.38,-53.06 102.12,-83.36 24.74,-20.98 25.02,-24.9 53.58,-44.04 260.63,-174.72 429.21,-251.92 763.59,-300.49l181.6 -0.7 0 -305.82 -61.89 0c-313.04,11.22 -624.45,96.69 -885.63,253.24 -98.05,58.76 -181.7,114.34 -269.89,188.94l-122.47 111.81c-174.39,175.13 -365.52,452.67 -442.92,689.51 -21.03,64.38 -43.05,105.58 -58.22,176.08 -25.4,118.05 -62.63,261.6 -62.63,396.19l0 712.65c0,144.66 65.3,310.1 144.98,411.48 28.76,36.59 56.06,72.77 92.19,103.05 188.6,158.08 322.55,188.35 573.1,188.35 24.57,46.43 81.49,116.27 119.5,153.84l144.08 139.03c-364.06,0 -673.08,-46.01 -939.62,222.08 -130.11,130.87 -150.17,178.12 -231.99,343.99 -70.48,142.87 -146.29,340.06 -146.29,507.78 0,198.35 209.71,400.25 410.01,400.25l1737.69 0 0 -400.26 -0.01 0.01 -288.68 -384.91c-51.98,-69.34 -94.08,-125.92 -144.98,-196.71 -25.25,-35.13 -45.47,-60.5 -71.19,-94.76l-71.12 -104.6z"/>
  </g>
 </g>
</svg>
