<?xml version="1.0" encoding="UTF-8"?>
<!DOCTYPE svg PUBLIC "-//W3C//DTD SVG 1.1//EN" "http://www.w3.org/Graphics/SVG/1.1/DTD/svg11.dtd">
<!-- Creator: CorelDRAW 2021 (64-Bit) -->
<svg xmlns="http://www.w3.org/2000/svg" xml:space="preserve" width="210mm" height="297mm" version="1.1" style="shape-rendering:geometricPrecision; text-rendering:geometricPrecision; image-rendering:optimizeQuality; fill-rule:evenodd; clip-rule:evenodd"
viewBox="0 0 21000 29700"
 xmlns:xlink="http://www.w3.org/1999/xlink"
 xmlns:xodm="http://www.corel.com/coreldraw/odm/2003">
 <defs>
  <style type="text/css">
   <![CDATA[
    .str0 {stroke:#700101;stroke-width:381.76;stroke-linecap:round;stroke-linejoin:round;stroke-miterlimit:10}
    .str1 {stroke:white;stroke-width:381.76;stroke-linecap:round;stroke-linejoin:round;stroke-miterlimit:10}
    .fil2 {fill:none;fill-rule:nonzero}
    .fil1 {fill:#700101;fill-rule:nonzero}
    .fil0 {fill:#FDAB08;fill-rule:nonzero}
    .fil3 {fill:#FFCC00;fill-rule:nonzero}
   ]]>
  </style>
 </defs>
 <g id="Layer_x0020_1">
  <metadata id="CorelCorpID_0Corel-Layer"/>
  <g id="_2209606159040">
   <path class="fil0" d="M7625.94 18465.18c-340.87,0 -618.2,-277.29 -618.2,-618.09l0 -4221.53c0,-340.8 277.33,-617.93 618.2,-617.93l2733.22 0c340.9,0 618.19,277.13 618.19,617.93l0 4221.53c0,340.8 -277.29,618.09 -618.19,618.09l-2733.22 0z"/>
   <path class="fil1" d="M10359.16 12816.65l-2733.22 0c-446.14,0 -809.08,362.87 -809.08,808.91l0 4221.53c0,446.04 362.94,809 809.08,809l2733.22 0c446.14,0 809.1,-362.96 809.1,-809l0 -4221.53c0,-446.04 -362.96,-808.91 -809.1,-808.91l0 0zm0 381.81c236.06,0 427.29,191.4 427.29,427.1l0 4221.53c0,235.72 -191.23,427.19 -427.29,427.19l-2733.22 0c-236.06,0 -427.29,-191.47 -427.29,-427.19l0 -4221.53c0,-235.7 191.23,-427.1 427.29,-427.1l2733.22 0z"/>
   <line class="fil2" x1="8147.76" y1="13795.55" x2="9877.01" y2= "13795.55" />
   <line class="fil2 str0" x1="8147.76" y1="13795.55" x2="9877.01" y2= "13795.55" />
   <line class="fil2 str1" x1="7831.03" y1="17193.62" x2="7831.03" y2= "14649.47" />
   <path class="fil3" d="M9341.23 20069.92c-340.87,0 -618.19,-277.3 -618.19,-618.1l0 -4221.5c0,-340.73 277.32,-617.86 618.19,-617.86l1947.47 0c50.63,0 99.17,20.07 134.95,55.86l1213.05 1213.04c35.86,35.86 55.95,84.42 55.95,135.05l0 3435.41c0,340.8 -277.3,618.1 -618.19,618.1l-2733.23 0z"/>
   <path class="fil1" d="M11288.7 14421.46l-1947.47 0c-446.11,0 -809.07,362.89 -809.07,808.86l0 4221.5c0,446.04 362.96,809.01 809.07,809.01l2733.23 0c446.13,0 809.09,-362.97 809.09,-809.01l0 -3435.41c0,-101.33 -40.25,-198.36 -111.8,-270l-1213.07 -1213.14c-71.62,-71.55 -168.74,-111.81 -269.98,-111.81l0 0zm0 381.81l1213.04 1213.14 0 3435.41c0,235.73 -191.07,427.2 -427.28,427.2l-2733.23 0c-236.05,0 -427.29,-191.47 -427.29,-427.2l0 -4221.5c0,-235.72 191.24,-427.05 427.29,-427.05l1947.47 0z"/>
   <path class="fil1" d="M11435.18 14568.04c-49.22,0 -98.84,9.48 -146.08,29.06 -142.68,59.1 -235.63,198.36 -235.63,352.75l0 469.78c0,444.06 361.29,805.28 805.35,805.28l469.62 0c154.46,0 293.65,-93.05 352.75,-235.72 59.1,-142.67 26.47,-306.85 -82.75,-416.09l-893.16 -893.26c-73.05,-73.03 -170.74,-111.8 -270.1,-111.8l0 0zm0.1 381.81l893.16 893.26 -469.62 0c-233.89,0 -423.54,-189.83 -423.54,-423.48l0 -469.78z"/>
   <line class="fil2" x1="9732.76" y1="16655.61" x2="11683.28" y2= "16655.61" />
   <line class="fil2 str0" x1="9732.76" y1="16655.61" x2="11683.28" y2= "16655.61" />
   <line class="fil2" x1="9732.76" y1="17375.05" x2="11683.28" y2= "17375.05" />
   <line class="fil2 str0" x1="9732.76" y1="17375.05" x2="11683.28" y2= "17375.05" />
   <line class="fil2" x1="9732.76" y1="18094.34" x2="11683.28" y2= "18094.34" />
   <line class="fil2 str0" x1="9732.76" y1="18094.34" x2="11683.28" y2= "18094.34" />
   <line class="fil2" x1="9732.76" y1="18813.8" x2="11683.28" y2= "18813.8" />
   <line class="fil2 str0" x1="9732.76" y1="18813.8" x2="11683.28" y2= "18813.8" />
   <line class="fil2 str1" x1="9738.73" y1="15300.53" x2="10508.47" y2= "15300.53" />
  </g>
 </g>
</svg>
