<?xml version="1.0" encoding="UTF-8"?>
<!DOCTYPE svg PUBLIC "-//W3C//DTD SVG 1.1//EN" "http://www.w3.org/Graphics/SVG/1.1/DTD/svg11.dtd">
<!-- Creator: CorelDRAW 2021 (64-Bit) -->
<svg xmlns="http://www.w3.org/2000/svg" xml:space="preserve" width="50mm" height="50mm" version="1.1" style="shape-rendering:geometricPrecision; text-rendering:geometricPrecision; image-rendering:optimizeQuality; fill-rule:evenodd; clip-rule:evenodd"
viewBox="0 0 5000 5000"
 xmlns:xlink="http://www.w3.org/1999/xlink"
 xmlns:xodm="http://www.corel.com/coreldraw/odm/2003">
 <defs>
  <style type="text/css">
   <![CDATA[
    .fil0 {fill:none}
    .fil1 {fill:#990000}
   ]]>
  </style>
 </defs>
 <g id="Layer_x0020_1">
  <metadata id="CorelCorpID_0Corel-Layer"/>
  <rect class="fil0" x="-6.13" y="6.11" width="5000.02" height="5000.02"/>
  <rect class="fil0" x="493.87" y="506.11" width="4000.02" height="4000.02"/>
  <path class="fil1" d="M3159.9 4328.96c120.24,0 227.73,-104.18 227.73,-234.84 0,-112.28 -78.67,-167.64 -136.99,-225.95 -151.26,-151.27 -1047.34,-1037.17 -1095.24,-1096.65 -106.1,-131.75 -144.43,-272.84 -63.06,-435.27 43.51,-86.85 229.59,-254.33 304.32,-329.05l846.87 -846.87c65.27,-65.28 163.55,-154.86 148.79,-265.74 -17.19,-129.12 -108.55,-209.29 -239.53,-209.29 -116.85,0 -192.16,103.2 -254.42,165.46l-846.86 846.86c-71.24,71.24 -145.89,140.22 -213.59,213.41 -63.24,68.38 -136.54,162.31 -171.51,248.37 -63.41,156.05 -57.79,151.1 -73.28,296.78 -24.86,233.91 81.41,484.03 244.88,646.96l1060.36 1060.36c64.4,64.4 139.46,165.46 261.53,165.46z"/>
 </g>
</svg>
