<?xml version="1.0" encoding="UTF-8"?>
<!DOCTYPE svg PUBLIC "-//W3C//DTD SVG 1.1//EN" "http://www.w3.org/Graphics/SVG/1.1/DTD/svg11.dtd">
<!-- Creator: CorelDRAW 2021 (64-Bit) -->
<svg xmlns="http://www.w3.org/2000/svg" xml:space="preserve" width="50mm" height="50mm" version="1.1" style="shape-rendering:geometricPrecision; text-rendering:geometricPrecision; image-rendering:optimizeQuality; fill-rule:evenodd; clip-rule:evenodd"
viewBox="0 0 5000 5000"
 xmlns:xlink="http://www.w3.org/1999/xlink"
 xmlns:xodm="http://www.corel.com/coreldraw/odm/2003">
 <defs>
  <style type="text/css">
   <![CDATA[
    .str0 {stroke:#FDAB08;stroke-width:255.21;stroke-linejoin:round;stroke-miterlimit:10}
    .fil0 {fill:none}
    .fil2 {fill:none;fill-rule:nonzero}
    .fil1 {fill:#FDAB08;fill-rule:nonzero}
   ]]>
  </style>
 </defs>
 <g id="Layer_x0020_1">
  <metadata id="CorelCorpID_0Corel-Layer"/>
  <rect class="fil0" x="-6.13" y="6.11" width="5000.02" height="5000.02"/>
  <rect class="fil0" x="493.87" y="506.11" width="4000.02" height="4000.02"/>
  <g id="_1982805887664">
   <path class="fil1" d="M2491.56 506.11c-404.57,0 -784.96,157.57 -1071.03,443.59 -452.72,452.96 -571.79,1145.44 -296.33,1723.11 14.77,30.91 59.43,124.39 1038.08,1649.67 74.56,116.29 201.51,185.69 339.55,185.69 138.65,0 265.43,-70.01 339.16,-187.2 957.42,-1522.87 999.08,-1609.09 1014.77,-1641.55 279.7,-579.46 161.85,-1274.54 -293.22,-1729.66 -286.06,-286.08 -666.39,-443.65 -1070.98,-443.65l0 0zm0 255.29c322.3,0 644.6,122.94 890.5,368.79 388.93,388.98 470.28,969.22 243.9,1438.15 -47.22,97.76 -719.5,1169.02 -1000.95,1616.7 -28.51,45.34 -75.74,67.86 -123.18,67.86 -47.71,0 -95.59,-22.86 -124.71,-68.24 -287.85,-448.57 -975.11,-1522.38 -1022.55,-1621.7 -223.15,-467.93 -140.86,-1045.24 246.4,-1432.77 245.95,-245.85 568.25,-368.79 890.59,-368.79z"/>
   <path class="fil1" d="M2500.04 4252.82c-47.06,-0.6 -94.13,-23.31 -122.93,-68.13 -287.86,-448.58 -975.12,-1522.43 -1022.54,-1621.76 -223.16,-467.89 -140.86,-1045.19 246.43,-1432.72 248.02,-248.12 573.86,-370.66 899.04,-368.42l0 531.14c-15.22,-1.15 -30.54,-1.75 -46.02,-1.75 -332.02,0 -601.01,269.04 -601.01,601.06 0,331.98 268.99,601.11 601.01,601.11 15.48,0 30.8,-0.59 46.02,-1.74l0 1761.21z"/>
   <path class="fil2 str0" d="M3054.99 1892.24c0,331.98 -268.94,601.11 -600.97,601.11 -332.02,0 -601.01,-269.13 -601.01,-601.11 0,-332.02 268.99,-601.06 601.01,-601.06 332.03,0 600.97,269.04 600.97,601.06z"/>
  </g>
 </g>
</svg>
