<?xml version="1.0" encoding="UTF-8"?>
<!DOCTYPE svg PUBLIC "-//W3C//DTD SVG 1.1//EN" "http://www.w3.org/Graphics/SVG/1.1/DTD/svg11.dtd">
<!-- Creator: CorelDRAW 2021 (64-Bit) -->
<svg xmlns="http://www.w3.org/2000/svg" xml:space="preserve" width="50mm" height="50mm" version="1.1" style="shape-rendering:geometricPrecision; text-rendering:geometricPrecision; image-rendering:optimizeQuality; fill-rule:evenodd; clip-rule:evenodd"
viewBox="0 0 5000 5000"
 xmlns:xlink="http://www.w3.org/1999/xlink"
 xmlns:xodm="http://www.corel.com/coreldraw/odm/2003">
 <defs>
  <style type="text/css">
   <![CDATA[
    .fil0 {fill:none}
    .fil1 {fill:#990000}
   ]]>
  </style>
 </defs>
 <g id="Layer_x0020_1">
  <metadata id="CorelCorpID_0Corel-Layer"/>
  <rect class="fil0" x="-6.13" y="6.11" width="5000.02" height="5000.02"/>
  <rect class="fil0" x="493.87" y="506.11" width="4000.02" height="4000.02"/>
  <g id="_1947402557024">
   <path class="fil1" d="M804.93 2507.13c0,-418.42 144.9,-763.35 394.72,-1081.18 108.17,-137.63 248.5,-249.28 394.47,-343.48 364.76,-235.4 849,-321.02 1274.14,-216.99 110.61,27.07 224.42,60.08 316.29,105.4 93.28,46.02 117.9,55.59 204.67,111.59 232.94,150.33 376.78,294.17 527.11,527.11 14.85,23.01 25.88,40.11 40.56,64.86 82.81,139.67 136.47,292.79 176.43,456.1 58.1,237.42 58.1,515.76 0,753.18 -27.07,110.61 -60.08,224.42 -105.4,316.29 -46.02,93.28 -55.59,117.9 -111.59,204.67l-181.07 240.61c-75.12,94.09 -242.27,219.53 -346.04,286.5 -209.77,135.37 -447.33,218.47 -701.12,247.67 -351.22,40.41 -727.38,-28.21 -1029.12,-207.11l-189.7 -126.57c-64.95,-53.68 -167.61,-133.36 -221.2,-200.49 -207.02,-259.32 -309.2,-398.45 -398.06,-761.57 -23.53,-96.18 -45.09,-273.65 -45.09,-376.59zm-240.96 -52.71c0,348.37 47.37,586.8 175.67,863.49 95.99,207 235.89,402.73 387.2,554.05 324.32,324.31 813.94,562.87 1312.12,562.87 348.37,0 586.8,-47.37 863.49,-175.67 645.52,-299.34 1116.92,-977.45 1116.92,-1699.32 0,-348.37 -47.37,-586.8 -175.67,-863.49 -96.92,-209.01 -234.41,-401.25 -387.2,-554.05 -81.39,-81.39 -159.74,-143.44 -254.71,-212.15 -278.95,-201.8 -674.58,-350.72 -1057.41,-350.72 -348.37,0 -586.8,47.37 -863.49,175.67 -645.64,299.39 -1116.92,977.46 -1116.92,1699.32z"/>
   <path class="fil1" d="M2371.19 2928.82c-34.22,-22.92 -316.1,-312.34 -370.86,-367.1 -46.16,-46.16 -131.22,-153.43 -209.98,-155.5 -47.55,-1.25 -90.65,25.1 -109.97,65.32 -24.49,51.03 -11.51,96.15 18.26,135.85 42.97,57.3 295.25,301.8 365.7,372.25 59.7,59.71 322.48,348.27 389.68,348.27 147.74,0 128.4,-11.69 280.5,-163.78 84.5,-84.5 509.93,-502.18 551.26,-555.66 31.29,-40.48 41.28,-79.67 19.51,-131.73 -17.74,-42.4 -61.86,-71.84 -112.3,-70.52 -78.76,2.07 -163.82,109.34 -209.98,155.5 -54.76,54.76 -336.64,344.18 -370.86,367.1 0,-65.52 6.24,-1264.32 -3.03,-1299.67 -28.58,-108.94 -195.2,-118.4 -233.11,-5.75 -15.14,45 -4.82,1227.17 -4.82,1305.42z"/>
  </g>
 </g>
</svg>
