<?xml version="1.0" encoding="UTF-8"?>
<!DOCTYPE svg PUBLIC "-//W3C//DTD SVG 1.1//EN" "http://www.w3.org/Graphics/SVG/1.1/DTD/svg11.dtd">
<!-- Creator: CorelDRAW 2021 (64-Bit) -->
<svg xmlns="http://www.w3.org/2000/svg" xml:space="preserve" width="50mm" height="50mm" version="1.1" style="shape-rendering:geometricPrecision; text-rendering:geometricPrecision; image-rendering:optimizeQuality; fill-rule:evenodd; clip-rule:evenodd"
viewBox="0 0 5000 5000"
 xmlns:xlink="http://www.w3.org/1999/xlink"
 xmlns:xodm="http://www.corel.com/coreldraw/odm/2003">
 <defs>
  <style type="text/css">
   <![CDATA[
    .fil0 {fill:none}
    .fil1 {fill:#990000}
   ]]>
  </style>
 </defs>
 <g id="Layer_x0020_1">
  <metadata id="CorelCorpID_0Corel-Layer"/>
  <rect class="fil0" x="-6.13" y="6.11" width="5000.02" height="5000.02"/>
  <rect class="fil0" x="493.87" y="506.11" width="4000.02" height="4000.02"/>
  <g id="_1983375151968">
   <path class="fil1" d="M3427.62 3993.22l-1.81 -555.15 553.34 0 -551.53 555.15zm-2346.09 -3350.97l189.17 0 1973.1 0 -96.51 85.51c-31.94,32.31 -58.88,58.94 -90.98,91.05 -147.65,147.64 -106.58,136.86 -220.24,136.52 -170.25,-0.5 -1731.92,-8.44 -1779.62,4.17 -128.96,34.1 -113.39,158.31 -113.38,243.37 0,951.35 0,1902.71 0,2854.07l2169.67 0 0 -931.94 931.94 0c0,-281.53 0,-563.05 0,-844.58 0,-48.8 -12.39,-170.75 5.97,-205.17l307.1 -319.04 0 24.8 0 24.8 0 24.8 0 24.8 0 24.8 0 24.8 0 24.8 0 24.8 0 24.81 0 24.79 0 24.8 0 24.8 0 24.8 0 24.81 0 24.79 0 24.8 0 24.8 0 24.81 0 24.79 0 24.8 0 24.8 0 24.8 0 24.81 0 24.79 0 24.8 0 24.81 0 24.8 0 24.79 0 24.8 0 24.8 0 24.81 0 24.8 0 24.79 0 24.8 0 24.81 0 24.8 0 24.8 0 24.79 0 24.8 0 24.81 0 24.8 0 24.79 0 24.81 0 24.8 0 24.8 0 24.8 0 24.79 0 24.81 0 24.8 0 24.8 0 24.79 0 24.81 0 24.8 0 24.8 0 24.8 0 24.79 0 24.81 0 24.8 0 24.8 0 24.8 0 24.8 0 24.8 0 24.8 0 24.8 0 141.57c-2.92,17.57 -8.7,31.99 -19.5,42.79l-692.2 691.15c-125.08,125.09 -129.66,147.73 -177.61,151.08l-71.75 0 -2766.7 0 0 -49.6 0 -49.6 0 -49.6 0 -49.6 0 -49.6 0 -49.6 0 -49.6 0 -49.61 0 -49.59 0 -49.6 0 -49.6 0 -49.6 0 -49.6 0 -49.61 0 -49.6 0 -49.59 0 -49.61 0 -49.59 0 -49.61 0 -49.59 0 -49.61 0 -49.59 0 -49.6 0 -49.61 0 -49.6 0 -49.6 0 -49.6 0 -49.6 0 -49.6 0 -49.6 0 -49.6 0 -49.6 0 -49.6 0 -49.6 0 -49.6 0 -49.6 0 -49.6 0 -49.61 0 -49.59 0 -49.6 0 -49.6 0 -49.6 0 -49.61 0 -49.59 0 -49.61 0 -49.59 0 -49.6 0 -49.61 0 -49.6 0 -49.6 0 -49.59 0 -49.61 0 -49.59 0 -49.61 0 -49.6 0 -49.6 0 -49.6 0 -49.6 0 -49.6 0 -49.6 0 -49.6 0 -49.6 0 -49.6 0 -49.6c0,-167.16 1.93,-224.49 67.71,-332.73 44.12,-72.62 130.11,-151.02 209.83,-183.34 62.76,-25.44 115.15,-34.45 174,-37.27z"/>
   <path class="fil1" d="M1955.09 3277.9l-232.99 0c0,-298.62 -34.37,-209.54 125.6,-369.51 45.46,-45.46 85.59,-85.58 131.05,-131.05l1710.99 -1710.98c71.74,-71.75 86.85,-103.76 194.76,-103.76 78.38,0 152.9,74.52 152.9,152.9 0,108.73 -24.93,115.93 -103.76,194.76l-1903.92 1903.93c-15.39,15.39 -52.86,63.71 -74.63,63.71zm-553.34 -356.76l0 655.27c0,16.77 5.07,21.84 21.84,21.84l655.27 0c21.6,0 156.06,-145.14 180.21,-169.28 650.85,-650.85 1305.58,-1313.03 1958.59,-1958.46 196.04,-193.77 186.17,-556.84 -60.71,-729.38 -167.58,-117.11 -352.05,-118.27 -529.81,-28.62 -96.08,48.46 -372.04,344.36 -457.98,430.29l-1623.61 1623.62c-22.31,22.31 -143.8,133.57 -143.8,154.72z"/>
  </g>
 </g>
</svg>
