<?xml version="1.0" encoding="UTF-8"?>
<!DOCTYPE svg PUBLIC "-//W3C//DTD SVG 1.1//EN" "http://www.w3.org/Graphics/SVG/1.1/DTD/svg11.dtd">
<!-- Creator: CorelDRAW 2021 (64-Bit) -->
<svg xmlns="http://www.w3.org/2000/svg" xml:space="preserve" width="50mm" height="50mm" version="1.1" style="shape-rendering:geometricPrecision; text-rendering:geometricPrecision; image-rendering:optimizeQuality; fill-rule:evenodd; clip-rule:evenodd"
viewBox="0 0 5000 5000"
 xmlns:xlink="http://www.w3.org/1999/xlink"
 xmlns:xodm="http://www.corel.com/coreldraw/odm/2003">
 <defs>
  <style type="text/css">
   <![CDATA[
    .str0 {stroke:#700101;stroke-width:267.06;stroke-linejoin:round;stroke-miterlimit:10}
    .str1 {stroke:white;stroke-width:267.06;stroke-linecap:round;stroke-linejoin:round;stroke-miterlimit:10}
    .fil0 {fill:none}
    .fil4 {fill:none;fill-rule:nonzero}
    .fil2 {fill:#700101;fill-rule:nonzero}
    .fil3 {fill:#FDAB08;fill-rule:nonzero}
    .fil1 {fill:#FFCC00;fill-rule:nonzero}
   ]]>
  </style>
 </defs>
 <g id="Layer_x0020_1">
  <metadata id="CorelCorpID_0Corel-Layer"/>
  <rect class="fil0" x="-6.13" y="6.11" width="5000.02" height="5000.02"/>
  <rect class="fil0" x="493.87" y="506.11" width="4000.02" height="4000.02"/>
  <g id="_1947541288384">
   <path class="fil1" d="M1007.08 4372.62c-112.64,0 -218.44,-50.53 -290.26,-138.6 -71.6,-87.56 -99.58,-201.6 -76.88,-312.73l157.06 -768.8c29.79,-145.05 100.75,-276.74 205.19,-381.14l1975.59 -1975.56c100.67,-100.68 234.57,-156.13 377.11,-156.13 142.6,0 276.72,55.45 377.47,156.18l466.76 466.95c100.73,100.67 156.3,234.63 156.36,377.23 0.12,142.48 -55.33,276.42 -156.12,377.16l-1975.7 1975.59c-104.1,104.21 -235.21,175.74 -379.03,207.05l-756.79 164.07c-26.59,5.76 -53.77,8.73 -80.76,8.73l0 0z"/>
   <path class="fil2" d="M3354.89 506.11c-178.19,0 -345.71,69.33 -471.59,195.2l-1975.56 1975.59c-122.93,122.91 -206.48,278 -241.5,448.53l-157.12 769.1c-30.82,150.54 7.21,305.17 104.24,423.97 97.3,119.26 240.84,187.65 393.72,187.65 36.52,0 73.28,-4 109.27,-11.79l756.49 -163.96c169.08,-36.75 323.07,-120.89 445.34,-243.23l1975.63 -1975.51c125.94,-125.99 195.33,-293.51 195.27,-471.71 -0.12,-178.25 -69.61,-345.76 -195.61,-471.69l-466.64 -466.76c-126.06,-126.01 -293.62,-195.39 -471.94,-195.39l0 0zm0 267.1c102.48,0 204.96,39.07 283.06,117.1l466.7 466.82c156.36,156.3 156.36,409.57 0.3,565.65l-1975.7 1975.58c-85.7,85.82 -194.51,145.22 -313.01,170.92l-756.74 164.1c-17.71,3.83 -35.24,5.69 -52.42,5.69 -148.36,0 -267.68,-137.38 -236.26,-291.07l157.06 -768.8c24.38,-118.57 83.09,-227.79 168.72,-313.42l1975.58 -1975.59c78.03,-78.03 180.34,-116.98 282.71,-116.98z"/>
   <polygon class="fil3" points="3374.4,1765.48 3830.19,2221.16 2182.43,3869.03 1726.75,3413.19 "/>
   <line class="fil4" x1="2133.2" y1="3941.27" x2="1032.39" y2= "2840.4" />
   <line class="fil4 str0" x1="2133.2" y1="3941.27" x2="1032.39" y2= "2840.4" />
   <line class="fil4" x1="3894.82" y1="2179.88" x2="2793.77" y2= "1078.89" />
   <line class="fil4 str0" x1="3894.82" y1="2179.88" x2="2793.77" y2= "1078.89" />
   <path class="fil2" d="M1059.5 4233.38l341.47 -74.03 -559.08 -559.2 -71.07 347.85c-35.08,171.52 117.58,322.59 288.68,285.38z"/>
   <line class="fil4" x1="1651.5" y1="3343.57" x2="3320.12" y2= "1674.79" />
   <line class="fil4 str0" x1="1651.5" y1="3343.57" x2="3320.12" y2= "1674.79" />
   <line class="fil4 str1" x1="1996.23" y1="2350.59" x2="2685.72" y2= "1668.34" />
   <path class="fil4 str1" d="M3302.75 1069.72c31.64,-23.05 83.38,-43.54 147.88,-6.27"/>
  </g>
 </g>
</svg>
