<?xml version="1.0" encoding="UTF-8"?>
<!DOCTYPE svg PUBLIC "-//W3C//DTD SVG 1.1//EN" "http://www.w3.org/Graphics/SVG/1.1/DTD/svg11.dtd">
<!-- Creator: CorelDRAW 2021 (64-Bit) -->
<svg xmlns="http://www.w3.org/2000/svg" xml:space="preserve" width="50mm" height="50mm" version="1.1" style="shape-rendering:geometricPrecision; text-rendering:geometricPrecision; image-rendering:optimizeQuality; fill-rule:evenodd; clip-rule:evenodd"
viewBox="0 0 5000 5000"
 xmlns:xlink="http://www.w3.org/1999/xlink"
 xmlns:xodm="http://www.corel.com/coreldraw/odm/2003">
 <defs>
  <style type="text/css">
   <![CDATA[
    .str0 {stroke:#700101;stroke-width:7.62;stroke-miterlimit:22.9256}
    .fil0 {fill:none}
    .fil6 {fill:#700101;fill-rule:nonzero}
    .fil2 {fill:#FDAB08;fill-rule:nonzero}
    .fil3 {fill:#FFCC00;fill-rule:nonzero}
    .fil5 {fill:#FFD15B;fill-rule:nonzero}
    .fil4 {fill:#FFE177;fill-rule:nonzero}
    .fil1 {fill:#FFE785;fill-rule:nonzero}
   ]]>
  </style>
 </defs>
 <g id="Layer_x0020_1">
  <metadata id="CorelCorpID_0Corel-Layer"/>
  <rect class="fil0" x="-6.13" y="6.11" width="5000.02" height="5000.02"/>
  <rect class="fil0" x="493.87" y="506.11" width="4000.02" height="4000.02"/>
  <g id="_1983433458512">
   <path class="fil1" d="M1234.57 3037.84l-33.63 7.81 203.75 544.14c24.92,66.57 88.54,110.68 159.62,110.68l2047.66 0c71.08,0 134.7,-44.11 159.63,-110.68l203.74 -544.14 -35.6 -7.82 -2705.17 0.01z"/>
   <path class="fil2" d="M3762.28 1405.07l-1561.34 0c-5.73,20.33 -12.01,40.32 -18.66,60.05 113.94,5.48 213.42,66.07 272.39,155.68l-1.78 -2.67 1281.85 0c15.21,0 27.54,12.33 27.54,27.54l0 946.29c0,15.21 -12.33,27.54 -27.54,27.54l-2293.19 0c-15.22,0 -27.55,-12.33 -27.55,-27.54l0 -507.76c-78.91,-48.41 -149.98,-102.9 -213.06,-163.34l0 698.66c0,117.68 95.39,213.07 213.06,213.07l2348.28 0c117.68,0 213.06,-95.4 213.06,-213.07l0 -1001.39c0,-117.66 -95.38,-213.06 -213.06,-213.06zm-1261.11 321.69c0.61,2.45 1.18,4.9 1.74,7.37 -0.56,-2.47 -1.13,-4.92 -1.74,-7.37zm2.03 8.64c0.52,2.32 1.02,4.66 1.49,7.01 -0.47,-2.35 -0.97,-4.69 -1.49,-7.01zm1.68 7.97c0.51,2.61 1,5.22 1.45,7.85 -0.45,-2.63 -0.94,-5.25 -1.45,-7.85zm1.47 7.93c0.46,2.68 0.89,5.37 1.29,8.07 -0.4,-2.7 -0.83,-5.39 -1.29,-8.07zm1.37 8.61c0.39,2.63 0.75,5.27 1.08,7.93 -0.33,-2.66 -0.69,-5.3 -1.08,-7.93zm1.11 8.17c0.34,2.76 0.64,5.51 0.91,8.28 -0.28,-2.77 -0.57,-5.53 -0.91,-8.28zm0.92 8.36c0.25,2.6 0.48,5.2 0.68,7.82 -0.2,-2.62 -0.43,-5.22 -0.68,-7.82zm0.74 8.62c0.2,2.74 0.37,5.49 0.51,8.24 -0.14,-2.75 -0.31,-5.51 -0.51,-8.24zm0.52 8.52c0.13,2.76 0.23,5.51 0.31,8.28 -0.08,-2.77 -0.18,-5.53 -0.31,-8.28zm0.32 8.83c0.06,2.78 0.1,5.55 0.1,8.34 0,-2.8 -0.04,-5.57 -0.1,-8.34z"/>
   <path class="fil3" d="M2221.35 2832.59c0.14,-4.25 0.32,-8.51 0.32,-12.79 0,-207.1 -167.89,-374.99 -374.99,-374.99 -207.11,0 -374.99,167.89 -374.99,374.99 0,4.29 0.18,8.53 0.32,12.79l749.34 0z"/>
   <path class="fil2" d="M1978.88 2468.85c-41.12,-15.5 -85.65,-24.04 -132.2,-24.04 -207.1,0 -374.99,167.88 -374.99,374.99 0,4.29 0.18,8.53 0.32,12.78l264.39 0c-0.14,-4.25 -0.32,-8.5 -0.32,-12.79 0,-160.55 100.94,-297.48 242.8,-350.94l0 0z"/>
   <path class="fil3" d="M2775.32 2832.59c0.14,-4.25 0.32,-8.51 0.32,-12.79 0,-207.1 -167.89,-374.99 -374.99,-374.99 -207.11,0 -374.99,167.89 -374.99,374.99 0,4.29 0.18,8.53 0.32,12.79l749.34 0z"/>
   <path class="fil2" d="M2533.2 2468.99c-41.22,-15.58 -85.87,-24.18 -132.55,-24.18 -207.1,0 -374.99,167.89 -374.99,374.99 0,4.29 0.18,8.53 0.32,12.79l265.12 0c-0.14,-4.25 -0.32,-8.51 -0.32,-12.79 -0.01,-160.42 100.76,-297.25 242.42,-350.81z"/>
   <path class="fil3" d="M3697.17 2832.59c4.73,-16.25 7.41,-33.38 7.41,-51.14 0,-81.73 -53.8,-151.15 -127.85,-174.69 13.42,-25.76 20.52,-54.55 20.52,-84.44 0,-48.95 -19.07,-94.97 -53.67,-129.58 -34.61,-34.61 -80.62,-53.66 -129.56,-53.66 -29.89,0 -58.67,7.1 -84.45,20.52 -23.54,-74.05 -92.94,-127.86 -174.68,-127.86 -81.74,0 -151.15,53.81 -174.67,127.86 -25.78,-13.42 -54.57,-20.52 -84.46,-20.52 -48.94,0 -94.95,19.05 -129.55,53.66 -34.62,34.61 -53.68,80.63 -53.68,129.58 0,29.89 7.11,58.67 20.52,84.44 -74.05,23.54 -127.85,92.95 -127.85,174.69 0,17.76 2.67,34.89 7.41,51.14l1084.56 0z"/>
   <path class="fil3" d="M1790.42 3589.79l-203.74 -544.14 -385.74 0 203.74 544.14c24.93,66.57 88.55,110.68 159.63,110.68l385.74 0c-71.08,0 -134.7,-44.12 -159.63,-110.68l0 0z"/>
   <path class="fil1" d="M2223.73 3045.64l92.4 160.06c22.84,39.55 65.04,63.91 110.71,63.91l322.59 0c45.68,0 87.88,-24.36 110.72,-63.91l92.4 -160.06 -728.82 0z"/>
   <path class="fil3" d="M2578.47 3205.7l-92.41 -160.06 -262.33 0 92.41 160.06c22.84,39.55 65.04,63.92 110.71,63.92l262.33 0c-45.67,0 -87.87,-24.36 -110.71,-63.92z"/>
   <path class="fil3" d="M4019.92 3045.64l-2863.56 0c-47.07,0 -85.23,-38.15 -85.23,-85.22l0 -42.61c0,-47.07 38.16,-85.23 85.23,-85.23l2863.56 0c47.07,0 85.22,38.15 85.22,85.22l0 42.61c0,47.07 -38.15,85.23 -85.22,85.23l0 0z"/>
   <path class="fil2" d="M1592.71 2960.42l0 -42.6c0,-47.08 38.15,-85.23 85.22,-85.23l-521.56 0c-47.07,0 -85.23,38.15 -85.23,85.22l0 42.61c0,47.07 38.16,85.23 85.23,85.23l521.57 0c-47.07,-0.01 -85.23,-38.16 -85.23,-85.23l0 0z"/>
   <path class="fil3" d="M4145.98 4191.88l0 -127.84c0,-47.07 -38.16,-85.22 -85.23,-85.22l-1445.39 0 0 213.06 1530.62 0z"/>
   <path class="fil3" d="M1802.52 3978.82l-686.99 0c-47.07,0 -85.23,38.15 -85.23,85.22l0 127.84 772.22 0 0 -213.06z"/>
   <path class="fil2" d="M2615.36 4404.95l1445.39 0c47.07,0 85.23,-38.16 85.23,-85.23l0 -127.84 -1530.62 0 0 213.07z"/>
   <path class="fil2" d="M1030.31 4191.88l0 127.84c0,47.07 38.15,85.23 85.22,85.23l686.99 0 0 -213.07 -772.21 0z"/>
   <path class="fil4" d="M1802.52 4404.95l0 -426.13c0,-23.53 19.07,-42.61 42.6,-42.61l727.63 0c23.53,0 42.6,19.08 42.6,42.61l0 426.13c0,23.53 -19.07,42.6 -42.6,42.6l-727.62 0.01c-23.53,0 -42.61,-19.08 -42.61,-42.61l0 0z"/>
   <path class="fil5" d="M2025.12 4158.13c0,-23.53 19.08,-42.61 42.61,-42.61l547.63 0 0 -136.7c0,-23.53 -19.08,-42.61 -42.61,-42.61l-727.62 0c-23.53,0 -42.61,19.08 -42.61,42.61l0 426.12c0,23.53 19.08,42.61 42.61,42.61l179.99 0 0 -289.42z"/>
   <path class="fil1" d="M1819.31 1810.75c0,-191.13 154.94,-346.06 346.06,-346.06 5.67,0 11.3,0.16 16.9,0.44 42.79,-126.79 66.77,-266.2 70.92,-417.98 0.83,-29.86 -14.27,-57.95 -39.47,-74l-620.44 -395.2c-27.93,-17.79 -63.64,-17.79 -91.57,0l-620.45 395.2c-25.2,16.04 -40.28,44.14 -39.47,74 13.82,504.32 244.84,873.09 666.79,1090.23 24.38,12.55 53.45,12.55 77.83,0 99.46,-51.18 188.17,-110.9 266.07,-178.72 -21.24,-44.86 -33.17,-94.98 -33.17,-147.9l0 -0.01z"/>
   <path class="fil3" d="M1173.58 1113.55c-0.82,-29.86 14.27,-57.96 39.47,-74l552.48 -351.9 -172.25 -109.7c-27.93,-17.79 -63.64,-17.79 -91.57,0l-620.45 395.19c-25.19,16.05 -40.28,44.14 -39.47,74 13.82,504.33 244.84,873.1 666.79,1090.24 24.39,12.54 53.45,12.54 77.83,0 26.18,-13.47 51.61,-27.52 76.3,-42.16 -308.94,-222.92 -477.39,-553.39 -489.13,-981.67l0 0z"/>
   <circle class="fil1" cx="2165.38" cy="1810.75" r="346.06"/>
   <path class="fil3" d="M2106.44 1810.75c0,-139.89 83.06,-260.31 202.5,-314.86 -43.74,-19.97 -92.32,-31.2 -143.56,-31.2 -191.13,0 -346.06,154.94 -346.06,346.06 0,191.12 154.94,346.05 346.06,346.05 51.23,0 99.81,-11.21 143.56,-31.2 -119.44,-54.54 -202.5,-174.95 -202.5,-314.84l0 -0.01z"/>
   <path class="fil6" d="M4113.67 3759.06c77.58,-2.68 77.52,-114.53 0,-117.19l-301.88 0c5.64,-10.03 10.57,-20.56 14.68,-31.53l189.5 -506.09 3.95 0c79.3,0 143.82,-64.53 143.82,-143.83l0 -42.6c0,-79.3 -64.51,-143.83 -143.82,-143.83l-34.46 0c30.5,-43.88 48.48,-97.09 48.48,-154.46l0 -1001.41c0,-149.79 -121.87,-271.65 -271.65,-271.65l-775.89 0 -75.5 -130.75c-33.19,-57.5 -95.06,-93.22 -161.45,-93.22l-322.61 0c-45.69,0 -89.25,16.93 -122.79,46.22 3.91,-39.24 6.6,-79.18 7.71,-119.97 1.38,-50.1 -24.13,-98 -66.56,-125.03l-620.45 -395.19c-46.94,-29.89 -107.59,-29.89 -154.52,0l-620.46 395.19c-42.43,27.04 -67.93,74.94 -66.55,125.03 7.12,260.25 70.72,489.69 189.01,681.92 47.84,77.74 104.68,149.35 170.1,214.67l0 674.18c0,57.39 17.99,110.58 48.49,154.47l-34.46 -0.01c-79.3,0 -143.82,64.53 -143.82,143.82l0 42.61c0,79.3 64.52,143.82 143.82,143.82l3.95 0.01 189.5 506.09c4.12,10.97 9.04,21.51 14.69,31.54l-370.06 0c-77.59,2.69 -77.53,114.53 0,117.19l3119.23 0 0 0zm-351.39 -2295.4c85.18,0 154.47,69.29 154.47,154.46l0 1001.39c0,84.96 -68.94,154.07 -153.81,154.43 -1.04,-34.07 -9.01,-66.65 -22.93,-96.1 45.04,-2.75 80.86,-40.16 80.86,-85.87l0 -406.16c-2.68,-77.58 -114.53,-77.52 -117.19,0l0 375.12 -50.98 0c12.6,-76.25 -12.76,-155.22 -67.69,-209.6 -57.96,-58.8 -144.76,-83.42 -225.09,-64.73 -90.87,-150.29 -319.25,-150.23 -410.08,0 -80.32,-18.68 -167.12,5.93 -225.07,64.72 -33.63,33.61 -56.09,75.4 -65.63,120.87 -150.7,-119.01 -392.02,-111.99 -535.57,14.4 -183.62,-159.64 -485.05,-121.43 -624.49,74.34l-26.49 0 0 -376.34c3.09,1.61 6.08,3.3 9.18,4.9 41.16,21.17 90.28,21.17 131.45,0 81.51,-41.94 156.1,-89.62 223.91,-142.51 276.93,371.99 856.02,73.89 710.03,-370.26l1156.53 0 0 235.65c2.68,77.59 114.53,77.53 117.19,0l0 -266.7c0,-47.5 -38.64,-86.14 -86.14,-86.14l-1252.46 0c-30.33,-38.15 -67.44,-70.68 -109.43,-95.87l1389.43 0 0 0zm-977.27 1116.05c-24.92,-46.75 -15.54,-108.47 22.63,-145.53 37.01,-38.14 98.8,-47.52 145.51,-22.61 15.36,7.99 33.43,8.79 49.42,2.19 15.98,-6.6 28.24,-19.93 33.48,-36.41 36.58,-115.32 201.13,-115.27 237.66,-0.01 5.24,16.48 17.5,29.81 33.49,36.41 15.97,6.61 34.06,5.81 49.41,-2.18 46.75,-24.92 108.49,-15.55 145.54,22.63 38.15,37.03 47.53,98.79 22.61,145.51 -7.98,15.34 -8.79,33.42 -2.19,49.41 6.61,15.98 19.94,28.24 36.41,33.48 49.66,15.79 83.78,59.99 86.79,111.38l-981.77 0c3.03,-51.39 37.14,-95.59 86.79,-111.38 16.48,-5.24 29.81,-17.5 36.41,-33.48 6.6,-15.99 5.81,-34.07 -2.19,-49.41zm-156.84 20.57c-49.02,43.26 -79.26,105.45 -81.33,173.7l-459.27 0c35.57,-257.29 362.12,-362.64 540.6,-173.7zm-583.81 -27.14c-40.45,58.23 -67.04,126.76 -74.86,200.84l-435.9 0c32.43,-238.49 323.94,-354.57 510.76,-200.84zm322.52 -1298.84c12.33,-21.35 35.32,-34.62 59.97,-34.62l322.59 0c24.66,0 47.64,13.26 59.97,34.62l41.67 72.17 -525.86 0 41.66 -72.17zm85.96 536.45c0,158.51 -128.95,287.47 -287.46,287.47 -380.83,-14.46 -380.74,-560.55 0,-574.94 158.51,0 287.46,128.95 287.46,287.46l0 0.01zm-1552.47 -765.23c-0.25,-9.14 4.49,-17.94 12.37,-22.95l620.45 -395.2c0,0 0,0 0,0 8.7,-5.53 19.92,-5.54 28.61,0l620.45 395.2c7.89,5.02 12.63,13.83 12.38,22.97 -3.57,130.16 -22.03,250.65 -55.01,361.46 -259.35,11.21 -446.09,288.76 -357.18,534.25 -66.39,53.59 -140.58,101.71 -222.83,144.04 -7.59,3.89 -16.64,3.9 -24.22,0 -408.22,-210.08 -621.88,-559.9 -635.02,-1039.77l0 0zm536.71 1632.37c-10.65,30.64 -18.03,62.8 -21.54,96.09l-1.53 0c-85.18,0 -154.47,-69.29 -154.47,-154.46l0 -571.15c30.59,23.75 62.5,46.48 95.87,68.04l0 475.57c0,45.98 36.26,83.56 81.67,85.91zm-151.63 426.36l450.6 0c77.59,-2.69 77.53,-114.54 0,-117.19l-579.69 0c-14.68,0 -26.63,-11.95 -26.63,-26.64l0 -42.61c0,-14.68 11.95,-26.63 26.63,-26.63l2863.56 0c14.68,0 26.62,11.95 26.62,26.64l0 42.6c0,14.69 -11.94,26.64 -26.62,26.64l-2010.43 0c-77.58,2.68 -77.52,114.53 0,117.19l180.41 0 75.5 130.75c33.19,57.5 95.06,93.21 161.45,93.21l322.59 0c66.39,0 128.26,-35.71 161.46,-93.21l75.49 -130.75 904.45 0 -174.11 465c-16.27,43.45 -58.37,72.63 -104.75,72.63l-2047.67 0c-46.39,0 -88.48,-29.18 -104.75,-72.63l-174.11 -465zm1565.62 0l-41.66 72.16c-12.33,21.35 -35.32,34.62 -59.97,34.62l-322.6 0c-24.65,0 -47.64,-13.26 -59.96,-34.62l-41.67 -72.17 525.86 0.01z"/>
   <path class="fil6" d="M4204.57 4064.04c0,-79.29 -64.52,-143.82 -143.82,-143.82l-387.17 0c-77.59,2.69 -77.53,114.53 0,117.19l387.18 0c14.68,0 26.63,11.95 26.63,26.64l0 69.24 -1413.44 0 0 -95.88 726.19 0c77.58,-2.68 77.52,-114.53 0,-117.19l-745.02 0c-18.37,-25.74 -48.41,-42.61 -82.36,-42.61l-727.63 0c-33.96,0 -63.99,16.87 -82.36,42.61l-647.24 0c-79.3,0 -143.82,64.53 -143.82,143.82l0 255.68c0,79.3 64.52,143.82 143.82,143.82l647.24 0c18.36,25.74 48.4,42.61 82.35,42.61l727.63 0c33.96,0 63.99,-16.87 82.36,-42.61l1405.64 0c79.3,0 143.82,-64.52 143.82,-143.82l0 -255.68zm-2460.65 282.31l-628.39 0c-14.69,0 -26.63,-11.94 -26.63,-26.63l0 -69.24 655.03 0 0 95.87 -0.01 0zm0 -213.06l-655.02 0 0 -69.25c0,-14.68 11.94,-26.63 26.63,-26.63l628.4 0 0 95.88 -0.01 0zm812.85 255.67l-695.66 0 0 -394.16 695.66 0 0 394.16zm1530.62 -69.24c0,14.69 -11.95,26.63 -26.64,26.63l-1386.8 0 0 -95.87 1413.44 0 0 69.24z"/>
   <path class="fil6" d="M1365.74 1476.53l0 123.24c0,45.23 36.8,82.03 82.03,82.03l199.45 0c45.23,0 82.03,-36.8 82.03,-82.03l0 -123.24 123.24 0c45.23,0 82.03,-36.8 82.03,-82.03l0 -199.45c0,-45.23 -36.8,-82.03 -82.03,-82.03l-123.24 0 0 -123.23c0,-45.24 -36.8,-82.04 -82.03,-82.04l-199.45 0c-45.23,0 -82.03,36.8 -82.03,82.03l0 123.24 -123.24 0c-45.23,0 -82.03,36.8 -82.03,82.03l0 199.45c0,45.23 36.8,82.03 82.03,82.03l123.24 0zm-88.08 -246.32l123.24 0c45.23,0 82.03,-36.8 82.03,-82.03l0 -123.24 129.13 0 0 123.23c0,45.24 36.8,82.03 82.03,82.03l123.24 0.01 0 129.13 -123.24 0c-45.23,0 -82.03,36.8 -82.03,82.03l0 123.24 -129.13 0 0 -123.23c0,-45.24 -36.8,-82.04 -82.03,-82.04l-123.24 0 0 -129.13z"/>
   <path class="fil6 str0" d="M2064.83 1751.56c-22.89,-22.87 -59.98,-22.87 -82.86,0 -22.89,22.89 -22.89,59.99 0,82.87l124.22 124.23c11.67,11.68 27.82,17.9 44.24,17.09 16.5,-0.8 31.9,-8.51 42.41,-21.26l166.68 -202.17c20.59,-24.96 17.04,-61.9 -7.94,-82.49 -24.96,-20.57 -61.89,-17.04 -82.49,7.95l-125.65 152.4 -78.61 -78.62z"/>
   <path class="fil6" d="M2937.55 2690.89c32.36,0 58.6,-26.24 58.6,-58.6 -2.68,-77.56 -114.52,-77.55 -117.19,0 0,32.37 26.22,58.6 58.59,58.6z"/>
   <path class="fil6" d="M3363.72 2690.89c32.36,0 58.6,-26.24 58.6,-58.6 -2.69,-77.56 -114.52,-77.55 -117.19,0 0,32.37 26.23,58.6 58.59,58.6z"/>
   <path class="fil6" d="M3150.59 2546.04c32.36,0 58.6,-26.24 58.6,-58.6 -2.68,-77.56 -114.52,-77.55 -117.19,0 0,32.36 26.23,58.6 58.59,58.6z"/>
  </g>
 </g>
</svg>
