<?xml version="1.0" encoding="UTF-8"?>
<!DOCTYPE svg PUBLIC "-//W3C//DTD SVG 1.1//EN" "http://www.w3.org/Graphics/SVG/1.1/DTD/svg11.dtd">
<!-- Creator: CorelDRAW 2021 (64-Bit) -->
<svg xmlns="http://www.w3.org/2000/svg" xml:space="preserve" width="50mm" height="50mm" version="1.1" style="shape-rendering:geometricPrecision; text-rendering:geometricPrecision; image-rendering:optimizeQuality; fill-rule:evenodd; clip-rule:evenodd"
viewBox="0 0 5000 5000"
 xmlns:xlink="http://www.w3.org/1999/xlink"
 xmlns:xodm="http://www.corel.com/coreldraw/odm/2003">
 <defs>
  <style type="text/css">
   <![CDATA[
    .fil0 {fill:none}
    .fil2 {fill:#FDAB08;fill-rule:nonzero}
    .fil1 {fill:#FFCC00;fill-rule:nonzero}
    .fil3 {fill:white;fill-rule:nonzero}
   ]]>
  </style>
 </defs>
 <g id="Layer_x0020_1">
  <metadata id="CorelCorpID_0Corel-Layer"/>
  <rect class="fil0" x="-6.13" y="6.11" width="5000.02" height="5000.02"/>
  <rect class="fil0" x="493.87" y="506.11" width="4000.02" height="4000.02"/>
  <g id="_1983443935424">
   <polygon class="fil1" points="2491.67,4157.31 2252.83,4417.86 2013.99,4157.31 1775.15,4417.86 1536.31,4157.31 1297.46,4417.86 1297.46,596.4 1536.31,856.95 1775.15,596.4 2013.99,856.95 2252.83,596.4 2491.67,856.95 "/>
   <polygon class="fil2" points="3685.88,596.4 3685.88,4417.86 3447.04,4157.31 3208.2,4417.86 2969.35,4157.31 2730.51,4417.86 2491.88,4157.53 2491.67,4157.31 2491.67,4157.31 2491.67,856.95 2491.67,856.95 2493.57,854.88 2730.51,596.4 2969.35,856.95 3208.2,596.4 3447.04,856.95 "/>
   <path class="fil3" d="M2856.45 3041.27l-729.55 0c-47.96,0 -86.85,-38.88 -86.85,-86.85 0,-47.97 38.89,-86.85 86.85,-86.85l729.55 0c47.97,0 86.86,38.88 86.86,86.85 -0.01,47.97 -38.9,86.85 -86.86,86.85z"/>
   <path class="fil3" d="M3203.85 3388.68l-1424.36 0c-47.97,0 -86.85,-38.89 -86.85,-86.86 0,-47.96 38.88,-86.85 86.85,-86.85l1424.36 0c47.97,0 86.85,38.89 86.85,86.86 0,47.96 -38.88,86.85 -86.85,86.85z"/>
   <path class="fil3" d="M3203.85 3736.08l-1424.36 0c-47.97,0 -86.85,-38.88 -86.85,-86.85 0,-47.97 38.88,-86.85 86.85,-86.85l1424.36 0c47.97,0 86.85,38.88 86.85,86.85 0,47.97 -38.88,86.85 -86.85,86.85z"/>
   <path class="fil3" d="M2739.2 1551.77l-65.14 0c-4.34,0 -13.03,-43.42 -17.38,-43.42l82.52 0c47.96,0 86.85,-38.89 86.85,-86.86 0,-47.96 -38.89,-86.85 -86.85,-86.85l-495.06 0c-47.96,0 -86.85,38.89 -86.85,86.85 0,47.97 38.89,86.86 86.85,86.86l143.31 0c36.56,-6.51 73.21,10.94 91.19,43.42l-234.5 0c-47.96,0 -86.85,38.88 -86.85,86.85 0,47.97 38.89,86.85 86.85,86.85l234.5 0c-2.4,0 -4.34,1.94 -4.34,4.34 -22.12,24.73 -53.68,38.93 -86.85,39.08l-143.31 0c-35.26,-0.04 -67.39,20.25 -82.51,52.11 -13.13,33.28 -4.51,71.2 21.71,95.54l356.1 334.38c16.03,16.36 37.88,25.73 60.79,26.06 24,0.35 46.68,-10.98 60.79,-30.4 32.48,-31.96 32.9,-84.2 0.93,-116.68 -1.69,-1.71 -3.45,-3.35 -5.28,-4.92l-204.1 -191.07c54.56,-13.52 104.23,-42.11 143.31,-82.51 35.51,-35.32 62.28,-78.44 78.17,-125.94l65.14 0c47.97,0 86.85,-38.88 86.85,-86.85 0.01,-47.96 -38.88,-86.84 -86.84,-86.84z"/>
   <path class="fil2" d="M1297.46 4504.72l-30.4 0c-35.02,-14.42 -57.5,-48.99 -56.45,-86.86l0 -3821.46c-1.89,-47.93 35.43,-88.32 83.36,-90.21 26.14,-1.03 51.35,9.77 68.63,29.41l173.71 191.08 173.7 -191.08c36.69,-34.19 93.59,-34.19 130.27,0l173.71 191.08 173.7 -191.08c36.69,-34.19 93.59,-34.19 130.28,0l173.7 191.08 173.71 -191.08c36.68,-34.19 93.58,-34.19 130.27,0l173.7 191.08 173.71 -191.08c36.69,-34.19 93.58,-34.19 130.27,0l173.71 191.08 173.7 -191.08c31.69,-36.01 86.56,-39.52 122.58,-7.83 19.64,17.28 30.44,42.49 29.41,68.63l0 3821.46c1.9,47.93 -35.43,88.32 -83.36,90.21 -26.14,1.03 -51.35,-9.77 -68.63,-29.41l-173.71 -191.08 -173.7 191.08c-36.69,34.19 -93.59,34.19 -130.27,0l-173.71 -191.08 -173.7 191.08c-36.69,34.19 -93.59,34.19 -130.28,0l-173.7 -191.08 -173.71 191.08c-36.68,34.19 -93.58,34.19 -130.27,0l-173.7 -191.08 -173.71 191.08c-36.69,34.19 -93.58,34.19 -130.27,0l-173.7 -191.07 -173.71 191.08c-17.62,16.63 -40.9,25.94 -65.14,26.05zm1671.89 -434.26c24.42,-0.87 48.06,8.59 65.14,26.05l173.71 191.08 173.7 -191.08c17.08,-17.45 40.73,-26.91 65.14,-26.05l0 0c24.42,-0.87 48.06,8.59 65.15,26.05l86.85 99.88 -0.01 -3378.52 -86.85 99.88c-17.08,17.45 -40.73,26.91 -65.14,26.06l0 0c-24.41,0.86 -48.05,-8.6 -65.14,-26.06l-173.7 -191.08 -173.71 191.08c-36.69,34.19 -93.58,34.19 -130.27,0l-173.71 -191.08 -173.7 191.08c-36.69,34.19 -93.59,34.19 -130.27,0l-173.71 -191.08 -173.7 191.08c-36.69,34.19 -93.59,34.19 -130.28,0l-173.7 -191.08 -173.7 191.08c-17.09,17.45 -40.73,26.91 -65.15,26.06l0 0c-24.41,0.86 -48.06,-8.6 -65.14,-26.06l-86.85 -99.88 0 3378.52 86.85 -99.88c17.08,-17.45 40.73,-26.91 65.14,-26.05l0 0c24.42,-0.87 48.06,8.59 65.15,26.05l173.7 191.08 173.7 -191.08c36.69,-34.19 93.59,-34.19 130.28,0l173.7 191.08 173.71 -191.08c36.68,-34.19 93.58,-34.19 130.27,0l173.7 191.08 173.71 -191.08c17.08,-17.45 40.72,-26.91 65.13,-26.05z"/>
  </g>
 </g>
</svg>
