<?xml version="1.0" encoding="UTF-8"?>
<!DOCTYPE svg PUBLIC "-//W3C//DTD SVG 1.1//EN" "http://www.w3.org/Graphics/SVG/1.1/DTD/svg11.dtd">
<!-- Creator: CorelDRAW 2021 (64-Bit) -->
<svg xmlns="http://www.w3.org/2000/svg" xml:space="preserve" width="50mm" height="50mm" version="1.1" style="shape-rendering:geometricPrecision; text-rendering:geometricPrecision; image-rendering:optimizeQuality; fill-rule:evenodd; clip-rule:evenodd"
viewBox="0 0 5000 5000"
 xmlns:xlink="http://www.w3.org/1999/xlink"
 xmlns:xodm="http://www.corel.com/coreldraw/odm/2003">
 <defs>
  <style type="text/css">
   <![CDATA[
    .fil0 {fill:none}
    .fil1 {fill:#990000}
   ]]>
  </style>
 </defs>
 <g id="Layer_x0020_1">
  <metadata id="CorelCorpID_0Corel-Layer"/>
  <rect class="fil0" x="-6.13" y="6.11" width="5000.02" height="5000.02"/>
  <rect class="fil0" x="493.87" y="506.11" width="4000.02" height="4000.02"/>
  <g id="_1947396223216">
   <path class="fil1" d="M2483.27 4241.71c-378.2,0 -824.42,-158.62 -1101.22,-405.84 -108.75,-97.13 -119.29,-107.38 -216.48,-216.49 -70.14,-78.72 -123.73,-164.69 -177.55,-255.41 -86.14,-145.19 -138.57,-298.45 -181.72,-467.73 -127.87,-501.71 23.37,-1118.89 359.27,-1495.94 126.13,-141.59 180.32,-195.47 338.71,-310.74 470.06,-342.09 1161.38,-406.4 1692.33,-158.99 541.67,252.41 944.03,758.31 1010.23,1362.76 24.98,228.07 21.25,361.56 -27.02,589.18 -23.4,110.38 -63.48,231.12 -106.32,326.65 -279.38,623 -903.53,1032.55 -1590.23,1032.55zm-1463.42 -376.69c22.93,22.67 39.69,39.54 62.52,62.37 341.52,341.52 846.64,580.76 1342.62,580.76 348.35,0 635.04,-46.67 913.21,-185.85 390.04,-195.16 655.5,-428.78 882.64,-807.6 32.11,-53.54 54.63,-101.12 83.22,-158.25 139.47,-278.75 185.85,-564.17 185.85,-913.22 0,-196.59 -52.05,-433.3 -115.51,-608.88 -55.22,-152.79 -150.05,-344.38 -248.5,-475.88 -609.69,-814.36 -1726.88,-1124.89 -2639.16,-577.87 -53.91,32.32 -96.33,58.47 -147.57,93.89 -218.46,150.97 -446.45,396.55 -576.88,630.43 -30.71,55.08 -54.24,100.53 -83.15,158.31 -342.63,684.77 -200.86,1666.34 340.71,2201.79z"/>
   <path class="fil1" d="M1292.61 2459.88c0,135.79 -1.65,213.95 34.93,348.09 8.71,31.95 20.31,75.27 32.84,108.71 51.13,136.49 113.68,246.49 205.74,360.43 13.05,16.15 22.8,22.89 36.56,38.38 36.9,41.53 10.42,26.64 69.42,72.13 18.85,14.53 22.7,20.97 38.84,36.1 162,151.85 479.76,285.11 714.05,285.11 266.85,0 337.26,-9.01 585.28,-114.13 35.19,-14.92 58.16,-31.14 91.78,-49.77 335.03,-185.65 588.53,-601.48 588.53,-985.13 0,-271.26 -36.03,-440.38 -161.71,-654.26 -43.69,-74.36 -93.91,-147.49 -152.57,-205.47 -62.37,-61.65 -134.02,-156.08 -218.6,-156.08 -135.74,0 -177.31,168.4 -83.45,241.66 29.67,23.16 49.37,44.83 77.21,72.66 49.51,49.5 102.77,108.51 136.64,171.43 160.48,298.06 179.78,545.99 51.71,862.04 -46.48,114.72 -126.67,224 -221.27,303.28 -86.97,72.89 -114.71,105.98 -244.02,163.97 -306.19,137.31 -643.71,99.82 -914.26,-84.71 -245.51,-167.46 -401.21,-465.32 -401.21,-764.48 0,-269.65 138.15,-560.76 345.07,-720.7 103.41,-79.93 60.12,-245.15 -95.28,-245.15 -88.8,0 -305.21,266.2 -355.3,360.77 -90.76,171.36 -160.93,348.81 -160.93,555.12z"/>
   <path class="fil1" d="M2358.38 1427.42l0 965.85c0,60.39 57.75,116.57 149.87,116.57 51.99,0 116.57,-64.57 116.57,-116.57l0 -965.85c0,-60.38 -57.76,-116.56 -149.87,-116.56 -52,0 -116.57,64.57 -116.57,116.56z"/>
  </g>
 </g>
</svg>
