<?xml version="1.0" encoding="UTF-8"?>
<!DOCTYPE svg PUBLIC "-//W3C//DTD SVG 1.1//EN" "http://www.w3.org/Graphics/SVG/1.1/DTD/svg11.dtd">
<!-- Creator: CorelDRAW 2021 (64-Bit) -->
<svg xmlns="http://www.w3.org/2000/svg" xml:space="preserve" width="50mm" height="50mm" version="1.1" style="shape-rendering:geometricPrecision; text-rendering:geometricPrecision; image-rendering:optimizeQuality; fill-rule:evenodd; clip-rule:evenodd"
viewBox="0 0 5000 5000"
 xmlns:xlink="http://www.w3.org/1999/xlink"
 xmlns:xodm="http://www.corel.com/coreldraw/odm/2003">
 <defs>
  <style type="text/css">
   <![CDATA[
    .str0 {stroke:#700101;stroke-width:7.62;stroke-miterlimit:10}
    .fil0 {fill:none}
    .fil5 {fill:#700101;fill-rule:nonzero}
    .fil1 {fill:#FDAB08;fill-rule:nonzero}
    .fil3 {fill:#FFCC00;fill-rule:nonzero}
    .fil2 {fill:#FFE785;fill-rule:nonzero}
    .fil4 {fill:white;fill-rule:nonzero}
   ]]>
  </style>
 </defs>
 <g id="Layer_x0020_1">
  <metadata id="CorelCorpID_0Corel-Layer"/>
  <rect class="fil0" x="-6.13" y="6.11" width="5000.02" height="5000.02"/>
  <rect class="fil0" x="493.87" y="506.11" width="4000.02" height="4000.02"/>
  <g id="_1983444108592">
   <path class="fil1" d="M552.7 4105.71l317.55 -1912.69c34.52,-207.85 214.3,-360.25 425.01,-360.26l2397.17 0c210.71,0.01 390.49,152.41 425.01,360.26l317.55 1912.69 -3882.29 0z"/>
   <polygon class="fil2" points="811.64,4105.71 4176.05,4105.71 4176.05,4447.24 811.64,4447.24 "/>
   <path class="fil1" d="M552.7 564.99l0 158.98c0,336.98 273.18,610.16 610.16,610.16l2661.97 0c336.98,0 610.16,-273.18 610.16,-610.16l0 -158.98 -3882.29 0z"/>
   <polygon class="fil3" points="2216.1,1334.13 2771.55,1334.13 2771.55,1832.75 2216.1,1832.75 "/>
   <path class="fil4" d="M2493.84 2163.92c444.76,0 805.31,360.55 805.31,805.31 0,444.76 -360.55,805.31 -805.31,805.31 -444.76,0 -805.3,-360.55 -805.3,-805.31 0,-444.76 360.54,-805.31 805.3,-805.31z"/>
   <path class="fil5" d="M1680.63 4388.36l-151.4 0c-32.52,0 -58.88,26.37 -58.88,58.88 0,32.52 26.36,58.88 58.88,58.88l151.4 0c32.52,0 58.88,-26.36 58.88,-58.88 0,-32.51 -26.36,-58.88 -58.88,-58.88z"/>
   <path class="fil5" d="M2712.7 1773.88l-437.56 0 0 -380.87 437.74 0 -0.18 380.87zm1346.64 428.77l306.17 1844.18 -3743.34 0 306.18 -1844.18c29.3,-179.72 184.81,-311.54 366.9,-311.02l2397.19 0c182.08,-0.52 337.59,131.3 366.9,311.02zm-234.51 -809.64c369.31,-0.43 668.6,-299.72 669.01,-669.04l0 -158.94c0.02,-32.5 -26.32,-58.87 -58.81,-58.88l-0.07 0 -557.1 0c-32.53,0 -58.88,26.36 -58.88,58.88 0,32.52 26.35,58.88 58.88,58.88l498.22 0 0 100.06c-0.28,304.33 -246.93,550.98 -551.25,551.28l-2661.97 0c-304.34,-0.3 -550.97,-246.95 -551.25,-551.28l0 -100.06 3007.92 0c32.52,0 58.88,-26.36 58.88,-58.88 0,-32.52 -26.36,-58.88 -58.88,-58.88l-3066.8 0c-32.49,-0.02 -58.86,26.31 -58.88,58.81l0 0.07 0 158.94c0.41,369.32 299.69,668.61 669.01,669.04l994.52 0 0 380.87 -862.13 0c-239.75,-0.68 -444.48,172.87 -483.08,409.5l-317.55 1912.71c-5.31,32.08 16.4,62.39 48.48,67.7 3.18,0.54 6.41,0.8 9.63,0.8l200.02 0 0 282.62c-0.01,32.5 26.32,58.87 58.82,58.88l0.06 0 426.43 0c32.51,0 58.88,-26.36 58.88,-58.88 0,-32.52 -26.37,-58.88 -58.88,-58.88l-367.55 0 0 -223.77 3246.79 0 0 223.77 -2159.5 0c-32.51,0 -58.88,26.36 -58.88,58.88 0,32.52 26.37,58.88 58.88,58.88l2218.32 0c32.5,0.02 58.87,-26.31 58.87,-58.81l0 -0.07 0 -282.62 200.04 0c32.52,0.01 58.88,-26.34 58.89,-58.86 0,-3.23 -0.27,-6.46 -0.8,-9.64l-317.54 -1912.71c-38.59,-236.66 -243.38,-410.22 -483.14,-409.5l-861.98 0 0 -380.87 994.37 0z"/>
   <path class="fil5 str0" d="M3237.88 2910.35l-98.66 0c-32.51,0 -58.87,26.36 -58.87,58.88 0,32.52 26.36,58.88 58.87,58.88l98.53 0c-29.38,365.47 -319.56,655.64 -685.02,685.02l0 -98.51c0,-32.52 -26.37,-58.88 -58.89,-58.88 -32.51,0 -58.87,26.36 -58.87,58.88l0 98.51c-365.47,-29.38 -655.65,-319.55 -685.03,-685.02l98.52 0c32.52,0 58.88,-26.36 58.88,-58.88 0,-32.52 -26.36,-58.88 -58.88,-58.88l-98.52 0c29.41,-365.46 319.57,-655.61 685.03,-685.02l0 98.51c0,32.52 26.36,58.88 58.87,58.88 32.52,0 58.89,-26.36 58.89,-58.88l0 -98.51c365.45,29.41 655.61,319.56 685.02,685.02l0.13 0zm-1608.25 58.88c-0.02,477.3 386.89,864.24 864.18,864.25 477.3,0.02 864.24,-386.88 864.25,-864.18 0.02,-477.3 -386.89,-864.24 -864.18,-864.25l-0.04 0c-477.05,0.54 -863.66,387.12 -864.21,864.18z"/>
   <path class="fil5" d="M2493.84 3029.86c-33.45,0 -60.56,-27.12 -60.56,-60.56 0,-33.45 27.11,-60.56 60.56,-60.56 33.46,0 60.57,27.11 60.57,60.56 0,33.44 -27.11,60.56 -60.57,60.56zm76.98 -220.92c-23.96,-11.76 -50.28,-17.95 -76.98,-18.1 -98.48,0 -178.32,79.84 -178.32,178.32 0,98.48 79.84,178.33 178.32,178.33 98.48,0 178.33,-79.85 178.33,-178.33 -0.15,-26.69 -6.36,-53 -18.17,-76.94l231.92 -231.95c22.98,-22.99 22.98,-60.26 0,-83.24 -22.99,-22.98 -60.26,-22.98 -83.24,0l-231.86 231.91z"/>
   <path class="fil4" d="M1076.29 756.97c-32.52,0 -58.88,26.36 -58.88,58.88 0,32.52 26.36,58.88 58.88,58.88l612.35 0c32.52,0 58.88,-26.36 58.88,-58.88 0,-32.52 -26.36,-58.88 -58.88,-58.88l-612.35 0z"/>
   <path class="fil4" d="M1940.04 756.97c-32.52,0 -58.88,26.36 -58.88,58.88 0,32.52 26.36,58.88 58.88,58.88l180.14 0c32.52,0 58.88,-26.36 58.88,-58.88 0,-32.52 -26.36,-58.88 -58.88,-58.88l-180.14 0z"/>
  </g>
 </g>
</svg>
