<?xml version="1.0" encoding="UTF-8"?>
<!DOCTYPE svg PUBLIC "-//W3C//DTD SVG 1.1//EN" "http://www.w3.org/Graphics/SVG/1.1/DTD/svg11.dtd">
<!-- Creator: CorelDRAW 2021 (64-Bit) -->
<svg xmlns="http://www.w3.org/2000/svg" xml:space="preserve" width="50mm" height="50mm" version="1.1" style="shape-rendering:geometricPrecision; text-rendering:geometricPrecision; image-rendering:optimizeQuality; fill-rule:evenodd; clip-rule:evenodd"
viewBox="0 0 5000 5000"
 xmlns:xlink="http://www.w3.org/1999/xlink"
 xmlns:xodm="http://www.corel.com/coreldraw/odm/2003">
 <defs>
  <style type="text/css">
   <![CDATA[
    .fil0 {fill:none}
    .fil1 {fill:white}
   ]]>
  </style>
 </defs>
 <g id="Layer_x0020_1">
  <metadata id="CorelCorpID_0Corel-Layer"/>
  <rect class="fil0" x="-6.13" y="6.11" width="5000.02" height="5000.02"/>
  <rect class="fil0" x="493.87" y="506.11" width="4000.02" height="4000.02"/>
  <g id="_1947812545760">
   <g>
    <g>
     <rect class="fil1" x="489.45" y="3310.31" width="161.7" height="161.7"/>
     <rect class="fil1" x="489.45" y="2956.69" width="161.7" height="161.7"/>
     <rect class="fil1" x="489.45" y="2603.08" width="161.7" height="161.7"/>
     <rect class="fil1" x="489.45" y="2249.47" width="161.7" height="161.7"/>
    </g>
    <g>
     <rect class="fil1" x="978.49" y="3310.31" width="161.7" height="161.7"/>
     <rect class="fil1" x="978.49" y="2956.69" width="161.7" height="161.7"/>
     <rect class="fil1" x="978.49" y="2603.08" width="161.7" height="161.7"/>
     <rect class="fil1" x="978.49" y="2249.47" width="161.7" height="161.7"/>
    </g>
    <rect class="fil1" x="978.49" y="1895.86" width="161.7" height="161.7"/>
    <rect class="fil1" x="978.49" y="1542.25" width="161.7" height="161.7"/>
    <rect class="fil1" x="1486.37" y="3310.31" width="161.7" height="161.7"/>
    <rect class="fil1" x="1486.37" y="2956.69" width="161.7" height="161.7"/>
    <rect class="fil1" x="1486.37" y="2603.08" width="161.7" height="161.7"/>
    <rect class="fil1" x="1486.37" y="2249.47" width="161.7" height="161.7"/>
    <rect class="fil1" x="1486.37" y="1895.86" width="161.7" height="161.7"/>
   </g>
   <g>
    <g>
     <rect class="fil1" x="1912.36" y="3310.31" width="161.7" height="161.7"/>
     <rect class="fil1" x="1912.36" y="2956.69" width="161.7" height="161.7"/>
     <rect class="fil1" x="1912.36" y="2603.08" width="161.7" height="161.7"/>
     <rect class="fil1" x="1912.36" y="2249.47" width="161.7" height="161.7"/>
    </g>
    <g>
     <rect class="fil1" x="2401.4" y="3310.31" width="161.7" height="161.7"/>
     <rect class="fil1" x="2401.4" y="2956.69" width="161.7" height="161.7"/>
     <rect class="fil1" x="2401.4" y="2603.08" width="161.7" height="161.7"/>
     <rect class="fil1" x="2401.4" y="2249.47" width="161.7" height="161.7"/>
    </g>
    <rect class="fil1" x="2401.4" y="1895.86" width="161.7" height="161.7"/>
    <rect class="fil1" x="2401.4" y="1542.25" width="161.7" height="161.7"/>
    <rect class="fil1" x="2909.28" y="3310.31" width="161.7" height="161.7"/>
    <rect class="fil1" x="2909.28" y="2956.69" width="161.7" height="161.7"/>
    <rect class="fil1" x="2909.28" y="2603.08" width="161.7" height="161.7"/>
    <rect class="fil1" x="2909.28" y="2249.47" width="161.7" height="161.7"/>
    <rect class="fil1" x="2909.28" y="1895.86" width="161.7" height="161.7"/>
   </g>
   <g>
    <g>
     <rect class="fil1" x="3335.28" y="3310.31" width="161.7" height="161.7"/>
     <rect class="fil1" x="3335.28" y="2956.69" width="161.7" height="161.7"/>
     <rect class="fil1" x="3335.28" y="2603.08" width="161.7" height="161.7"/>
     <rect class="fil1" x="3335.28" y="2249.47" width="161.7" height="161.7"/>
    </g>
    <g>
     <rect class="fil1" x="3824.32" y="3310.31" width="161.7" height="161.7"/>
     <rect class="fil1" x="3824.32" y="2956.69" width="161.7" height="161.7"/>
     <rect class="fil1" x="3824.32" y="2603.08" width="161.7" height="161.7"/>
     <rect class="fil1" x="3824.32" y="2249.47" width="161.7" height="161.7"/>
    </g>
    <rect class="fil1" x="3824.32" y="1895.86" width="161.7" height="161.7"/>
    <rect class="fil1" x="3824.32" y="1542.25" width="161.7" height="161.7"/>
    <rect class="fil1" x="4332.2" y="3310.31" width="161.7" height="161.7"/>
    <rect class="fil1" x="4332.2" y="2956.69" width="161.7" height="161.7"/>
    <rect class="fil1" x="4332.2" y="2603.08" width="161.7" height="161.7"/>
    <rect class="fil1" x="4332.2" y="2249.47" width="161.7" height="161.7"/>
    <rect class="fil1" x="4332.2" y="1895.86" width="161.7" height="161.7"/>
   </g>
  </g>
 </g>
</svg>
