<?xml version="1.0" encoding="UTF-8"?>
<!DOCTYPE svg PUBLIC "-//W3C//DTD SVG 1.1//EN" "http://www.w3.org/Graphics/SVG/1.1/DTD/svg11.dtd">
<!-- Creator: CorelDRAW 2021 (64-Bit) -->
<svg xmlns="http://www.w3.org/2000/svg" xml:space="preserve" width="50mm" height="50mm" version="1.1" style="shape-rendering:geometricPrecision; text-rendering:geometricPrecision; image-rendering:optimizeQuality; fill-rule:evenodd; clip-rule:evenodd"
viewBox="0 0 5000 5000"
 xmlns:xlink="http://www.w3.org/1999/xlink"
 xmlns:xodm="http://www.corel.com/coreldraw/odm/2003">
 <defs>
  <style type="text/css">
   <![CDATA[
    .fil0 {fill:none}
    .fil3 {fill:#FFCC00}
    .fil2 {fill:#990000;fill-rule:nonzero}
    .fil1 {fill:#FFCC00;fill-rule:nonzero}
   ]]>
  </style>
 </defs>
 <g id="Layer_x0020_1">
  <metadata id="CorelCorpID_0Corel-Layer"/>
  <rect class="fil0" x="-6.13" y="6.11" width="5000.02" height="5000.02"/>
  <rect class="fil0" x="493.87" y="506.11" width="4000.02" height="4000.02"/>
  <g id="_1983375159312">
   <path class="fil1" d="M2375.22 2828.07l-29.28 -32.21c81.99,-98.1 134.7,-224.02 134.7,-363.12 0,-303.08 -238.66,-550.53 -534.42,-550.53 -292.84,0 -531.5,247.45 -531.5,550.53 0,301.62 238.66,549.07 531.5,549.07 105.42,0 202.05,-32.21 284.05,-86.39l76.13 87.85 0 -1.46 0 1.46 177.17 0 0 -155.2 -108.35 0zm-130.31 -150.81l-253.75 -275.72 -115.67 99.56 253.75 275.72c-52.71,30.75 -115.67,48.32 -183.02,48.32 -209.38,0 -379.22,-177.16 -379.22,-392.4 0,-218.16 169.84,-393.86 379.22,-393.86 212.3,0 382.15,175.7 382.15,393.86 0,90.78 -30.75,175.7 -83.46,244.52zm1002.47 -432.09l0 -91.1 -213.77 0 0 91.1 58.57 0 0 196.68c-18.55,64.6 -73.21,110.47 -137.63,110.47 -65.41,0 -120.06,-46.85 -138.61,-110.47l0 -196.68 61.49 0 0 -91.1 -213.77 0 0 91.1 64.43 0 0 173.09c7.81,119.42 104.45,223.86 226.46,223.86 51.73,0 98.58,-18.54 137.63,-50.75l0 50.75 155.2 0 0 -95.65 -60.51 0 0 -301.3 60.51 0zm286.98 396.95l-216.7 0 0 -93.05 61.5 0 0 -299.67 -61.5 0 0 -96.96 156.19 0 0 396.63 60.51 0 0 93.05zm-60.51 -641.31c0,-25.37 -21.48,-46.85 -47.84,-46.85 -26.35,0 -46.85,21.48 -46.85,46.85 0,26.36 20.5,47.84 46.85,47.84 26.36,0 47.84,-21.48 47.84,-47.84zm485.12 194.25c-41,-29.28 -88.83,-43.92 -139.59,-43.92 -134.71,0 -244.02,109.33 -244.02,244.52 0,135.18 109.31,244.51 244.02,244.51 50.76,0 98.59,-15.62 140.56,-44.9l7.82 -5.86 -39.05 -85.08 -12.7 9.92c-27.32,22.45 -61.49,35.14 -96.63,35.14 -83.94,0 -153.24,-69.46 -153.24,-153.73 0,-85.25 69.3,-153.74 153.24,-153.74 18.55,0 37.1,2.93 54.67,9.76l0 58.73 93.71 0 0 -108.51 0 0 -8.79 -6.84zm456.82 346.37l-125.92 -165.13 122.01 -141.7 80.05 0 0 -97.78 -118.11 0 0 0 0 0 -194.24 220.93 0 -450.64 -152.28 0 0 98.75 57.59 0 0 535.57 -57.59 0 0 98.74 57.59 0 90.78 0 3.91 0 0 -129.01 46.85 -57.76 145.44 183.84 0 2.93 122.02 0 0 -98.74 -78.1 0z"/>
   <path class="fil2" d="M2822.89 2818.34c-54.83,0 -100.6,46.25 -100.6,104.31 0,57.73 45.77,103.49 100.6,103.49 36.29,0 68.03,-18.55 85.76,-48.24l-51.12 0c-9.49,7.01 -21.03,10.72 -34.64,10.72 -28.86,0 -53.6,-19.79 -61.02,-47.82l122.87 0 33.81 0 4.12 0c1.24,-5.36 1.65,-11.14 1.65,-18.15 0,-58.06 -45.35,-104.31 -101.43,-104.31zm0 37.52c29.28,0 54.43,20.82 61.85,48.24l-122.87 0c7.83,-27.9 31.75,-48.24 61.02,-48.24zm365.97 -0.48l0 -36.63 -47.83 0 -36.69 65.42 -36.7 -65.42 -46.18 0 0 36.63 25.56 0 37.11 65.01 -38.34 67.89 -24.33 0 0 36.63 42.88 0 40 -69.55 40.4 69.55 44.12 0 0 -36.63 -25.56 0 -38.76 -67.89 37.52 -65.01 26.8 0zm227.85 -36.63c-24.33,0 -46.18,8.66 -63.5,23.09l0 -23.09 -65.97 0 0 40.82 26.8 0 0 229.45 -28.45 0 0 41.03 98.13 0 0 -41.03 -30.51 0 0 -87.2c17.32,14.43 39.17,23.09 63.5,23.09 55.25,0 100.19,-46.11 100.19,-102.87 0,-57.18 -44.94,-103.29 -100.19,-103.29zm0 168.64c-32.57,0 -59.37,-24.67 -63.5,-57.11l0 -16.9c4.13,-32.02 30.93,-57.11 63.5,-57.11 35.04,0 63.91,29.55 63.91,65.77 0,36.21 -28.87,65.35 -63.91,65.35zm321.85 -130.29l0 -36.29c-23.91,0 -45.76,8.66 -62.67,23.51l0 -25.16 -60.2 0 0 39.59 25.16 0 0 129.32 -25.16 0 0 37.25 86.59 0 0 -37.25 -26.39 0 0 -66.93c0,-35.11 28.45,-64.04 62.67,-64.04zm185.38 -38.76c-54.83,0 -100.6,46.25 -100.6,104.31 0,57.73 45.77,103.49 100.6,103.49 36.29,0 68.03,-18.55 85.76,-48.24l-51.12 0c-9.49,7.01 -21.03,10.72 -34.64,10.72 -28.86,0 -53.6,-19.79 -61.02,-47.82l122.87 0 33.81 0 4.12 0c1.24,-5.36 1.65,-11.14 1.65,-18.15 0,-58.06 -45.35,-104.31 -101.43,-104.31zm0 37.52c29.28,0 54.43,20.82 61.85,48.24l-122.87 0c7.83,-27.9 31.75,-48.24 61.02,-48.24zm268.25 44.12c-1.65,-0.41 -3.71,-0.41 -5.77,-0.41 -2.47,-0.42 -4.95,-0.42 -7.83,-0.83 -20.62,-2.89 -22.68,-13.19 -22.68,-20.2 0,-12.78 10.31,-23.5 22.26,-23.92 1.65,0 2.48,0 3.71,0 7.84,0.42 14.43,2.48 20.62,6.19l0 17.73 18.55 0 0 0 0 0 18.56 0 0 -33.4 0 0 -2.06 -2.47c-11.55,-14.85 -33.81,-24.33 -55.67,-24.33l-3.71 0c-32.16,0 -58.96,27.21 -58.96,60.2 0,34.22 30.1,51.54 57.73,56.48 2.88,0.42 5.36,0.83 7.83,1.24 1.65,0 3.71,0.41 5.77,0.83 21.44,3.29 30.93,11.2 30.93,25.35 0,16.63 -13.2,29.07 -30.1,29.48l-0.83 0c-1.65,0 -3.71,0 -6.59,-0.41 -11.96,-0.41 -21.45,-4.12 -29.28,-9.55l0 -21.99 -36.69 0 0 33.19 0.41 0 1.23 2.06c13.2,18.97 37.94,30.92 63.5,30.92l3.71 0 4.54 0c36.28,0 64.73,-27.62 64.73,-63.7 0,-33.19 -25.15,-57.51 -63.91,-62.46zm237.75 0c-1.65,-0.41 -3.71,-0.41 -5.77,-0.41 -2.47,-0.42 -4.95,-0.42 -7.83,-0.83 -20.62,-2.89 -22.68,-13.19 -22.68,-20.2 0,-12.78 10.31,-23.5 22.26,-23.92 1.65,0 2.48,0 3.71,0 7.84,0.42 14.43,2.48 20.62,6.19l0 17.73 18.55 0 0 0 0 0 18.56 0 0 -33.4 0 0 -2.06 -2.47c-11.55,-14.85 -33.81,-24.33 -55.67,-24.33l-3.71 0c-32.16,0 -58.96,27.21 -58.96,60.2 0,34.22 30.1,51.54 57.73,56.48 2.88,0.42 5.36,0.83 7.83,1.24 1.65,0 3.71,0.41 5.77,0.83 21.44,3.29 30.93,11.2 30.93,25.35 0,16.63 -13.2,29.07 -30.1,29.48l-0.83 0c-1.65,0 -3.71,0 -6.59,-0.41 -11.96,-0.41 -21.45,-4.12 -29.28,-9.55l0 -21.99 -36.69 0 0 33.19 0.41 0 1.23 2.06c13.2,18.97 37.94,30.92 63.5,30.92l3.71 0 4.54 0c36.28,0 64.73,-27.62 64.73,-63.7 0,-33.19 -25.15,-57.51 -63.91,-62.46z"/>
   <polygon class="fil3" points="1875.49,2139.44 2013.67,2139.44 2013.67,2501.1 1875.49,2501.1 "/>
   <path class="fil3" d="M1053.29 2101.06l0 -0.02c0,-38.01 31.09,-69.08 69.07,-69.08l115.86 0c38,0 69.09,31.07 69.09,69.08l0 0.02c0,38 -31.09,69.08 -69.09,69.08l-115.86 0c-37.98,0 -69.07,-31.08 -69.07,-69.08z"/>
   <path class="fil3" d="M583.05 2600.17l0 -0.02c0,-38.01 31.08,-69.08 69.09,-69.08l586.08 0c38.01,0 69.09,31.07 69.09,69.08l0 0.02c0,38 -31.08,69.08 -69.09,69.08l-586.08 0c-38.01,0 -69.09,-31.08 -69.09,-69.08z"/>
   <path class="fil3" d="M1122.38 2849.75l0 -0.02c0,-38.01 31.08,-69.08 69.08,-69.08l46.77 0c38,0 69.08,31.07 69.08,69.08l0 0.02c0,38 -31.08,69.08 -69.08,69.08l-46.77 0c-38,0 -69.08,-31.08 -69.08,-69.08z"/>
   <g>
    <path class="fil3" d="M832.43 2350.61l0 -0.01c0,-38.01 31.1,-69.09 69.1,-69.09l336.68 0c38,0 69.1,31.08 69.1,69.09l0 0.01c0,38.01 -31.1,69.08 -69.1,69.08l-336.68 0c-38,0 -69.1,-31.07 -69.1,-69.08z"/>
    <path class="fil3" d="M493.85 2350.61l0 -0.01c0,-38.01 31.08,-69.09 69.08,-69.09l141 0c38,0 69.08,31.08 69.08,69.09l0 0.01c0,38.01 -31.08,69.08 -69.08,69.08l-141 0c-38,0 -69.08,-31.07 -69.08,-69.08z"/>
   </g>
  </g>
 </g>
</svg>
