<?xml version="1.0" encoding="UTF-8"?>
<!DOCTYPE svg PUBLIC "-//W3C//DTD SVG 1.1//EN" "http://www.w3.org/Graphics/SVG/1.1/DTD/svg11.dtd">
<!-- Creator: CorelDRAW 2021 (64-Bit) -->
<svg xmlns="http://www.w3.org/2000/svg" xml:space="preserve" width="50mm" height="50mm" version="1.1" style="shape-rendering:geometricPrecision; text-rendering:geometricPrecision; image-rendering:optimizeQuality; fill-rule:evenodd; clip-rule:evenodd"
viewBox="0 0 5000 5000"
 xmlns:xlink="http://www.w3.org/1999/xlink"
 xmlns:xodm="http://www.corel.com/coreldraw/odm/2003">
 <defs>
  <style type="text/css">
   <![CDATA[
    .fil0 {fill:none}
    .fil6 {fill:#700101;fill-rule:nonzero}
    .fil9 {fill:#EDB374;fill-rule:nonzero}
    .fil3 {fill:#FDAB08;fill-rule:nonzero}
    .fil8 {fill:#FFCC00;fill-rule:nonzero}
    .fil2 {fill:#FFD1A1;fill-rule:nonzero}
    .fil7 {fill:#FFD52B;fill-rule:nonzero}
    .fil1 {fill:#FFDBB5;fill-rule:nonzero}
    .fil5 {fill:#FFE785;fill-rule:nonzero}
    .fil4 {fill:white;fill-rule:nonzero}
   ]]>
  </style>
 </defs>
 <g id="Layer_x0020_1">
  <metadata id="CorelCorpID_0Corel-Layer"/>
  <rect class="fil0" x="-6.13" y="6.11" width="5000.02" height="5000.02"/>
  <rect class="fil0" x="493.87" y="506.11" width="4000.02" height="4000.02"/>
  <g id="_1948058877696">
   <polygon class="fil1" points="1050.98,3708.23 1268.39,3708.23 1268.39,4274.53 1050.98,4274.53 "/>
   <polygon class="fil2" points="1268.39,3708.23 1485.81,3708.23 1485.81,4274.53 1268.39,4274.53 "/>
   <path class="fil3" d="M1018.39 4425.11l250.4 0 0 -189.65 -250.4 0c-52.37,0 -94.82,42.46 -94.82,94.82 0,52.37 42.45,94.83 94.82,94.83z"/>
   <path class="fil3" d="M1519.19 4425.11l-250.39 0 0 -189.65 250.39 0c52.37,0 94.82,42.46 94.82,94.82 0,52.37 -42.45,94.83 -94.82,94.83z"/>
   <polygon class="fil3" points="1050.98,3223.75 1485.81,3223.75 1485.81,3754.37 1050.98,3754.36 "/>
   <g>
    <path class="fil4" d="M1268.39 1592.52c-150.66,0 -272.78,122.13 -272.78,272.78l0 349.7c0,149.83 121.95,271.29 272.39,271.29l0.79 0c150.43,0 272.39,-121.46 272.39,-271.29l0 -349.7c-0.01,-150.65 -122.13,-272.78 -272.79,-272.78z"/>
   </g>
   <path class="fil5" d="M1268.39 1592.52c-41.42,0 -80.66,9.28 -115.83,25.8 92.72,43.56 156.95,137.75 156.95,246.98l0 349.7c0,108.73 -64.24,202.46 -156.95,245.73 35.06,16.37 74.17,25.57 115.44,25.57l0.78 -0.01c150.44,0 272.39,-121.46 272.39,-271.29l0 -349.69c0,-150.66 -122.12,-272.79 -272.78,-272.79z"/>
   <path class="fil5" d="M1633.9 3223.75l-731.01 0 0 -486.24c0,-139.02 112.69,-251.72 251.71,-251.72l227.58 0c139.02,0 251.72,112.7 251.72,251.72l0 486.24z"/>
   <path class="fil1" d="M997.41 3445.63l-0.38 0c-51.99,0 -94.14,-42.15 -94.14,-94.14l0 -567.97 188.66 0 0 567.97c-0.01,52 -42.16,94.14 -94.14,94.14z"/>
   <path class="fil1" d="M1539.76 3445.63l-0.37 0c-51.99,0 -94.14,-42.15 -94.14,-94.14l0 -567.97 188.66 0 0 567.97c-0.01,52 -42.16,94.14 -94.15,94.14l0 0z"/>
   <path class="fil6" d="M1269.61 1592.52l-0.82 0c-41.29,0 -80.39,9.25 -115.43,25.74 92.26,43.39 156.15,137.13 156.15,245.84l0 74.83 44.42 -50.58 91.31 97.4 95.93 0 0 -121.65c0.01,-149.99 -121.58,-271.58 -271.56,-271.58z"/>
   <path class="fil6" d="M2356.21 587.15l-160.47 0c-12.06,0 -23.92,0.8 -35.6,2.19 147.63,17.61 262.12,143.15 262.12,295.52l0 409.98 231.66 0.01 0 -409.98c0,-164.43 -133.28,-297.72 -297.71,-297.72z"/>
   <path class="fil4" d="M1898.02 1171.72l0 164.01c0,207.6 168.97,375.89 377.41,375.89l1.09 0c208.44,0 377.41,-168.29 377.41,-375.89l0 -406.62 -153.26 0c-66.25,0 -129.58,30.4 -168.6,83.95 -51.09,70.11 -168.23,158.66 -434.05,158.66l0 0z"/>
   <path class="fil5" d="M2500.67 929.11c-27.13,0 -53.74,5.17 -78.42,14.87l0 391.75c0,167.54 -110.08,309.41 -262.11,357.96 36.34,11.6 75.07,17.93 115.29,17.93l1.09 0c208.44,0 377.41,-168.29 377.41,-375.89l0 -406.62 -153.26 0z"/>
   <path class="fil7" d="M2706.03 2712.7l-860.12 0 0 -704.08c0,-163.57 132.6,-296.17 296.17,-296.17l267.79 0c163.57,0 296.17,132.6 296.17,296.18l0 704.07 -0.01 0z"/>
   <path class="fil1" d="M1957.12 3023.88l-0.45 0c-61.17,0 -110.76,-49.6 -110.76,-110.76l0 -800.24 221.98 0 0 800.23c0,61.17 -49.6,110.77 -110.77,110.77z"/>
   <path class="fil1" d="M2595.27 3023.88l-0.45 0c-61.17,0 -110.76,-49.6 -110.76,-110.76l0 -800.24 221.98 0 0 800.23c-0.01,61.17 -49.59,110.77 -110.77,110.77z"/>
   <path class="fil3" d="M1966.19 4425.11l309.78 0 0 -189.65 -309.78 0c-52.38,0 -94.83,42.46 -94.83,94.82 0,52.37 42.45,94.83 94.83,94.83z"/>
   <path class="fil3" d="M2585.76 4425.11l-309.79 0 0 -189.65 309.79 0c52.37,0 94.82,42.46 94.82,94.82 0,52.37 -42.45,94.83 -94.82,94.83z"/>
   <path class="fil6" d="M3367.77 587.15c-39.98,0 -78.78,5.02 -115.84,14.39 204.14,51.63 355.22,236.49 355.22,456.67 0,220.17 -151.08,405.04 -355.22,456.66 37.06,9.37 75.86,14.39 115.84,14.39 260.15,0 471.05,-210.9 471.05,-471.05 0,-260.16 -210.9,-471.06 -471.05,-471.06z"/>
   <g>
    <path class="fil4" d="M3266.88 967.21c-126.6,0 -229.22,102.63 -229.22,229.23l0 186.87c0,181.32 147.58,328.3 329.63,328.3l0.95 0c182.05,0 329.63,-146.99 329.63,-328.3l0 -186.87c0,-126.6 -102.63,-229.23 -229.23,-229.23l-201.76 0z"/>
   </g>
   <path class="fil5" d="M3468.64 967.21l-201.75 0c-5.02,0 -10.01,0.22 -14.96,0.54 119.62,7.72 214.27,107.13 214.27,228.7l0 186.86c0,140.89 -89.13,261.01 -214.27,307.59 35.91,13.36 74.77,20.72 115.36,20.72l0.95 0c182.05,0 329.63,-146.99 329.63,-328.3l0 -186.87c0,-126.6 -102.63,-229.23 -229.23,-229.23l0 -0.01z"/>
   <path class="fil8" d="M3797.83 2712.7l-860.13 0 0 -704.08c0,-163.57 132.6,-296.17 296.17,-296.17l267.79 0c163.57,0 296.17,132.6 296.17,296.18l0 704.07z"/>
   <path class="fil9" d="M3048.92 3023.88l-0.45 0c-61.18,0 -110.76,-49.6 -110.76,-110.76l0 -800.24 221.97 0 0 800.23c0,61.17 -49.6,110.77 -110.76,110.77z"/>
   <path class="fil3" d="M3057.97 4425.11l459.23 0 0 -189.65 -459.23 0c-52.37,0 -94.82,42.46 -94.82,94.82 0,52.37 42.46,94.83 94.82,94.83z"/>
   <path class="fil6" d="M3719.35 3109.96c-196.2,0 -355.25,-159.05 -355.25,-355.24l0 -261.48c0,-195.9 158.81,-354.71 354.72,-354.71l1.07 0c195.9,0 354.71,158.81 354.71,354.71l0 261.48c0,196.2 -159.05,355.24 -355.25,355.24z"/>
   <path class="fil5" d="M3719.89 2138.53l-1.08 0c-40.38,0 -79.14,6.84 -115.3,19.26 139.28,47.87 239.42,179.92 239.42,335.45l0 261.47c0,155.63 -100.12,287.79 -239.42,335.83 36.32,12.53 75.26,19.42 115.84,19.42 196.2,0 355.24,-159.05 355.24,-355.25l0 -261.47c0.01,-195.91 -158.81,-354.72 -354.7,-354.72l0 0.01z"/>
   <polygon class="fil1" points="3501.94,3775.15 3719.36,3775.15 3719.36,4274.53 3501.94,4274.53 "/>
   <polygon class="fil2" points="3719.35,3775.15 3936.76,3775.15 3936.76,4274.53 3719.35,4274.53 "/>
   <g>
    <path class="fil4" d="M3517.2 2494.3l0 169.89c0,111.03 90.37,201.04 201.86,201.04l0.58 0c111.48,0 201.86,-90.01 201.86,-201.04l0 -169.89 -404.3 0z"/>
   </g>
   <path class="fil2" d="M3719.35 2494.3l0 169.89c0,74.46 -40.68,139.42 -101.08,174.16 29.67,17.06 64.07,26.88 100.79,26.88l0.57 0c111.49,0 201.86,-90.01 201.86,-201.04l0 -169.89 -202.14 0z"/>
   <path class="fil5" d="M3833.14 2871.9l-227.58 0c-139.01,0 -251.72,112.7 -251.72,251.72l0 331.8 148.09 0 0 376.17 434.83 -0.01 0 -376.16 148.09 0 0 -331.8c0.01,-139.03 -112.69,-251.72 -251.71,-251.72l0 0z"/>
   <path class="fil1" d="M3448.37 3677.3l-0.38 0c-52,0 -94.14,-42.15 -94.14,-94.14l0 -413.52 188.66 0 0 413.52c-0.01,51.99 -42.16,94.14 -94.14,94.14z"/>
   <path class="fil1" d="M3990.71 3677.3l-0.38 0c-51.99,0 -94.13,-42.15 -94.13,-94.14l0 -413.52 188.66 0 0 413.52c0,51.99 -42.15,94.14 -94.15,94.14z"/>
   <path class="fil3" d="M3469.35 4425.11l250.4 0 0 -189.65 -250.4 0c-52.37,0 -94.82,42.46 -94.82,94.82 0,52.37 42.45,94.83 94.82,94.83z"/>
   <path class="fil3" d="M3970.15 4425.11l-250.39 0 0 -189.65 250.39 0c52.37,0 94.82,42.46 94.82,94.82 0,52.37 -42.45,94.83 -94.82,94.83z"/>
   <path class="fil6" d="M4326.44 4367.19l-208.25 0c2.96,-11.84 4.7,-24.16 4.7,-36.9 0,-75.85 -55.64,-138.78 -128.21,-150.58l0 -444.7c82,-2.13 148.09,-69.34 148.09,-151.85l0 -459.55c0,-66.38 -21.07,-127.9 -56.77,-178.35 30.51,-58.6 46.51,-123.68 46.51,-190.55l0 -261.48c0,-179.93 -115.81,-333.24 -276.77,-389.54l0 -95.08c0,-153.24 -97.88,-284.03 -234.4,-333.21 73.65,-63.47 123.15,-153.99 132.69,-255.96 92.01,-98.33 142.7,-226.32 142.7,-361.24 0,-291.67 -237.3,-528.97 -528.98,-528.97 -291.68,0 -528.97,237.3 -528.97,528.97 0,135.19 50.66,262.84 142.69,361.17 9.53,102 59.03,192.56 132.7,256.04 -136.52,49.19 -234.4,179.96 -234.4,333.21l0 382.82c0,31.98 25.92,57.92 57.92,57.92 31.99,0 57.92,-25.94 57.92,-57.92l0 -220.64 106.14 0 0 742.31c0,29.13 -23.71,52.84 -53.3,52.84 -29.13,0 -52.84,-23.71 -52.84,-52.84l0 -233.35c0,-31.99 -25.92,-57.92 -57.92,-57.92 -31.99,0 -57.92,25.93 -57.92,57.92l0 233.35c0,93 75.68,168.67 169.13,168.67 1.71,0 3.41,-0.07 5.12,-0.13l0 1096.08c-82.39,2.12 -148.8,69.66 -148.8,152.54 0,12.75 1.74,25.07 4.69,36.9l-176.11 0.01c2.96,-11.85 4.7,-24.16 4.7,-36.9 0,-82.89 -66.41,-150.42 -148.81,-152.54l0 -1096.08c93.66,2.8 174.25,-74.49 174.25,-168.54l0 -904.49c0,-148.88 -92.4,-276.51 -222.84,-328.76 103.7,-79.36 170.73,-204.07 170.73,-344.14l0 -450.86c0.02,-196.1 -159.52,-355.64 -355.62,-355.64l-160.47 0c-196.1,0 -355.64,159.54 -355.64,355.64l0 450.85c0,140.08 67.02,264.78 170.73,344.14 -130.43,52.26 -222.84,179.88 -222.84,328.76l0 904.48c0,94.03 80.52,171.35 174.25,168.55l0 1096.08c-82.39,2.12 -148.8,69.65 -148.8,152.54 0,12.75 1.74,25.06 4.69,36.9l-150.9 0c2.95,-11.85 4.69,-24.16 4.69,-36.9 0,-75.86 -55.64,-138.8 -128.22,-150.59l0 -676.36c82,-2.12 148.1,-69.35 148.1,-151.85l0 -614c0,-129.42 -79.86,-240.5 -192.86,-286.69 61.7,-59.85 100.14,-143.41 100.14,-235.8l0 -349.71c0,-182.34 -148.35,-330.69 -330.7,-330.69 -39.13,0 -77.47,6.79 -113.96,20.18 -30.03,11.02 -45.44,44.29 -34.42,74.32 11.03,30.03 44.26,45.44 74.33,34.43 23.66,-8.69 48.57,-13.09 74.05,-13.09 118.48,0 214.87,96.39 214.87,214.86l0 62.53 -12.93 0 -74.15 -79.09c-23.07,-24.6 -63.52,-23.95 -85.77,1.39l-68.24 77.7 -188.65 0c0,-37.3 -2.76,-76.33 5.99,-112.89 7.47,-31.1 -11.71,-62.36 -42.81,-69.82 -31.08,-7.47 -62.36,11.7 -69.83,42.8 -6.1,25.42 -9.19,51.46 -9.19,77.39l0 349.71c0,92.39 38.43,175.95 100.14,235.8 -113,46.2 -192.86,157.27 -192.86,286.7l0 614c0,82.5 66.09,149.72 148.09,151.85l0 676.48c-72.18,12.13 -127.4,74.89 -127.4,150.46 0,12.75 1.74,25.07 4.69,36.9l-209.03 0c-31.99,0 -57.92,25.94 -57.92,57.92 0,31.99 25.93,57.92 57.92,57.92l3665.14 0c31.99,0 57.92,-25.94 57.92,-57.92 0,-31.99 -25.93,-57.92 -57.92,-57.92l0 0zm-1108.84 -1454.07l0 -142.5 88.9 0c2.32,61.27 18.11,120.7 46.19,174.64 -35.7,50.46 -56.77,111.98 -56.77,178.35l0 459.55c0,82.51 66.1,149.73 148.1,151.86l0 442.53 -274.15 -0.01 0 -1147.02c29.51,-30.4 47.73,-71.8 47.73,-117.4zm645.98 -248.93c0,78.92 -64.56,143.12 -144.52,143.12 -79.37,0 -143.94,-64.2 -143.94,-143.12l0 -111.97 288.45 0 0 111.97 0.01 0zm-258.02 265.63l227.58 0c102.86,0 187.23,80.57 193.4,181.9l-130.34 0.01c-31.99,0 -57.92,25.93 -57.92,57.91l0 413.53c0,39.78 15.48,75.92 40.57,103.05l0 87.46 -318.99 0 0 -87.48c25.08,-27.12 40.55,-63.26 40.55,-103.03l0 -413.53c0,-31.98 -25.92,-57.92 -57.91,-57.92l-130.34 0.01c6.17,-101.34 90.54,-181.91 193.4,-181.91l0 0zm-193.8 297.73l72.82 0 0 355.61c0,19.97 -16.25,36.22 -36.21,36.22l-0.38 0c-19.97,0 -36.22,-16.25 -36.22,-36.22l0 -355.61 -0.01 0zm148.1 949.99l0 -288.04 101.57 0 0 288.04 -101.57 0zm217.4 0l0 -288.04 101.58 0 0 288.04 -101.58 0zm249.67 -594.38c0,19.97 -16.25,36.22 -36.22,36.22l-0.38 0c-19.96,0 -36.21,-16.25 -36.21,-36.22l0 -355.61 72.82 0 0 355.61 -0.01 0zm-10.25 -1089.92l0 261.48c0,36.73 -6.7,72.7 -19.61,106.4 -23.3,-14.6 -48.66,-26.18 -75.55,-34.21 36.16,-44.5 57.89,-101.11 57.89,-162.72l0 -169.89c0,-31.98 -25.93,-57.92 -57.92,-57.92l-404.29 0c-31.99,0 -57.92,25.94 -57.92,57.92l0 169.89c0,61.59 21.73,118.21 57.93,162.71 -26.91,8.02 -52.28,19.61 -75.6,34.22 -12.91,-33.7 -19.6,-69.67 -19.6,-106.4l0 -261.48c0,-163.65 133.14,-296.8 296.79,-296.8l1.08 0c163.66,0 296.8,133.14 296.8,296.8zm-1036.94 -1296.8l0 3.94c-16.45,-44.97 -25.12,-92.93 -25.12,-142.18 0,-227.81 185.33,-413.14 413.14,-413.14 227.81,0 413.14,185.33 413.14,413.14 0,49.1 -8.68,97.01 -25.11,141.97l0 -3.73c0,-158.33 -128.82,-287.14 -287.15,-287.14l-201.76 0c-158.33,0 -287.14,128.81 -287.14,287.15l0 -0.01zm115.83 0c0,-94.46 76.85,-171.31 171.32,-171.31l201.75 0c94.46,0 171.32,76.85 171.32,171.31l0 186.87c0,149.09 -121.89,270.39 -271.72,270.39l-0.94 -0.01c-149.83,0 -271.73,-121.29 -271.73,-270.38l0 -186.87zm-99.95 858.53l0 -46.35c0,-131.37 106.89,-238.25 238.26,-238.25l267.78 0c131.37,0 238.26,106.87 238.26,238.25l0 72.49c-232.29,-11.15 -433.72,179.04 -433.72,412.12l0 161.55 -88.6 0 0 -541.9c0,-31.98 -25.92,-57.92 -57.92,-57.92l-164.06 0.01zm-719.65 950.36c-31.99,0 -57.91,25.93 -57.91,57.91l0 1114.3 -139.99 0 0 -1147.02c29.51,-30.39 47.74,-71.79 47.74,-117.4l0 -142.5 300.34 0 0 142.49c0,45.6 18.21,87.01 47.72,117.39l0 1147.04 -139.97 0 0 -1114.3c-0.01,-31.98 -25.94,-57.91 -57.93,-57.91zm372.15 -92.21c0,29.13 -23.7,52.84 -52.85,52.84l-0.45 0c-29.14,0 -52.85,-23.71 -52.85,-52.84l0 -742.31 106.15 0 0 742.31 0 0zm-452.38 -2268.05l160.47 0c127.63,0 232.27,100.23 239.39,226.12l-94.93 0c-85.71,0 -166.23,40.28 -215.41,107.75 -41.02,56.31 -131.3,122.45 -329.32,133.29l0 -227.36c0,-132.23 107.58,-239.8 239.8,-239.8zm-239.8 690.66l0 -107.49c247.78,-12.35 366.51,-103.63 422.94,-181.07 27.45,-37.65 72.97,-60.14 121.79,-60.14l95.35 0 0 348.71c0,175.33 -143.33,317.97 -319.49,317.97l-1.09 0c-176.19,-0.01 -319.5,-142.65 -319.5,-317.98l0 0zm186.13 434.65l267.79 0c131.38,0 238.26,106.87 238.26,238.25l0 46.34 -164.06 0c-31.99,0 -57.91,25.93 -57.91,57.92l0 541.9 -300.34 0 0 -541.9c0,-31.99 -25.93,-57.92 -57.92,-57.92l-164.06 0 0 -46.34c0,-131.38 106.88,-238.26 238.24,-238.26l0 0.01zm-185.39 1195.58c-29.14,0 -52.85,-23.71 -52.85,-52.84l0 -742.31 106.14 0 0 742.31c0,29.13 -23.71,52.84 -52.85,52.84l-0.44 0zm-528.8 488.57l0 241.92 -101.57 0 0 -221.76c0,-31.99 -25.92,-57.92 -57.92,-57.92 -31.99,0 -57.91,25.93 -57.91,57.92l0 221.76 -101.59 0 0 -241.9c25.09,-27.13 40.57,-63.27 40.57,-103.05l0 -69.82 237.87 0 0 69.82c0,39.76 15.47,75.9 40.55,103.03l0 0zm-318.99 357.75l101.58 0 0 365.26 -101.58 0 0 -365.26zm217.42 365.26l0 -365.26 101.57 0 0 365.26 -101.57 0zm249.67 -826.05c0,19.97 -16.25,36.22 -36.22,36.22l-0.37 0c-19.97,0 -36.22,-16.25 -36.22,-36.22l0 -510.05 72.82 0 0 510.05 -0.01 0zm-307.59 -1307.83c16.67,0 32.52,-7.18 43.52,-19.7l43.43 -49.44 47.65 50.84c10.95,11.68 26.24,18.3 42.26,18.3l38.02 0.01 0 171.33c0,112.97 -88.72,205.66 -200.47,212.86l-28.81 0c-111.75,-7.21 -200.47,-99.9 -200.47,-212.86l0 -171.34 214.87 0zm-113.8 500.05l227.59 0c102.86,0 187.23,80.56 193.4,181.9l-130.34 0c-31.99,0 -57.92,25.94 -57.92,57.92l0 382.31 -237.86 0 0 -382.31c0,-31.98 -25.93,-57.92 -57.92,-57.92l-130.34 0c6.17,-101.34 90.54,-181.9 193.39,-181.9l0 0zm-193.78 807.78l0 -510.05 72.82 0 0 510.05c0,19.97 -16.25,36.22 -36.22,36.22l-0.38 0c-19.98,0 -36.22,-16.25 -36.22,-36.22zm20.68 978.8c0,-20.35 16.56,-36.9 36.9,-36.9l192.48 0 0 73.8 -192.48 0c-20.34,0 -36.9,-16.55 -36.9,-36.9l0 0zm345.22 36.9l0 -73.81 192.48 0c20.36,0 36.9,16.55 36.9,36.9 0,20.35 -16.54,36.91 -36.9,36.91l-192.48 0zm602.57 -36.9c0,-20.35 16.56,-36.9 36.91,-36.9l251.87 0 0 73.8 -251.87 0c-20.36,0 -36.91,-16.55 -36.91,-36.9l0 0zm404.61 36.9l0 -73.81 251.87 0c20.35,0 36.9,16.55 36.9,36.9 0,20.35 -16.55,36.91 -36.9,36.91l-251.87 0zm687.19 -36.9c0,-20.35 16.56,-36.9 36.9,-36.9l263.33 0c-6.26,24.6 -6.26,49.2 0,73.81l-263.33 0c-20.35,-0.01 -36.9,-16.56 -36.9,-36.91zm448.27 36.9c-20.35,0 -36.9,-16.55 -36.9,-36.9 0,-20.34 16.56,-36.9 36.9,-36.9l192.48 0 0 73.8 -192.48 0zm308.31 0l0 -73.81 192.49 0c20.35,0 36.9,16.55 36.9,36.9 0,20.35 -16.55,36.91 -36.9,36.91l-192.49 0z"/>
  </g>
 </g>
</svg>
