<svg width="23" height="22" viewBox="0 0 23 22" fill="none" xmlns="http://www.w3.org/2000/svg">
<path d="M7.875 19.9375C8.63439 19.9375 9.25 19.3219 9.25 18.5625C9.25 17.8031 8.63439 17.1875 7.875 17.1875C7.11561 17.1875 6.5 17.8031 6.5 18.5625C6.5 19.3219 7.11561 19.9375 7.875 19.9375Z" fill="#F6A41A"/>
<path d="M16.8125 19.9375C17.5719 19.9375 18.1875 19.3219 18.1875 18.5625C18.1875 17.8031 17.5719 17.1875 16.8125 17.1875C16.0531 17.1875 15.4375 17.8031 15.4375 18.5625C15.4375 19.3219 16.0531 19.9375 16.8125 19.9375Z" fill="#F6A41A"/>
<path d="M4.63393 6.1875H20.0536L17.7849 14.1277C17.7028 14.415 17.5294 14.6678 17.2909 14.8477C17.0523 15.0277 16.7616 15.125 16.4628 15.125H8.22466C7.92586 15.125 7.63519 15.0277 7.39665 14.8477C7.1581 14.6678 6.98466 14.415 6.90257 14.1277L3.79425 3.24863C3.75321 3.10498 3.66649 2.9786 3.54721 2.88864C3.42794 2.79867 3.2826 2.75 3.1332 2.75H1.6875" stroke="#F6A41A" stroke-width="2" stroke-linecap="round" stroke-linejoin="round"/>
</svg>
